<?xml version="1.0" encoding="utf-8"?>
<!-- Generator: Adobe Illustrator 23.1.0, SVG Export Plug-In . SVG Version: 6.00 Build 0)  -->
<svg version="1.1" id="Layer_1" xmlns="http://www.w3.org/2000/svg" xmlns:xlink="http://www.w3.org/1999/xlink" x="0px" y="0px"
	 viewBox="0 0 436 276" style="enable-background:new 0 0 436 276;" xml:space="preserve">
<style type="text/css">
	.st0{fill:none;stroke:#704728;stroke-width:9;stroke-linecap:round;stroke-linejoin:round;stroke-miterlimit:10;}
	.st1{fill:#704728;}
	.st2{fill:#CAFDFF;}
	.st3{fill:#F1E5A4;}
	.st4{fill:#FFF5C4;}
	.st5{fill:url(#SVGID_1_);}
	.st6{fill:#FFFFFF;}
	.st7{clip-path:url(#SVGID_3_);}
	.st8{opacity:0.25;fill:url(#SVGID_4_);}
</style>
<path class="st0" d="M1437.9,179.3c0,0-19,13-17,31.5s28,18.5,28,18.5"/>
<path class="st0" d="M1608.2,179.3c0,0,19,13,17,31.5s-28,18.5-28,18.5"/>
<g>
	<g>
		<path class="st1" d="M141,93.1c-0.7,0-1.5-0.2-2.2-0.5c-0.9-0.4-21.6-10.7-20.9-36.2c0.1-2.8,2.4-4.9,5.1-4.9
			c2.8,0.1,4.9,2.4,4.9,5.1c-0.5,19.1,15.1,26.8,15.2,26.9c2.5,1.2,3.5,4.2,2.3,6.7C144.6,92.1,142.8,93.1,141,93.1z"/>
	</g>
	<g>
		<g>
			
				<rect x="90.6" y="25.6" transform="matrix(0.9809 0.1944 -0.1944 0.9809 11.5782 -20.1378)" class="st2" width="35.5" height="46.7"/>
		</g>
		<g>
			<path class="st3" d="M96.9,62.4c-0.4,0-0.9-0.1-1.2-0.3c-1.2-0.7-1.6-2.2-0.9-3.4l29.4-50.9l2.2-1.3l20.5,0c0,0,0,0,0,0
				c1.4,0,2.5,1.1,2.5,2.5c0,1.4-1.1,2.5-2.5,2.5l-19,0L99.1,61.2C98.6,62,97.8,62.4,96.9,62.4z"/>
		</g>
		<path class="st4" d="M125.5,38.5l-29-5.7c-3.5-0.7-5.8-4.1-5.1-7.6l0.2-1.1c0.7-3.5,4.1-5.8,7.6-5.1l29,5.7
			c3.5,0.7,5.8,4.1,5.1,7.6l-0.2,1.1C132.4,36.9,129,39.2,125.5,38.5z"/>
	</g>
	<g>
		<g>
			
				<linearGradient id="SVGID_1_" gradientUnits="userSpaceOnUse" x1="301.957" y1="2562.8857" x2="301.957" y2="2320.439" gradientTransform="matrix(0.7633 0.6461 -0.6461 0.7633 1571.7472 -1938.5697)">
				<stop  offset="0" style="stop-color:#D19869"/>
				<stop  offset="1" style="stop-color:#F7DAC4"/>
			</linearGradient>
			<path class="st5" d="M298.1,173.9c37-62.2,30.4-103.5,20-126.2c-8.3-18-22-26.1-30.5-29.5c-22.3-8.5-67-13.4-128.1,38.3
				c-75.3,63.7-52.7,122.6-13.1,156.1C186,246.2,247.8,258.7,298.1,173.9z"/>
		</g>
		<g>
			<path class="st1" d="M215.1,58.4c-0.4-0.3-0.6-0.7-0.6-1.3c-0.1-1,0.7-1.9,1.7-2.1c0.6,0,5.4-0.4,8.4,2.1
				c0.8,0.6,0.9,1.8,0.2,2.7c-0.7,0.8-1.8,0.9-2.7,0.2c-1.5-1.3-4.6-1.3-5.7-1.3C215.9,58.8,215.4,58.7,215.1,58.4z"/>
		</g>
		<g>
			<path class="st1" d="M255.4,91.7c-0.2-1-0.7-4.1-2.2-5.4c-0.8-0.6-0.9-1.8-0.2-2.7s1.8-0.9,2.7-0.2c3,2.5,3.4,7.3,3.5,7.9
				c0,1.1-0.7,1.9-1.7,2.1c-0.6,0-1-0.1-1.4-0.4C255.7,92.8,255.5,92.3,255.4,91.7z"/>
		</g>
		<g>
			<g>
				<g>
					
						<ellipse transform="matrix(0.6461 -0.7633 0.7633 0.6461 16.557 189.023)" class="st6" cx="212.1" cy="76.7" rx="11.9" ry="10.5"/>
					<ellipse transform="matrix(0.6461 -0.7633 0.7633 0.6461 13.8012 189.5683)" class="st1" cx="211.3" cy="79.9" rx="8" ry="7"/>
				</g>
				<g>
					
						<ellipse transform="matrix(0.6461 -0.7633 0.7633 0.6461 9.5874 213.426)" class="st6" cx="234.9" cy="96.4" rx="11.9" ry="10.5"/>
					<ellipse transform="matrix(0.6461 -0.7633 0.7633 0.6461 6.8317 213.9713)" class="st1" cx="234.2" cy="99.6" rx="8" ry="7"/>
				</g>
			</g>
		</g>
		<g>
			<path class="st1" d="M217.6,116.6c-10.1,0-17.3-5.1-17.7-5.4c-0.9-0.6-1.1-1.9-0.5-2.8c0.6-0.9,1.9-1.1,2.8-0.5
				c0.2,0.1,11,7.6,23.9,3.2c1-0.4,2.2,0.2,2.5,1.2c0.4,1-0.2,2.2-1.2,2.5C223.9,116.2,220.6,116.6,217.6,116.6z"/>
		</g>
	</g>
	<g>
		<g>
			<path class="st2" d="M218,264.2c-88.6,0-182.8-11.3-182.8-32.4c0-6.1,7.7-11.6,23-16.3c1.1-0.3,2.2,0.3,2.5,1.3
				c0.3,1.1-0.3,2.2-1.3,2.5c-18.2,5.7-20.2,10.7-20.2,12.5c0,5.2,13.5,13.1,51.3,19.5c34.1,5.7,79.4,8.9,127.5,8.9
				s93.4-3.2,127.5-8.9c37.8-6.4,51.3-14.2,51.3-19.5c0-1.9-2.2-8.6-31-15.5c-1.1-0.3-1.7-1.3-1.5-2.4c0.3-1.1,1.3-1.7,2.4-1.5
				c22.6,5.4,34.1,11.9,34.1,19.4C400.8,252.8,306.6,264.2,218,264.2z"/>
		</g>
		<g>
			<path class="st2" d="M10.8,236.3c-1.1,0-2-0.9-2-2c0-6.9,8.5-12.9,26.1-18.4c1.1-0.3,2.2,0.3,2.5,1.3c0.3,1.1-0.3,2.2-1.3,2.5
				c-20.3,6.4-23.3,11.9-23.3,14.6C12.8,235.4,11.9,236.3,10.8,236.3z"/>
		</g>
		<g>
			<path class="st2" d="M218,271c-28.6,0-56.8-1-83.7-3c-1.1-0.1-1.9-1-1.8-2.1c0.1-1.1,1-1.9,2.1-1.8c26.8,2,54.9,3,83.4,3
				c52.1,0,101.6-3.2,139.4-9c1.1-0.2,2.1,0.6,2.3,1.7c0.2,1.1-0.6,2.1-1.7,2.3C320,267.8,270.3,271,218,271z"/>
		</g>
		<g>
			<path class="st2" d="M403.9,251.7c-0.8,0-1.6-0.5-1.9-1.4c-0.4-1,0.2-2.2,1.2-2.5c12.7-4.3,20-9.3,20-13.5
				c0-2.8-3.5-10.2-35.7-18c-1.1-0.3-1.7-1.3-1.5-2.4c0.3-1.1,1.3-1.7,2.4-1.5c25.7,6.2,38.8,13.6,38.8,21.9
				c0,6.4-7.6,12.2-22.7,17.3C404.3,251.7,404.1,251.7,403.9,251.7z"/>
		</g>
	</g>
	<g>
		<path class="st1" d="M54.3,177c-2,0-3.9-0.8-5.4-2.3l-14.6-15c-2.9-3-2.8-7.7,0.1-10.6c3-2.9,7.7-2.8,10.6,0.1l8.1,8.3
			c23.8-31.2,66.2-25.1,68.1-24.8c4.1,0.6,6.9,4.5,6.3,8.5c-0.6,4.1-4.4,6.9-8.5,6.3c-1.7-0.3-41.1-5.7-58.1,25.5
			c-1.1,2.1-3.2,3.5-5.6,3.8C55,176.9,54.7,177,54.3,177z"/>
	</g>
	<g>
		<path class="st4" d="M346.6,241.7H108.5c-18.4,0-33.3-14.9-33.3-33.3v-5.6c0-18.4,14.9-33.3,33.3-33.3h238.1
			c18.4,0,33.3,14.9,33.3,33.3v5.6C379.9,226.8,365,241.7,346.6,241.7z"/>
		<g>
			<defs>
				<path id="SVGID_2_" d="M346.6,241.7H108.5c-18.4,0-33.3-14.9-33.3-33.3v-5.6c0-18.4,14.9-33.3,33.3-33.3h238.1
					c18.4,0,33.3,14.9,33.3,33.3v5.6C379.9,226.8,365,241.7,346.6,241.7z"/>
			</defs>
			<clipPath id="SVGID_3_">
				<use xlink:href="#SVGID_2_"  style="overflow:visible;"/>
			</clipPath>
			<g class="st7">
				<rect x="53" y="165.4" class="st3" width="49.9" height="80.4"/>
				<rect x="152.7" y="165.4" class="st3" width="49.9" height="80.4"/>
				<rect x="252.5" y="165.4" class="st3" width="49.9" height="80.4"/>
				<rect x="352.2" y="165.4" class="st3" width="49.9" height="80.4"/>
				<linearGradient id="SVGID_4_" gradientUnits="userSpaceOnUse" x1="227.5278" y1="245.7932" x2="227.5278" y2="165.3882">
					<stop  offset="0" style="stop-color:#000000"/>
					<stop  offset="1" style="stop-color:#FFFFFF"/>
				</linearGradient>
				<rect x="53" y="165.4" class="st8" width="349.1" height="80.4"/>
			</g>
		</g>
	</g>
	<g>
		<path class="st1" d="M83.6,218.5c-3.3,0-6.3-2.2-7.2-5.5c-1.1-4,1.2-8.1,5.2-9.3l15.7-4.4c16.9-40.4,62.2-45.5,64.2-45.7
			c4.1-0.4,7.8,2.6,8.2,6.7c0.4,4.1-2.6,7.8-6.7,8.2l0,0c-1.7,0.2-40.7,4.7-53,39.5c-0.8,2.3-2.7,4-5,4.7l-19.3,5.4
			C84.9,218.4,84.2,218.5,83.6,218.5z"/>
	</g>
	<g>
		<path class="st1" d="M311,191.1c-2.5,0-4.7-1.9-5-4.5c-2.2-21.5-28.4-33.7-28.7-33.8c-2.5-1.1-3.6-4.1-2.5-6.6s4.1-3.6,6.6-2.5
			c1.3,0.6,31.7,14.6,34.5,41.9c0.3,2.7-1.7,5.2-4.5,5.5C311.4,191.1,311.2,191.1,311,191.1z"/>
	</g>
</g>
</svg>
