<?xml version="1.0" encoding="utf-8"?>
<!-- Generator: Adobe Illustrator 23.1.0, SVG Export Plug-In . SVG Version: 6.00 Build 0)  -->
<svg version="1.1" id="Layer_1" xmlns="http://www.w3.org/2000/svg" xmlns:xlink="http://www.w3.org/1999/xlink" x="0px" y="0px"
	 viewBox="0 0 317 334" style="enable-background:new 0 0 317 334;" xml:space="preserve">
<style type="text/css">
	.st0{fill:none;stroke:#704728;stroke-width:9;stroke-linecap:round;stroke-linejoin:round;stroke-miterlimit:10;}
	.st1{fill:url(#SVGID_1_);}
	.st2{fill:#704728;}
	.st3{fill:none;stroke:#704728;stroke-width:5;stroke-linecap:round;stroke-linejoin:round;stroke-miterlimit:10;}
	.st4{fill:none;stroke:#704728;stroke-width:3;stroke-linecap:round;stroke-linejoin:round;stroke-miterlimit:10;}
	.st5{fill:none;stroke:#704728;stroke-width:17;stroke-linecap:round;stroke-linejoin:round;stroke-miterlimit:10;}
</style>
<path class="st0" d="M929.9,179.3c0,0-19,13-17,31.5s28,18.5,28,18.5"/>
<path class="st0" d="M1100.2,179.3c0,0,19,13,17,31.5s-28,18.5-28,18.5"/>
<g>
	
		<linearGradient id="SVGID_1_" gradientUnits="userSpaceOnUse" x1="-106.3499" y1="1624.4722" x2="-106.3499" y2="1380.9346" gradientTransform="matrix(1 0 0 1 264.9 -1348.4722)">
		<stop  offset="0" style="stop-color:#D19869"/>
		<stop  offset="1" style="stop-color:#F7DAC4"/>
	</linearGradient>
	<path class="st1" d="M249.8,147.8c-12-71.7-43.9-99.1-66.6-109.7c-18-8.4-33.8-5.7-42.5-2.8c-22.6,8-60.1,33.2-73.4,112.5
		C50.9,245.5,106.4,276,158.6,276C210.7,276,266.2,245.5,249.8,147.8z"/>
	<g>
		<path class="st2" d="M131.6,131.6c-0.5,0-0.9-0.2-1.3-0.6c-0.7-0.7-0.7-1.9,0-2.7c0.4-0.4,3.9-3.8,7.8-3.8c1,0,1.9,0.8,1.9,1.9
			s-0.8,1.9-1.9,1.9c-2,0-4.4,2-5.2,2.7C132.5,131.4,132.1,131.6,131.6,131.6z"/>
	</g>
	<g>
		<path class="st2" d="M184.2,131c-0.8-0.7-3.2-2.7-5.2-2.7c-1,0-1.9-0.8-1.9-1.9s0.8-1.9,1.9-1.9c3.9,0,7.4,3.4,7.8,3.8
			c0.7,0.8,0.7,1.9,0,2.7c-0.4,0.4-0.8,0.6-1.3,0.6C185.1,131.6,184.6,131.4,184.2,131z"/>
	</g>
	<path class="st3" d="M133.2,145.9c0,0,2.8,4.6,8.7,4.6c5.8,0,11-4.6,11-4.6"/>
	<path class="st3" d="M185.1,145.9c0,0-2.8,4.6-8.7,4.6c-5.9,0-11-4.6-11-4.6"/>
	<ellipse class="st4" cx="158.5" cy="169.4" rx="5.7" ry="7.9"/>
</g>
<path class="st0" d="M72,179.3c0,0-40-6.3-33-41.3"/>
<path class="st0" d="M243,179.3c0,0,33-12.3,38-41.3"/>
<path class="st0" d="M132,258c0,0-17,7-8,44"/>
<path class="st0" d="M182,259c0,0-18,0-11,43"/>
<path class="st5" d="M124,302l-18,10"/>
<path class="st5" d="M171,302l-17,15"/>
</svg>
