<?xml version="1.0" encoding="utf-8"?>
<!-- Generator: Adobe Illustrator 23.1.0, SVG Export Plug-In . SVG Version: 6.00 Build 0)  -->
<svg version="1.1" id="Layer_1" xmlns="http://www.w3.org/2000/svg" xmlns:xlink="http://www.w3.org/1999/xlink" x="0px" y="0px"
	 viewBox="0 0 317 276" style="enable-background:new 0 0 317 276;" xml:space="preserve">
<style type="text/css">
	.st0{fill:none;stroke:#704728;stroke-width:9;stroke-linecap:round;stroke-linejoin:round;stroke-miterlimit:10;}
	.st1{clip-path:url(#SVGID_2_);fill:url(#SVGID_3_);}
	.st2{clip-path:url(#SVGID_2_);fill:url(#SVGID_4_);}
	.st3{clip-path:url(#SVGID_2_);fill:url(#SVGID_5_);}
	.st4{clip-path:url(#SVGID_2_);fill:#704728;}
	.st5{clip-path:url(#SVGID_2_);fill:url(#SVGID_6_);}
	.st6{clip-path:url(#SVGID_2_);}
	.st7{fill:#FFFFFF;}
	.st8{fill:#704728;}
	.st9{fill:none;stroke:#CAFDFF;stroke-width:4;stroke-linecap:round;stroke-linejoin:round;stroke-miterlimit:10;}
</style>
<path class="st0" d="M929.9,179.3c0,0-19,13-17,31.5s28,18.5,28,18.5"/>
<path class="st0" d="M1100.2,179.3c0,0,19,13,17,31.5s-28,18.5-28,18.5"/>
<g>
	<defs>
		<path id="SVGID_1_" d="M311.5,0H5.5v184.5v1.5h0c2,32.7,69.7,59,153,59c83.2,0,150.9-26.3,153-59h0v-1.5V0z"/>
	</defs>
	<clipPath id="SVGID_2_">
		<use xlink:href="#SVGID_1_"  style="overflow:visible;"/>
	</clipPath>
	
		<linearGradient id="SVGID_3_" gradientUnits="userSpaceOnUse" x1="-223.8385" y1="996.1512" x2="-167.6919" y2="996.1512" gradientTransform="matrix(1 0 0 -1 264.9 1087.5278)">
		<stop  offset="0" style="stop-color:#E6E6E6"/>
		<stop  offset="1" style="stop-color:#CCCCCC"/>
	</linearGradient>
	<path class="st1" d="M97.2,58.5c0,0-8.7-4.2-25-4.2s-29.3,9.8-26.1,19.6c3.3,9.8-13,32.6,0,45.6c13,13,16.3,9.8,26.1,3.3
		C84.4,114.6,84.2,68.3,97.2,58.5z"/>
	
		<linearGradient id="SVGID_4_" gradientUnits="userSpaceOnUse" x1="-48.033" y1="1000.2864" x2="9.4615" y2="1000.2864" gradientTransform="matrix(1 0 0 -1 264.9 1087.5278)">
		<stop  offset="0" style="stop-color:#CCCCCC"/>
		<stop  offset="1" style="stop-color:#E6E6E6"/>
	</linearGradient>
	<path class="st2" d="M216.9,68c0,0,4.2,23.2,12.2,46.4c7.2,20.9,52.2,22,44.4-3c-8.4-27,4.2-47.1-14.8-60.8
		C237.2,35.1,220.1,51.7,216.9,68z"/>
	
		<linearGradient id="SVGID_5_" gradientUnits="userSpaceOnUse" x1="-106.3427" y1="811.5169" x2="-106.3427" y2="1055.0098" gradientTransform="matrix(1 0 0 -1 264.9 1087.5278)">
		<stop  offset="0" style="stop-color:#D19869"/>
		<stop  offset="1" style="stop-color:#F7DAC4"/>
	</linearGradient>
	<path class="st3" d="M249.8,147.8c-12-71.7-43.9-99.1-66.6-109.7c-18-8.4-33.8-5.7-42.5-2.8c-22.6,8-60.1,33.2-73.4,112.5
		C50.9,245.5,106.4,276,158.6,276C210.7,276,266.2,245.5,249.8,147.8z"/>
	<path class="st4" d="M160.7,177.2c-7.3,0-12.9-3.9-13-4c-0.8-0.6-1-1.8-0.4-2.6c0.6-0.8,1.8-1,2.6-0.5c0.4,0.3,10.5,7.3,20.6,0
		c0.8-0.6,2-0.4,2.6,0.4c0.6,0.8,0.4,2-0.4,2.6C168.5,176.2,164.4,177.2,160.7,177.2z"/>
	<path class="st4" d="M131.6,131.6c-0.5,0-0.9-0.2-1.3-0.6c-0.7-0.7-0.7-1.9,0-2.7c0.4-0.4,3.9-3.8,7.8-3.8c1,0,1.9,0.8,1.9,1.9
		s-0.8,1.9-1.9,1.9c-2,0-4.4,2-5.2,2.7C132.5,131.4,132.1,131.6,131.6,131.6z"/>
	<path class="st4" d="M184.2,131c-0.8-0.7-3.2-2.7-5.2-2.7c-1,0-1.9-0.8-1.9-1.9s0.8-1.9,1.9-1.9c3.9,0,7.4,3.4,7.8,3.8
		c0.7,0.8,0.7,1.9,0,2.7c-0.4,0.4-0.8,0.6-1.3,0.6C185.1,131.6,184.6,131.4,184.2,131z"/>
	
		<linearGradient id="SVGID_6_" gradientUnits="userSpaceOnUse" x1="-187.825" y1="1025.7999" x2="-23.341" y2="1025.7999" gradientTransform="matrix(1 0 0 -1 264.9 1087.5278)">
		<stop  offset="0" style="stop-color:#E6E6E6"/>
		<stop  offset="0.4765" style="stop-color:#F2F2F2"/>
		<stop  offset="1" style="stop-color:#E6E6E6"/>
	</linearGradient>
	<path class="st5" d="M77.1,105.6c0,0,68-19.8,164.5,4.2c0,0-14.4-94.6-76.4-96.1C130.6,12.8,92.6,28.9,77.1,105.6z"/>
	<g class="st6">
		<g>
			<ellipse class="st7" cx="143.6" cy="144" rx="10.5" ry="12"/>
			<ellipse class="st8" cx="145.1" cy="147" rx="7" ry="8"/>
		</g>
		<g>
			<ellipse class="st7" cx="173.9" cy="144.3" rx="10.5" ry="12"/>
			<ellipse class="st8" cx="175.4" cy="147.3" rx="7" ry="8"/>
		</g>
	</g>
</g>
<g>
	<path class="st9" d="M269.6,208.3c15.4,4.9,24.4,11,24.4,17.5c0,16.8-60.7,30.5-135.5,30.5S23,242.6,23,225.8
		c0-5.2,5.9-10.2,16.2-14.5"/>
	<path class="st9" d="M3.2,228.3c0-6,6.7-11.6,18.5-16.6"/>
	<path class="st9" d="M263.2,254.1c-27.6,5.7-64.4,9.1-104.7,9.1c-22.3,0-43.4-1.1-62.6-3"/>
	<path class="st9" d="M285.9,208.3c17.6,5.7,27.9,12.6,27.9,20c0,5.5-5.7,10.8-16,15.5"/>
</g>
<g>
	<g>
		<path class="st8" d="M84.4,248.8c-10.4,0-30.5-4.7-32.5-22.5c-2.3-21,18.1-35.1,18.9-35.7c2.1-1.4,4.9-0.9,6.3,1.2
			c1.4,2.1,0.9,4.8-1.2,6.2l0,0c-0.2,0.1-16.8,11.7-15.1,27.3c1.5,14.3,23.3,14.5,23.5,14.5c2.5,0,4.5,2,4.5,4.5
			C88.8,246.7,86.8,248.8,84.4,248.8z"/>
	</g>
	<g>
		<path class="st8" d="M232.6,248.8c-2.5,0-4.5-2-4.5-4.5s2-4.5,4.5-4.5c0.2,0,22-0.2,23.5-14.5c1.7-15.7-14.9-27.2-15.1-27.3
			c-2.1-1.4-2.6-4.2-1.2-6.3c1.4-2.1,4.2-2.6,6.3-1.2c0.9,0.6,21.2,14.7,18.9,35.7C263.2,244,243,248.8,232.6,248.8z"/>
	</g>
</g>
</svg>
