<?xml version="1.0" encoding="utf-8"?>
<!-- Generator: Adobe Illustrator 23.1.0, SVG Export Plug-In . SVG Version: 6.00 Build 0)  -->
<svg version="1.1" id="Layer_1" xmlns="http://www.w3.org/2000/svg" xmlns:xlink="http://www.w3.org/1999/xlink" x="0px" y="0px"
	 viewBox="0 0 1125 2436" style="enable-background:new 0 0 1125 2436;" xml:space="preserve">
<style type="text/css">
	.st0{fill:#FFFFFF;}
	.st1{fill:#EDEDED;}
	.st2{fill:#005C63;}
	.st3{fill:#1A6872;}
	.st4{fill:#004042;}
	.st5{opacity:0.25;fill:#005C63;enable-background:new    ;}
	.st6{fill:#0E4A4B;}
	.st7{fill:#BF1010;}
	.st8{fill:url(#SVGID_1_);stroke:#000000;stroke-miterlimit:10;}
	.st9{fill:url(#SVGID_2_);stroke:#000000;stroke-miterlimit:10;}
	.st10{fill:url(#SVGID_3_);stroke:#000000;stroke-miterlimit:10;}
	.st11{fill:url(#SVGID_4_);stroke:#000000;stroke-miterlimit:10;}
	.st12{fill:url(#SVGID_5_);stroke:#000000;stroke-miterlimit:10;}
	.st13{fill:url(#SVGID_6_);stroke:#000000;stroke-miterlimit:10;}
	.st14{fill:#FFF5C4;}
	.st15{fill-rule:evenodd;clip-rule:evenodd;fill:#F1E5A4;}
</style>
<rect x="-13.7" y="-29.6" class="st0" width="1153.1" height="2495.2"/>
<g>
	<g>
		<path class="st1" d="M133.4,0H0v133.5h133.5L133.4,0L133.4,0z"/>
		<path class="st1" d="M275.1,0H141.6v133.5h133.5V0z"/>
		<path class="st1" d="M416.8,0H283.3v133.5h133.5V0z"/>
		<path class="st1" d="M558.3,0H424.9v133.5h133.5L558.3,0L558.3,0z"/>
		<path class="st1" d="M700,0H566.6v133.5h133.5L700,0L700,0z"/>
		<path class="st1" d="M841.7,0H708.2v133.5h133.5V0z"/>
		<path class="st1" d="M983.4,0H849.9v133.5h133.5V0z"/>
		<path class="st1" d="M1124.9,0H991.5v133.5H1125L1124.9,0L1124.9,0z"/>
	</g>
	<g>
		<path class="st1" d="M133.4,141.9H0v133.5h133.5L133.4,141.9L133.4,141.9z"/>
		<path class="st1" d="M275.1,141.9H141.6v133.5h133.5V141.9z"/>
		<path class="st1" d="M416.8,141.9H283.3v133.5h133.5V141.9z"/>
		<path class="st1" d="M558.3,141.9H424.9v133.5h133.5L558.3,141.9L558.3,141.9z"/>
		<path class="st1" d="M700,141.9H566.6v133.5h133.5L700,141.9L700,141.9z"/>
		<path class="st1" d="M841.7,141.9H708.2v133.5h133.5V141.9z"/>
		<path class="st1" d="M983.4,141.9H849.9v133.5h133.5V141.9z"/>
		<path class="st1" d="M1124.9,141.9H991.5v133.5H1125L1124.9,141.9L1124.9,141.9z"/>
	</g>
	<g>
		<path class="st1" d="M133.4,283.8H0v133.5h133.5L133.4,283.8L133.4,283.8z"/>
		<path class="st1" d="M275.1,283.8H141.6v133.5h133.5V283.8z"/>
		<path class="st1" d="M416.8,283.8H283.3v133.5h133.5V283.8z"/>
		<path class="st1" d="M558.3,283.8H424.9v133.5h133.5L558.3,283.8L558.3,283.8z"/>
		<path class="st1" d="M700,283.8H566.6v133.5h133.5L700,283.8L700,283.8z"/>
		<path class="st1" d="M841.7,283.8H708.2v133.5h133.5V283.8z"/>
		<path class="st1" d="M983.4,283.8H849.9v133.5h133.5V283.8z"/>
		<path class="st1" d="M1124.9,283.8H991.5v133.5H1125L1124.9,283.8L1124.9,283.8z"/>
	</g>
	<g>
		<path class="st1" d="M133.4,425.7H0v133.5h133.5L133.4,425.7L133.4,425.7z"/>
		<path class="st1" d="M275.1,425.7H141.6v133.5h133.5V425.7z"/>
		<path class="st1" d="M416.8,425.7H283.3v133.5h133.5V425.7z"/>
		<path class="st1" d="M558.3,425.7H424.9v133.5h133.5L558.3,425.7L558.3,425.7z"/>
		<path class="st1" d="M700,425.7H566.6v133.5h133.5L700,425.7L700,425.7z"/>
		<path class="st1" d="M841.7,425.7H708.2v133.5h133.5V425.7z"/>
		<path class="st1" d="M983.4,425.7H849.9v133.5h133.5V425.7z"/>
		<path class="st1" d="M1124.9,425.7H991.5v133.5H1125L1124.9,425.7L1124.9,425.7z"/>
	</g>
	<g>
		<path class="st1" d="M133.4,567.6H0v133.5h133.5L133.4,567.6L133.4,567.6z"/>
		<path class="st1" d="M275.1,567.6H141.6v133.5h133.5V567.6z"/>
		<path class="st1" d="M416.8,567.6H283.3v133.5h133.5V567.6z"/>
		<path class="st1" d="M558.3,567.6H424.9v133.5h133.5L558.3,567.6L558.3,567.6z"/>
		<path class="st1" d="M700,567.6H566.6v133.5h133.5L700,567.6L700,567.6z"/>
		<path class="st1" d="M841.7,567.6H708.2v133.5h133.5V567.6z"/>
		<path class="st1" d="M983.4,567.6H849.9v133.5h133.5V567.6z"/>
		<path class="st1" d="M1124.9,567.6H991.5v133.5H1125L1124.9,567.6L1124.9,567.6z"/>
	</g>
	<g>
		<path class="st1" d="M133.4,709.5H0V843h133.5L133.4,709.5L133.4,709.5z"/>
		<path class="st1" d="M275.1,709.5H141.6V843h133.5V709.5z"/>
		<path class="st1" d="M416.8,709.5H283.3V843h133.5V709.5z"/>
		<path class="st1" d="M558.3,709.5H424.9V843h133.5L558.3,709.5L558.3,709.5z"/>
		<path class="st1" d="M700,709.5H566.6V843h133.5L700,709.5L700,709.5z"/>
		<path class="st1" d="M841.7,709.5H708.2V843h133.5V709.5z"/>
		<path class="st1" d="M983.4,709.5H849.9V843h133.5V709.5z"/>
		<path class="st1" d="M1124.9,709.5H991.5V843H1125L1124.9,709.5L1124.9,709.5z"/>
	</g>
	<g>
		<path class="st1" d="M133.4,851.4H0v133.5h133.5L133.4,851.4L133.4,851.4z"/>
		<path class="st1" d="M275.1,851.4H141.6v133.5h133.5V851.4z"/>
		<path class="st1" d="M416.8,851.4H283.3v133.5h133.5V851.4z"/>
		<path class="st1" d="M558.3,851.4H424.9v133.5h133.5L558.3,851.4L558.3,851.4z"/>
		<path class="st1" d="M700,851.4H566.6v133.5h133.5L700,851.4L700,851.4z"/>
		<path class="st1" d="M841.7,851.4H708.2v133.5h133.5V851.4z"/>
		<path class="st1" d="M983.4,851.4H849.9v133.5h133.5V851.4z"/>
		<path class="st1" d="M1124.9,851.4H991.5v133.5H1125L1124.9,851.4L1124.9,851.4z"/>
	</g>
	<g>
		<path class="st1" d="M133.4,993.3H0v133.5h133.5L133.4,993.3L133.4,993.3z"/>
		<path class="st1" d="M275.1,993.3H141.6v133.5h133.5V993.3z"/>
		<path class="st1" d="M416.8,993.3H283.3v133.5h133.5V993.3z"/>
		<path class="st1" d="M558.3,993.3H424.9v133.5h133.5L558.3,993.3L558.3,993.3z"/>
		<path class="st1" d="M700,993.3H566.6v133.5h133.5L700,993.3L700,993.3z"/>
		<path class="st1" d="M841.7,993.3H708.2v133.5h133.5V993.3z"/>
		<path class="st1" d="M983.4,993.3H849.9v133.5h133.5V993.3z"/>
		<path class="st1" d="M1124.9,993.3H991.5v133.5H1125L1124.9,993.3L1124.9,993.3z"/>
	</g>
</g>
<g>
	<path class="st2" d="M1125.7,1084.2H-0.7V1592h1126.4L1125.7,1084.2L1125.7,1084.2z"/>
	<path class="st3" d="M1125.7,1041.1H-0.7v43.1h1126.4L1125.7,1041.1L1125.7,1041.1z"/>
	<path class="st3" d="M1125.7,1084.2H-0.7v15h1126.4L1125.7,1084.2L1125.7,1084.2z"/>
	<path class="st4" d="M1125.7,1592H-0.7v863.5h1126.4L1125.7,1592L1125.7,1592z"/>
	<path class="st3" d="M251.1,1116.2H-0.7v281.4h251.8V1116.2z"/>
	<path class="st3" d="M552.5,1116.2H271.1v281.4h281.4V1116.2z"/>
	<path class="st3" d="M853.9,1116.2H572.5v281.4h281.4V1116.2z"/>
	<path class="st3" d="M1125.7,1116.2H873.9v281.4h251.8L1125.7,1116.2L1125.7,1116.2z"/>
	<path class="st3" d="M251.1,1417.7H-0.7V1592h251.8V1417.7z"/>
	<path class="st3" d="M552.5,1417.7H271.1V1592h281.4V1417.7z"/>
	<path class="st3" d="M853.9,1417.7H572.5V1592h281.4V1417.7z"/>
	<path class="st3" d="M1125.7,1417.7H873.9V1592h251.8L1125.7,1417.7L1125.7,1417.7z"/>
	<path class="st5" d="M1125.7,1084.2H-0.7v60.1h1126.4L1125.7,1084.2L1125.7,1084.2z"/>
</g>
<g>
	<g>
		<path class="st6" d="M133.4,1607.1H0v103.5h133.5L133.4,1607.1L133.4,1607.1z"/>
		<path class="st6" d="M275.1,1607.1H141.6v103.5h133.5V1607.1z"/>
		<path class="st6" d="M416.8,1607.1H283.3v103.5h133.5V1607.1z"/>
		<path class="st6" d="M558.3,1607.1H424.9v103.5h133.5L558.3,1607.1L558.3,1607.1z"/>
		<path class="st6" d="M700,1607.1H566.6v103.5h133.5L700,1607.1L700,1607.1z"/>
		<path class="st6" d="M841.7,1607.1H708.2v103.5h133.5V1607.1z"/>
		<path class="st6" d="M983.4,1607.1H849.9v103.5h133.5V1607.1z"/>
		<path class="st6" d="M1124.9,1607.1H991.5v103.5H1125L1124.9,1607.1L1124.9,1607.1z"/>
	</g>
	<g>
		<path class="st6" d="M133.4,1719H0v103.5h133.5L133.4,1719L133.4,1719z"/>
		<path class="st6" d="M275.1,1719H141.6v103.5h133.5V1719z"/>
		<path class="st6" d="M416.8,1719H283.3v103.5h133.5V1719z"/>
		<path class="st6" d="M558.3,1719H424.9v103.5h133.5L558.3,1719L558.3,1719z"/>
		<path class="st6" d="M700,1719H566.6v103.5h133.5L700,1719L700,1719z"/>
		<path class="st6" d="M841.7,1719H708.2v103.5h133.5V1719z"/>
		<path class="st6" d="M983.4,1719H849.9v103.5h133.5V1719z"/>
		<path class="st6" d="M1124.9,1719H991.5v103.5H1125L1124.9,1719L1124.9,1719z"/>
	</g>
	<g>
		<path class="st6" d="M133.4,1830.9H0v113.5h133.5L133.4,1830.9L133.4,1830.9z"/>
		<path class="st6" d="M275.1,1830.9H141.6v113.5h133.5V1830.9z"/>
		<path class="st6" d="M416.8,1830.9H283.3v113.5h133.5V1830.9z"/>
		<path class="st6" d="M558.3,1830.9H424.9v113.5h133.5L558.3,1830.9L558.3,1830.9z"/>
		<path class="st6" d="M700,1830.9H566.6v113.5h133.5L700,1830.9L700,1830.9z"/>
		<path class="st6" d="M841.7,1830.9H708.2v113.5h133.5V1830.9z"/>
		<path class="st6" d="M983.4,1830.9H849.9v113.5h133.5V1830.9z"/>
		<path class="st6" d="M1124.9,1830.9H991.5v113.5H1125L1124.9,1830.9L1124.9,1830.9z"/>
	</g>
	<g>
		<path class="st6" d="M133.4,1952.8H0v113.5h133.5L133.4,1952.8L133.4,1952.8z"/>
		<path class="st6" d="M275.1,1952.8H141.6v113.5h133.5V1952.8z"/>
		<path class="st6" d="M416.8,1952.8H283.3v113.5h133.5V1952.8z"/>
		<path class="st6" d="M558.3,1952.8H424.9v113.5h133.5L558.3,1952.8L558.3,1952.8z"/>
		<path class="st6" d="M700,1952.8H566.6v113.5h133.5L700,1952.8L700,1952.8z"/>
		<path class="st6" d="M841.7,1952.8H708.2v113.5h133.5V1952.8z"/>
		<path class="st6" d="M983.4,1952.8H849.9v113.5h133.5V1952.8z"/>
		<path class="st6" d="M1124.9,1952.8H991.5v113.5H1125L1124.9,1952.8L1124.9,1952.8z"/>
	</g>
	<g>
		<path class="st6" d="M133.4,2074.7H0v123.5h133.5L133.4,2074.7L133.4,2074.7z"/>
		<path class="st6" d="M275.1,2074.7H141.6v123.5h133.5V2074.7z"/>
		<path class="st6" d="M416.8,2074.7H283.3v123.5h133.5V2074.7z"/>
		<path class="st6" d="M558.3,2074.7H424.9v123.5h133.5L558.3,2074.7L558.3,2074.7z"/>
		<path class="st6" d="M700,2074.7H566.6v123.5h133.5L700,2074.7L700,2074.7z"/>
		<path class="st6" d="M841.7,2074.7H708.2v123.5h133.5V2074.7z"/>
		<path class="st6" d="M983.4,2074.7H849.9v123.5h133.5V2074.7z"/>
		<path class="st6" d="M1124.9,2074.7H991.5v123.5H1125L1124.9,2074.7L1124.9,2074.7z"/>
	</g>
	<g>
		<path class="st6" d="M133.4,2206.6H0v123.5h133.5L133.4,2206.6L133.4,2206.6z"/>
		<path class="st6" d="M275.1,2206.6H141.6v123.5h133.5V2206.6z"/>
		<path class="st6" d="M416.8,2206.6H283.3v123.5h133.5V2206.6z"/>
		<path class="st6" d="M558.3,2206.6H424.9v123.5h133.5L558.3,2206.6L558.3,2206.6z"/>
		<path class="st6" d="M700,2206.6H566.6v123.5h133.5L700,2206.6L700,2206.6z"/>
		<path class="st6" d="M841.7,2206.6H708.2v123.5h133.5V2206.6z"/>
		<path class="st6" d="M983.4,2206.6H849.9v123.5h133.5V2206.6z"/>
		<path class="st6" d="M1124.9,2206.6H991.5v123.5H1125L1124.9,2206.6L1124.9,2206.6z"/>
	</g>
	<g>
		<path class="st6" d="M133.4,2338.5H0V2472h133.5L133.4,2338.5L133.4,2338.5z"/>
		<path class="st6" d="M275.1,2338.5H141.6V2472h133.5V2338.5z"/>
		<path class="st6" d="M416.8,2338.5H283.3V2472h133.5V2338.5z"/>
		<path class="st6" d="M558.3,2338.5H424.9V2472h133.5L558.3,2338.5L558.3,2338.5z"/>
		<path class="st6" d="M700,2338.5H566.6V2472h133.5L700,2338.5L700,2338.5z"/>
		<path class="st6" d="M841.7,2338.5H708.2V2472h133.5V2338.5z"/>
		<path class="st6" d="M983.4,2338.5H849.9V2472h133.5V2338.5z"/>
		<path class="st6" d="M1124.9,2338.5H991.5V2472H1125L1124.9,2338.5L1124.9,2338.5z"/>
	</g>
	<g>
		<path class="st6" d="M133.4,2480.4L133.4,2480.4H0"/>
		<path class="st6" d="M275.1,2480.4H141.6"/>
		<path class="st6" d="M416.8,2480.4H283.3"/>
		<path class="st6" d="M558.3,2480.4L558.3,2480.4H424.9"/>
		<path class="st6" d="M700,2480.4L700,2480.4H566.6"/>
		<path class="st6" d="M841.7,2480.4H708.2"/>
		<path class="st6" d="M983.4,2480.4H849.9"/>
		<path class="st6" d="M1124.9,2480.4L1124.9,2480.4H991.5"/>
	</g>
</g>
<g>
	<g>
		<g>
			<g>
				<path class="st7" d="M562.5,505.1c-49.9,0-97-11.5-132.5-32.4c-36.6-21.6-56.8-50.7-56.8-82c0-19.4,8-38.5,23.2-55.3
					c14.3-15.7,34.8-29.4,59.5-39.5c0.8-0.3,1.7-0.5,2.6-0.5c1.4,0,2.7,0.4,3.9,1.2c1.9,1.3,3.1,3.4,3.1,5.8v16.3
					c0,2.4-1.2,4.6-3.2,5.9C439.5,338.7,427,357,427,375.9c0,19.9,13.6,38.8,38.3,53.4c25.8,15.2,60.4,23.6,97.2,23.6
					s71.3-8.4,97.2-23.6c24.7-14.6,38.3-33.5,38.3-53.4c0-18.9-12.5-37.2-35.2-51.5c-2-1.3-3.2-3.5-3.2-5.9v-16.3
					c0-2.3,1.1-4.5,3.1-5.7c1.1-0.8,2.5-1.2,3.9-1.2c0.9,0,1.8,0.2,2.6,0.5c24.6,10.1,45.2,23.7,59.5,39.5
					c15.2,16.8,23.2,35.9,23.2,55.3c0,31.3-20.2,60.4-56.8,82C659.5,493.5,612.4,505.1,562.5,505.1z"/>
				<path class="st0" d="M666.5,298.4c0.5,0,1,0.1,1.5,0.3c24.2,9.9,44.4,23.3,58.4,38.7c14.7,16.2,22.5,34.6,22.5,53.2
					c0,30.2-19.7,58.4-55.4,79.4c-35,20.7-81.6,32-131,32s-95.9-11.4-131-32c-35.7-21-55.4-49.2-55.4-79.4c0-18.6,7.8-37,22.5-53.2
					c14-15.4,34.2-28.8,58.4-38.7c0.5-0.2,1-0.3,1.5-0.3c0.8,0,1.5,0.2,2.2,0.7c1.1,0.7,1.7,2,1.7,3.3v16.3c0,1.3-0.7,2.6-1.8,3.3
					C437,336.9,424,356,424,376c0,21,14.1,40.8,39.8,56c26.3,15.5,61.4,24,98.7,24s72.4-8.5,98.7-24c25.6-15.1,39.8-35,39.8-56
					c0-20-13-39.1-36.6-54c-1.1-0.7-1.8-2-1.8-3.3v-16.3c0-1.3,0.7-2.5,1.7-3.3C665,298.6,665.7,298.4,666.5,298.4 M666.5,292.4
					c-2,0-3.9,0.6-5.5,1.7c-2.8,1.8-4.4,4.9-4.4,8.2v16.3c0,3.4,1.7,6.6,4.6,8.4c21.8,13.7,33.8,31.1,33.8,48.9
					c0,18.8-13.1,36.8-36.8,50.8c-25.4,15-59.4,23.2-95.6,23.2c-36.3,0-70.3-8.2-95.6-23.2c-23.7-14-36.8-32-36.8-50.8
					c0-17.8,12-35.2,33.8-48.9c2.9-1.8,4.6-5,4.6-8.4v-16.3c0-3.3-1.6-6.4-4.4-8.2c-1.6-1.1-3.6-1.7-5.5-1.7c-1.3,0-2.6,0.2-3.8,0.7
					c-25.1,10.3-46,24.2-60.6,40.2c-15.7,17.3-24,37.1-24,57.3c0,32.4,20.7,62.4,58.3,84.6c36,21.2,83.6,32.9,134,32.9
					c50.5,0,98.1-11.7,134-32.9c37.6-22.2,58.3-52.2,58.3-84.6c0-20.1-8.3-40-24-57.3c-14.6-16.1-35.5-30-60.6-40.2
					C669.1,292.6,667.8,292.4,666.5,292.4L666.5,292.4z"/>
			</g>
			<g>
				<g>
					<path class="st7" d="M539.9,409.3c-2.8,0-5.4-1.3-7.1-3.5c-2.5-3.2-2.5-7.7,0.1-11c3-3.8,5.8-8.1,8.8-13.4
						c2.6-4.6,4.8-9.3,6.5-13.9c3.5-9.3,5.4-18.7,5.5-27.8c0.1-4.4-0.3-8.9-1-13.5c-0.3-2-0.8-4.2-1.4-6.7v-0.2
						c-0.1-0.3-0.1-0.6-0.2-0.8l-0.3-1.3l-0.2-0.5c-0.3-1-0.7-2-1.1-3c-1.5-3.9-3.3-7.5-5.5-11c-2-3.2-4.4-6.3-7.5-9.8
						c-0.7-0.8-1.5-1.7-2.3-2.6c-1-1.1-1.8-2-2.6-2.8c-1.5-1.5-3-3.1-4.6-4.9l-1.3-1.3c-2.3-2.5-4.6-5-6.7-7.5l-0.1-0.1
						c-2-2.4-4.5-5.7-6.9-9.4c-4.7-7.2-8.2-15.6-10.1-23.8c-1.7-7.9-2.2-16.1-1.5-24.4c0.8-7.8,2.1-14.7,4.2-21.3
						c1.3-4.2,2.6-7.5,4-10.6l0.5-1.1c0.1-0.1,0.1-0.2,0.2-0.3l0.6-1.1l1.2-2.3c0.1-0.2,0.2-0.3,0.2-0.4l0.5-0.8
						c0.7-1.3,1.5-2.6,2.4-4c4.4-6.7,10.1-12.6,16.4-16.9c3.5-2.4,7.1-4.2,10.7-5.6c4.4-1.6,8.4-2.4,12.1-2.4h0.5
						c3.7,0.1,6.9,2.3,8.2,5.8c1.3,3.4,0.4,7.3-2.3,9.7c-0.7,0.7-1.5,1.5-2.2,2.4l-0.1,0.2c-0.7,0.8-1.4,1.8-2,2.7
						c-1.2,1.7-2.3,3.6-3.3,5.8c-0.9,1.8-1.6,3.8-2.3,6.1c-0.6,2-1.1,4.1-1.5,6.2v0.1c-0.4,2-0.6,4.2-0.8,6.5l-0.1,1.7v1.7
						c0,0.1,0,0.2,0,0.3c0,0.5,0,1.2,0,2c0,0.4,0,0.8,0,1.2c0,4.2,0.3,8.8,1,13.9c0.6,4.1,1.4,7.7,2.6,10.6c1.1,2.8,2.6,5.4,4.7,8.3
						l0.2,0.2c0.6,0.7,1.1,1.4,1.6,2.1c0.7,0.9,1.4,1.6,2,2.3l0.1,0.1c1.2,1.4,2.6,2.9,4.1,4.6l0.9,1c0.6,0.7,1.2,1.3,1.8,1.9
						c1.4,1.6,2.9,3.1,4.4,4.8c1,1.2,2.1,2.4,3.2,3.7l0.1,0.1c1,1.2,2.1,2.6,3.2,4.1c2,2.6,4.1,5.7,6.3,9.3l0.1,0.1
						c2.2,3.8,4,7.2,5.4,10.5c3,6.9,5.1,14.5,6.2,22.4c0.1,0.8,0.2,1.6,0.3,2.4v0.4c0.1,0.9,0.2,1.9,0.3,2.9c0,0.8,0.1,1.5,0.2,2.2
						c0.1,0.9,0.2,1.9,0.2,2.8c0.3,3.3,0.3,6.8,0.2,10.8c-0.2,7.3-1.2,14.5-2.9,21.5c-3.4,13.8-9.8,26.9-18.6,37.8
						c-4.3,5.4-9.1,10.3-14.3,14.5c-1.3,1.1-2.6,2.1-3.9,3.1c-1.2,0.9-2.6,1.8-4.2,2.9c-3.4,2.2-6.3,3.8-9.2,5.1
						C542.3,409,541.1,409.3,539.9,409.3z"/>
					<path class="st0" d="M553.5,152.6c0.1,0,0.3,0,0.4,0c2.4,0,4.6,1.6,5.4,3.8c0.9,2.3,0.2,4.8-1.5,6.4c-0.8,0.8-1.7,1.7-2.5,2.7
						l-0.1,0.1c-0.8,0.9-1.6,2-2.2,2.9c-1.3,1.8-2.4,3.9-3.6,6.3c-0.9,2-1.7,4.1-2.5,6.5c-0.7,2.2-1.2,4.4-1.5,6.6v0.1
						c-0.4,2.1-0.7,4.3-0.8,6.8l-0.1,1.8v1.7c0,0.1,0,0.1,0,0.2c0,0.7,0,1.4,0,2.2c0,0.4,0,0.8,0,1.2c0,4.3,0.4,9,1,14.3
						c0.6,4.4,1.5,8.2,2.8,11.3c1.2,3.1,2.8,5.9,5.1,9l0.2,0.3c0.5,0.7,1.1,1.4,1.7,2.2c0.8,0.9,1.4,1.7,2.1,2.4l0.1,0.1
						c1.3,1.5,2.7,3,4.2,4.7l0.9,1c0.6,0.6,1.2,1.3,1.8,1.9c1.4,1.5,2.9,3.1,4.3,4.8c1,1.2,2.1,2.4,3.2,3.7c0,0,0,0.1,0.1,0.1
						c1,1.2,2.1,2.6,3.2,4c2,2.6,4,5.5,6.2,9.1c0,0,0,0.1,0.1,0.1c2.1,3.7,3.8,7,5.2,10.2c2.9,6.7,4.9,14,6,21.7
						c0.1,0.8,0.2,1.6,0.3,2.3v0.4c0.1,0.9,0.2,1.9,0.3,2.8c0.1,0.8,0.1,1.5,0.2,2.3c0.1,0.9,0.2,1.7,0.2,2.7
						c0.3,3.2,0.3,6.7,0.2,10.5c-0.2,7.1-1.1,14.1-2.8,20.9c-3.3,13.4-9.5,26-18,36.6c-4.2,5.2-8.8,9.9-13.9,14c-1.3,1-2.5,2-3.8,3
						c-1.2,0.9-2.5,1.7-4,2.8c-3.2,2.1-6,3.6-8.8,4.8c-0.8,0.3-1.6,0.5-2.4,0.5c-1.8,0-3.5-0.8-4.7-2.3c-1.7-2.1-1.6-5.1,0-7.3
						c3.1-4,6-8.3,9.1-13.8c2.7-4.8,4.9-9.6,6.7-14.3c3.7-9.6,5.6-19.3,5.7-28.8c0.1-4.6-0.3-9.3-1-14c-0.3-2.1-0.8-4.3-1.4-6.9
						v-0.1c-0.1-0.4-0.2-0.7-0.3-1.1l-0.3-1.3c0-0.1,0-0.1-0.1-0.2s-0.1-0.3-0.2-0.4c-0.3-1-0.7-2.1-1.2-3.2
						c-1.6-4.1-3.5-7.8-5.8-11.5c-2.1-3.3-4.6-6.5-7.8-10.2c-0.7-0.8-1.5-1.7-2.4-2.6c-1-1.1-1.8-2-2.6-2.8c-1.5-1.5-3-3.1-4.6-4.8
						l-1.3-1.3c-2.3-2.4-4.5-4.9-6.6-7.4c0,0,0,0-0.1-0.1c-1.9-2.3-4.4-5.5-6.6-9.1c-4.5-6.9-7.9-15-9.7-22.9
						c-1.7-7.6-2.1-15.5-1.4-23.5c0.7-7.5,2.1-14.3,4.1-20.7c1.3-4,2.5-7.3,3.9-10.2l0.5-1.1c0-0.1,0.1-0.1,0.1-0.2l0.6-1.1l1.2-2.3
						c0-0.1,0.1-0.2,0.2-0.3l0.5-0.8c0.7-1.2,1.5-2.5,2.3-3.8c4.2-6.4,9.6-12,15.6-16.1c3.3-2.2,6.6-4,10-5.2
						C546.5,153.3,550.1,152.6,553.5,152.6 M553.5,146.6c-4.1,0-8.4,0.8-13.1,2.6c-3.9,1.4-7.7,3.4-11.4,5.9
						c-6.6,4.5-12.6,10.7-17.2,17.7c-1,1.4-1.8,2.9-2.5,4.1l-0.5,0.8c-0.1,0.2-0.2,0.4-0.3,0.5l-1.2,2.3l-0.6,1.2
						c-0.1,0.1-0.1,0.3-0.2,0.4l-0.5,1.1c-1.5,3.1-2.8,6.6-4.2,10.9c-2.1,6.8-3.6,14-4.3,21.9c-0.8,8.7-0.3,17.2,1.5,25.3
						c1.9,8.5,5.6,17.3,10.5,24.8c2.4,3.8,5,7.1,7,9.6l0.1,0.1c2.2,2.6,4.5,5.2,6.8,7.7l1.3,1.3c1.6,1.6,3.2,3.3,4.7,4.9
						c0.7,0.8,1.5,1.6,2.5,2.7c0.9,0.9,1.6,1.7,2.3,2.5c3,3.4,5.3,6.4,7.2,9.4c2.1,3.3,3.8,6.7,5.2,10.4c0,0,0,0,0,0.1
						c0.4,0.9,0.7,1.9,1.1,2.9c0,0.1,0.1,0.3,0.2,0.4l0.3,1v0.1c0.1,0.2,0.1,0.5,0.2,0.7c0,0.1,0,0.1,0.1,0.2c0.6,2.4,1,4.5,1.3,6.4
						c0.7,4.4,1,8.8,1,13c-0.1,8.8-1.9,17.8-5.3,26.8c-1.7,4.4-3.8,9-6.3,13.5c-2.9,5.1-5.6,9.3-8.6,13c-3.4,4.3-3.4,10.3-0.1,14.6
						c2.2,2.9,5.8,4.6,9.4,4.6c1.6,0,3.2-0.3,4.8-1c3.1-1.3,6.1-3,9.6-5.3c1.7-1.1,3.1-2.1,4.3-3c1.4-1,2.7-2.1,4-3.1
						c5.4-4.4,10.3-9.4,14.8-14.9c9.1-11.3,15.7-24.8,19.2-39c1.7-7.2,2.7-14.6,2.9-22.1c0.1-4,0-7.6-0.2-11.1
						c-0.1-1-0.2-1.9-0.2-2.8v-0.1c-0.1-0.7-0.1-1.3-0.2-2c-0.1-1.1-0.2-2.1-0.3-3.1v-0.4c-0.1-0.7-0.2-1.6-0.3-2.5
						c-1.1-8.2-3.3-15.9-6.4-23.2c-1.4-3.4-3.3-7-5.5-10.8c0-0.1-0.1-0.1-0.1-0.2c-2.3-3.7-4.4-6.9-6.5-9.6c-1.2-1.5-2.3-3-3.3-4.2
						c0,0-0.1-0.1-0.1-0.2c-1.1-1.3-2.2-2.6-3.3-3.8c-1.5-1.7-3-3.3-4.4-4.9l-0.1-0.1c-0.6-0.6-1.1-1.2-1.7-1.8l-0.9-1
						c-1.5-1.6-2.9-3.1-4.1-4.5c0-0.1-0.1-0.1-0.2-0.2c-0.6-0.6-1.2-1.3-1.9-2.2c-0.5-0.7-1.1-1.3-1.6-2l0,0l-0.2-0.2
						c-2-2.7-3.3-5-4.3-7.5c-1.1-2.7-1.9-6-2.4-9.9c-0.6-5-0.9-9.5-1-13.6c0-0.4,0-0.8,0-1.2c0-0.7,0-1.3,0-1.8c0-0.1,0-0.3,0-0.4
						v-1.6l0.1-1.6c0.1-2.2,0.4-4.2,0.7-6.1v-0.2c0.3-2,0.8-3.9,1.4-5.8c0.7-2.1,1.4-4,2.2-5.7c1-2.1,2-3.9,3.1-5.4
						c0.6-0.9,1.2-1.7,1.9-2.5c0.1-0.1,0.1-0.1,0.2-0.2c0.7-0.8,1.3-1.5,2-2.1c3.6-3.3,4.9-8.4,3.1-13c-1.7-4.6-6-7.6-10.9-7.7
						C553.8,146.6,553.7,146.6,553.5,146.6L553.5,146.6z"/>
				</g>
				<g>
					<path class="st7" d="M471.9,399.5c-2.6,0-5.1-1.1-6.8-3.1c-2.5-2.9-2.8-7.1-0.9-10.4c4.4-7.3,8.2-15,11.2-22.9
						c1.4-3.6,2.7-7.4,3.7-11.2c0.4-1.6,0.9-3.5,1.3-5.4v-0.1c0.4-1.7,0.7-3.4,1-5.4c1.1-7,1.2-14,0.4-20.6c-0.4-3.2-1-6.4-1.8-9.8
						l-0.2-0.8c-0.1-0.5-0.3-1-0.4-1.4l-0.4-1.5l-0.4-1.2c-0.4-1.4-1-2.8-1.5-4.3l-0.1-0.3c-1.6-3.5-2.9-6.1-4.2-8.3l-0.1-0.1
						c-0.3-0.6-0.7-1.2-1-1.7l-0.4-0.6c-0.3-0.4-0.5-0.8-0.8-1.1l-0.2-0.2c-0.8-1.1-1.6-2.2-2.4-3.3l-0.7-0.9
						c-0.3-0.4-0.6-0.8-1-1.2c-0.3-0.4-0.5-0.7-0.8-1c-0.4-0.5-0.8-1-1.2-1.5l-2.1-2.6c-0.9-1.1-1.8-2.2-2.6-3.2
						c-1.1-1.4-2-2.6-2.8-3.8c-0.8-1.2-1.8-2.6-2.7-4.2c-0.8-1.4-1.6-2.9-2.4-4.4c-0.9-1.8-1.6-3.5-2.1-4.7c-2.3-6-3.8-12.3-4.4-19
						c-0.5-5.6-0.4-11.2,0.4-17.3c0.7-5.4,1.9-10.8,3.5-16c0.9-2.8,1.8-5.3,2.8-7.8c1.2-2.9,2.4-5.4,3.7-7.8
						c1.6-2.8,4.5-4.5,7.8-4.5c0.5,0,1,0,1.5,0.1c3.7,0.6,6.6,3.6,7.3,7.3c0.1,0.4,6.4,36.1,19.8,51.6c1.8,2,3.9,4.2,6.2,6.5
						c11.3,11.4,26.7,27,31.1,61.2c0.1,0.4,0.1,0.8,0.1,1.2c0,2.1-0.1,4.1-0.3,6c-0.9,11.4-3.9,22.9-8.8,33.3
						c-4.6,9.9-10.9,19-18.7,26.9c-3.8,3.9-7.9,7.4-12.1,10.5c-1,0.7-2,1.4-3.2,2.2c-1.2,0.8-2.3,1.5-3.3,2.1
						c-1.1,0.7-2.3,1.3-3.7,2.1c-1.4,0.7-2.7,1.3-4,1.9C474.1,399.3,473,399.5,471.9,399.5z"/>
					<path class="st0" d="M463.4,189c0.3,0,0.7,0,1,0.1c2.5,0.4,4.4,2.4,4.8,4.8c0.1,0.4,6.5,36.9,20.5,53.1c1.8,2.1,4,4.3,6.3,6.7
						c11,11.1,26,26.2,30.2,59.5c0,0.3,0.1,0.5,0,0.8c0,2-0.1,3.9-0.3,5.8c-0.8,11-3.8,22.2-8.5,32.2c-4.5,9.6-10.6,18.4-18.1,26.1
						c-3.7,3.8-7.6,7.2-11.7,10.1c-1,0.7-2,1.4-3.1,2.2c-1.1,0.7-2.2,1.4-3.2,2h-0.1c-1,0.6-2.1,1.2-3.5,1.9
						c-1.3,0.7-2.5,1.2-3.7,1.7c-0.7,0.3-1.5,0.4-2.2,0.4c-1.7,0-3.3-0.7-4.5-2.1c-1.6-1.9-1.9-4.7-0.6-6.9
						c4.5-7.4,8.3-15.3,11.4-23.3c1.4-3.7,2.7-7.6,3.8-11.5c0.4-1.6,0.9-3.6,1.4-5.6v-0.1c0.4-1.7,0.7-3.5,1-5.6
						c1.1-7.3,1.2-14.5,0.4-21.4c-0.4-3.3-1-6.6-1.9-10.2c-0.1-0.3-0.2-0.6-0.3-0.9c-0.1-0.5-0.3-1-0.4-1.5l-0.4-1.4l-0.4-1.2
						c-0.5-1.5-1-2.9-1.6-4.5l-0.1-0.4c-1.7-3.7-3-6.4-4.4-8.7c0,0,0-0.1-0.1-0.1c-0.4-0.6-0.8-1.3-1.1-1.8l-0.4-0.6
						c-0.3-0.4-0.5-0.8-0.8-1.2l-0.2-0.3c-0.8-1.2-1.6-2.3-2.5-3.4c-0.2-0.3-0.4-0.6-0.7-0.8c-0.3-0.4-0.7-0.8-1-1.3
						c-0.3-0.4-0.6-0.7-0.8-1c-0.4-0.5-0.8-0.9-1.2-1.4l-2.2-2.6c-0.9-1.1-1.7-2.1-2.5-3.2c-1-1.3-1.9-2.5-2.7-3.7
						c-0.8-1.2-1.7-2.5-2.6-4c-0.8-1.3-1.6-2.8-2.3-4.3c-0.8-1.7-1.5-3.3-2-4.5c-2.2-5.7-3.6-11.8-4.2-18.1
						c-0.5-5.4-0.3-10.8,0.4-16.6c0.7-5.2,1.8-10.4,3.4-15.5c0.8-2.7,1.7-5.1,2.7-7.5c1.2-2.8,2.3-5.2,3.6-7.4
						C459.3,190.1,461.3,189,463.4,189 M463.4,183c-4.3,0-8.3,2.3-10.4,6.1c-1.4,2.5-2.6,5-3.9,8.1c-1,2.5-2,5.1-2.9,8
						c-1.7,5.4-2.9,10.9-3.6,16.5c-0.8,6.3-0.9,12.1-0.4,17.9c0.6,6.9,2.1,13.6,4.6,19.8c0.6,1.4,1.3,3.2,2.2,5
						c0.8,1.6,1.6,3.2,2.5,4.6c0.9,1.6,2,3.1,2.8,4.3c0.9,1.3,1.8,2.6,2.9,4c0.8,1.1,1.7,2.2,2.6,3.3l2.2,2.6c0.4,0.5,0.8,1,1.2,1.5
						l0.1,0.1c0.2,0.3,0.5,0.5,0.7,0.9l0,0c0.3,0.4,0.6,0.8,0.9,1.1l0,0v0.1c0.2,0.3,0.4,0.5,0.7,0.8c0.8,1,1.5,2,2.3,3.1l0.2,0.3
						c0.2,0.3,0.4,0.6,0.6,0.9l0.1,0.1l0.4,0.6c0.3,0.4,0.6,1,0.9,1.5l0.1,0.2c1.2,2.1,2.4,4.5,4,7.9l0.1,0.2
						c0.5,1.5,1.1,2.9,1.5,4.2l0.4,1.2c0.1,0.3,0.4,1.4,0.4,1.5c0.1,0.3,0.2,0.8,0.3,1.2c0.1,0.3,0.2,0.6,0.2,0.9
						c0.8,3.3,1.4,6.3,1.7,9.3c0.8,6.4,0.6,13.1-0.4,19.8c-0.3,1.9-0.6,3.6-0.9,5.2v0.2c-0.4,1.8-0.8,3.6-1.3,5.2
						c-1,3.7-2.2,7.4-3.6,10.9c-3,7.7-6.7,15.2-11,22.4c-2.6,4.4-2.2,10,1.2,13.9c2.3,2.6,5.6,4.2,9,4.2c1.5,0,3-0.3,4.5-0.9
						c1.4-0.6,2.8-1.2,4.3-2c1.4-0.7,2.6-1.4,3.8-2.1l0,0c1.1-0.7,2.3-1.4,3.5-2.2c1.2-0.8,2.3-1.6,3.3-2.3
						c4.3-3.1,8.5-6.8,12.5-10.8c8-8.2,14.5-17.5,19.3-27.8c5-10.7,8.1-22.5,9-34.3c0.2-1.9,0.3-4,0.3-6.2c0-0.6,0-1.1-0.1-1.7
						c-4.5-35.3-21-51.9-31.9-62.9c-2.2-2.3-4.4-4.4-6-6.4c-10.6-12.4-17.4-40.4-19.1-50.2c-0.9-4.9-4.7-8.8-9.7-9.7
						C464.7,183,464.1,183,463.4,183L463.4,183z"/>
				</g>
				<g>
					<path class="st7" d="M601.5,399.5c-2.6,0-5.1-1.1-6.8-3.1c-2.5-2.9-2.8-7.1-0.9-10.4c4.4-7.3,8.2-15,11.2-22.9
						c1.4-3.6,2.7-7.4,3.7-11.2c0.4-1.5,0.9-3.5,1.3-5.4v-0.1c0.4-1.7,0.7-3.5,1-5.4c1.1-7,1.2-14,0.4-20.6c-0.4-3.2-1-6.4-1.8-9.8
						l-0.3-0.9c-0.1-0.5-0.2-0.9-0.4-1.3c0-0.1-0.4-1.5-0.4-1.5l-0.4-1.2c-0.4-1.4-1-2.8-1.5-4.3l-0.1-0.3c-1.6-3.6-2.9-6.1-4.2-8.3
						l-0.1-0.1c-0.3-0.6-0.7-1.2-1-1.7l-0.4-0.6c-0.3-0.4-0.5-0.8-0.8-1.1l-0.2-0.2c-0.8-1.1-1.6-2.2-2.4-3.3l-0.7-0.9
						c-0.3-0.4-0.6-0.8-1-1.2c-0.3-0.3-0.5-0.6-0.8-0.9c-0.4-0.5-0.8-1-1.2-1.5l-2.1-2.6c-0.9-1.1-1.8-2.2-2.6-3.2
						c-1-1.4-2-2.6-2.8-3.8c-0.8-1.3-1.8-2.6-2.7-4.2c-0.8-1.4-1.6-2.9-2.4-4.4c-0.9-1.8-1.6-3.5-2.1-4.7c-2.3-6-3.8-12.3-4.4-19
						c-0.5-5.6-0.4-11.2,0.4-17.3c0.7-5.4,1.9-10.7,3.5-16c0.9-2.8,1.8-5.3,2.8-7.8c1.2-2.9,2.4-5.4,3.7-7.8
						c1.6-2.8,4.5-4.5,7.8-4.5c0.5,0,1,0,1.5,0.1c3.7,0.6,6.6,3.6,7.3,7.3c0.1,0.4,6.4,36.1,19.8,51.6c1.8,2,3.9,4.2,6.2,6.5
						c11.3,11.4,26.7,27,31.1,61.2c0.1,0.4,0.1,0.8,0.1,1.3c0,2.1-0.1,4.1-0.3,6c-0.9,11.4-3.9,22.9-8.8,33.3
						c-4.6,9.9-10.9,19-18.7,26.9c-3.8,3.9-7.9,7.4-12.1,10.5c-1,0.7-2,1.4-3.2,2.2c-1.2,0.8-2.3,1.5-3.4,2.1
						c-1.1,0.7-2.3,1.3-3.7,2.1c-1.4,0.7-2.7,1.3-4,1.9C603.7,399.3,602.6,399.5,601.5,399.5z"/>
					<path class="st0" d="M593,189c0.3,0,0.7,0,1,0.1c2.5,0.4,4.4,2.4,4.8,4.8c0.1,0.4,6.5,36.9,20.5,53.1c1.8,2.1,4,4.3,6.3,6.7
						c11,11.1,26,26.2,30.2,59.5c0,0.3,0.1,0.5,0,0.8c0,2-0.1,3.9-0.3,5.8c-0.8,11-3.8,22.2-8.5,32.2c-4.5,9.6-10.6,18.4-18.1,26.1
						c-3.7,3.8-7.6,7.2-11.7,10.1c-1,0.7-2,1.4-3.1,2.2c-1.1,0.7-2.2,1.4-3.2,2h-0.1c-1,0.6-2.1,1.2-3.5,1.9
						c-1.3,0.7-2.5,1.2-3.7,1.7c-0.7,0.3-1.5,0.4-2.2,0.4c-1.7,0-3.3-0.7-4.5-2.1c-1.6-1.9-1.9-4.7-0.6-6.9
						c4.5-7.4,8.3-15.3,11.4-23.3c1.4-3.7,2.7-7.6,3.8-11.5c0.4-1.6,0.9-3.6,1.4-5.6v-0.1c0.4-1.7,0.7-3.5,1-5.6
						c1.1-7.3,1.2-14.5,0.4-21.4c-0.4-3.3-1-6.6-1.9-10.2c-0.1-0.3-0.2-0.6-0.3-0.9c-0.1-0.5-0.3-1-0.4-1.5l-0.4-1.4l-0.4-1.2
						c-0.5-1.5-1-2.9-1.6-4.5l-0.1-0.4c-1.7-3.7-3-6.4-4.4-8.7c0,0,0-0.1-0.1-0.1c-0.4-0.6-0.8-1.3-1.1-1.8l-0.4-0.6
						c-0.3-0.4-0.5-0.8-0.8-1.2l-0.2-0.3c-0.8-1.2-1.6-2.3-2.5-3.4c-0.2-0.3-0.4-0.6-0.7-0.8c-0.3-0.4-0.7-0.8-1-1.3
						c-0.3-0.4-0.6-0.7-0.8-1c-0.4-0.5-0.8-0.9-1.2-1.4l-2.2-2.6c-0.9-1.1-1.7-2.1-2.5-3.2c-1-1.3-1.9-2.5-2.7-3.7s-1.7-2.5-2.6-4
						c-0.8-1.3-1.6-2.8-2.3-4.3c-0.8-1.7-1.5-3.3-2-4.5c-2.2-5.7-3.6-11.8-4.2-18.1c-0.5-5.4-0.3-10.8,0.4-16.6
						c0.7-5.2,1.8-10.4,3.4-15.5c0.8-2.7,1.7-5.1,2.7-7.5c1.2-2.8,2.3-5.2,3.6-7.4C588.9,190.1,590.9,189,593,189 M593,183
						c-4.3,0-8.3,2.3-10.4,6.1c-1.4,2.5-2.6,5-3.9,8.1c-1,2.5-2,5.1-2.9,8c-1.7,5.4-2.9,10.9-3.6,16.5c-0.8,6.3-0.9,12.1-0.4,17.9
						c0.6,6.9,2.1,13.6,4.6,19.8c0.6,1.4,1.3,3.2,2.2,5c0.8,1.6,1.6,3.2,2.5,4.6c1,1.6,2,3.1,2.8,4.3c0.9,1.3,1.8,2.6,2.9,4
						c0.8,1,1.7,2.2,2.6,3.3l2.2,2.6c0.4,0.5,0.8,1,1.2,1.5l0.1,0.1c0.2,0.3,0.5,0.6,0.7,0.9l0,0c0.3,0.4,0.6,0.8,0.9,1.1
						c0.3,0.3,0.5,0.6,0.7,0.9c0.8,1,1.5,2,2.3,3.1l0.2,0.3c0.2,0.3,0.4,0.6,0.6,0.9l0.1,0.1l0.4,0.6c0.3,0.4,0.6,1,0.9,1.5l0.1,0.2
						c1.2,2,2.4,4.5,4,7.9l0.1,0.2c0.5,1.5,1.1,2.9,1.5,4.2l0.4,1.2c0.1,0.3,0.4,1.4,0.4,1.5c0.1,0.3,0.2,0.8,0.3,1.2
						c0.1,0.3,0.2,0.6,0.2,0.9c0.8,3.3,1.4,6.3,1.7,9.3c0.8,6.4,0.6,13.1-0.4,19.8c-0.3,1.9-0.6,3.6-0.9,5.1c0,0.1,0,0.1,0,0.2
						c-0.4,1.8-0.8,3.6-1.3,5.2c-1,3.7-2.2,7.4-3.6,10.9c-3,7.7-6.7,15.2-11,22.4c-2.6,4.4-2.2,10,1.2,13.9c2.3,2.6,5.6,4.2,9,4.2
						c1.5,0,3-0.3,4.5-0.9c1.4-0.6,2.8-1.2,4.3-2c1.4-0.7,2.7-1.4,3.8-2.1l0,0c1.1-0.6,2.3-1.4,3.5-2.2c1.2-0.8,2.3-1.6,3.3-2.3
						c4.3-3.1,8.5-6.8,12.5-10.8c8-8.2,14.5-17.5,19.3-27.8c5-10.7,8.1-22.5,9-34.3c0.2-1.9,0.3-4,0.3-6.2c0-0.6,0-1.1-0.1-1.7
						c-4.5-35.3-21-51.9-31.9-63c-2.2-2.3-4.4-4.4-6-6.4c-10.6-12.4-17.4-40.4-19.1-50.2c-0.9-4.9-4.7-8.8-9.7-9.7
						C594.3,183,593.6,183,593,183L593,183z"/>
				</g>
			</g>
		</g>
	</g>
</g>
<g>
	<g>
		<path class="st6" d="M311.8,873.4c-12.8,0-23-10.3-23-23v-227c0-12.8,10.3-23,23-23h98.3c12.8,0,23,10.3,23,23v45.5
			c0,10.3-6.8,19.1-16.1,22c8,3.5,13.7,11.7,13.7,21.1v43.2c0,12.8-10.3,23-23,23h-13.8v3.8h20.3c12.8,0,23,10.3,23,23v45.5
			c0,12.8-10.3,23-23,23L311.8,873.4L311.8,873.4z"/>
		<path class="st6" d="M527.3,878.2c-13.8,0-27-3.4-39-10.1c-12-6.6-21.4-15.4-28-25.7c-6.1-9.8-10.1-20.4-11.7-31.3
			c-1.2-8.9-1.8-21.5-1.8-38.4v-67.5c0-23.7,1.4-40.9,4.1-52.6c3.7-15.2,13.4-28.7,28.9-40.3c15.1-11.1,34.1-16.7,56.7-16.7
			c21.5,0,40.1,4.8,55.2,14.1c15.8,9.8,26.6,22.4,31.8,37.2c4.5,12.4,6.5,28.7,6.5,50.2v9.8c0,3.8-0.9,7.5-2.6,10.8
			c1.7,3.2,2.6,6.9,2.6,10.8v121.9c0,12.8-10.3,23-23,23h-37c-3.8,0-7.5-0.9-10.8-2.6C549.6,875.7,538.9,878.2,527.3,878.2z"/>
		<path class="st6" d="M725.8,878.2c-13.8,0-27-3.4-39-10.1c-12-6.6-21.4-15.4-28-25.7c-6.1-9.8-10.1-20.4-11.7-31.3
			c-1.2-8.9-1.8-21.5-1.8-38.4v-67.5c0-23.7,1.4-40.9,4.1-52.6c3.7-15.2,13.4-28.7,28.9-40.3c15.1-11.1,34.1-16.7,56.7-16.7
			c21.5,0,40.1,4.8,55.2,14.1c15.8,9.8,26.6,22.4,31.8,37.2c4.5,12.4,6.5,28.7,6.5,50.2v9.8c0,3.8-0.9,7.5-2.6,10.8
			c1.7,3.2,2.6,6.9,2.6,10.8v121.9c0,12.8-10.3,23-23,23h-37c-3.8,0-7.5-0.9-10.8-2.6C748.1,875.7,737.5,878.2,725.8,878.2z"/>
		<path class="st6" d="M378.5,1187.2c-19.5,0-36.9-4-51.3-11.7c-16.1-8.6-27.2-20.4-32.6-35c-4.5-12-6.6-27.5-6.6-47.5v-14.9
			c0-12,9.2-21.8,20.9-22.9c-6.8-6.6-12.1-15.1-16.3-25.4c-4.3-10.6-6.3-23.2-6.3-38.4c0-21.5,3.1-37.6,9.5-49.3
			c6.9-12.4,17.7-22.1,32.1-28.7c12.9-5.8,28.1-8.9,45.5-8.9c18.6,0,35,3.2,48.9,9.5c15.8,7.2,26.9,17.4,32.7,30
			c5.1,10.9,7.4,26.1,7.4,48.1v8.9c0,12.8-10.3,23-23,23h-0.9c6.3,5.5,11.1,10.8,14.6,15.8c9.5,14,14.3,34.1,14.3,61.3
			c0,20-2.6,35-8,45.9c-6.1,12.3-17.1,22.4-32.7,29.8C412.5,1183.8,396.4,1187.2,378.5,1187.2z"/>
		<path class="st6" d="M502.8,1182.4c-12.8,0-23-10.3-23-23v-227c0-12.8,10.3-23,23-23h59.5c18.4,0,32.7,1.5,43.5,4.8
			c12.8,3.7,22.9,9.7,30.1,17.5c7.1,7.7,11.8,17.1,14.3,27.7c2,8.6,2.9,20.4,2.9,36.6v19.8c0,18.1-2,31.3-6.5,41.2
			c-5.4,11.8-15.1,21.1-28.1,26.9c-9.4,4.1-20.4,6.6-33.5,7.2v68.5c0,12.8-10.3,23-23,23h-59.2V1182.4z"/>
		<path class="st6" d="M755.5,1182.4c-5.2,0-10-1.7-14-4.6c-3.8,2.9-8.8,4.6-14,4.6h-61c-6.6,0-12.9-2.9-17.4-7.8
			c-4.3-5.1-6.5-11.7-5.5-18.3l30.3-226.8c1.5-11.5,11.2-20,22.9-20H782c11.4,0,21.1,8.3,22.7,19.7l33.8,227
			c0.9,6.6-0.9,13.4-5.4,18.4c-4.3,5.1-10.8,8-17.5,8h-60.2V1182.4z"/>
	</g>
	<g>
		
			<linearGradient id="SVGID_1_" gradientUnits="userSpaceOnUse" x1="538.2579" y1="1580.8644" x2="538.2579" y2="1817.3506" gradientTransform="matrix(1 0 0 -1 0 2436)">
			<stop  offset="0" style="stop-color:#FFFFFF"/>
			<stop  offset="1" style="stop-color:#C4C4C4"/>
		</linearGradient>
		<path class="st8" d="M606.7,707h-59v-20.6c0-13.1-0.6-21.1-1.7-24.4c-1.1-3.2-3.8-4.9-8-4.9c-3.7,0-6.1,1.4-7.4,4.1
			c-1.4,2.8-2,10-2,21.7v108.9c0,10.1,0.6,16.9,2,20.1c1.4,3.2,4,4.8,7.8,4.8c4.3,0,7.2-1.8,8.8-5.5c1.5-3.7,2.3-10.8,2.3-21.4
			v-26.9h-12v-34.4h69.1v121.9h-37l-5.5-16.3c-4,7.1-9.1,12.3-15.2,15.8c-6.1,3.5-13.4,5.2-21.7,5.2c-10,0-19.2-2.5-27.8-7.2
			c-8.6-4.8-15.2-10.8-19.7-17.8c-4.5-7.1-7.2-14.6-8.5-22.4c-1.1-7.8-1.7-19.5-1.7-35.2v-67.3c0-21.7,1.2-37.5,3.5-47.2
			c2.3-9.8,9.1-18.7,20.1-27c11.1-8.1,25.4-12.3,43-12.3c17.4,0,31.7,3.5,43,10.6c11.4,7.1,18.9,15.5,22.3,25.4
			c3.5,9.8,5.2,24,5.2,42.6v9.8L606.7,707L606.7,707z"/>
		
			<linearGradient id="SVGID_2_" gradientUnits="userSpaceOnUse" x1="736.7897" y1="1580.8644" x2="736.7897" y2="1817.3506" gradientTransform="matrix(1 0 0 -1 0 2436)">
			<stop  offset="0" style="stop-color:#FFFFFF"/>
			<stop  offset="1" style="stop-color:#C4C4C4"/>
		</linearGradient>
		<path class="st9" d="M805.2,707h-59v-20.6c0-13.1-0.6-21.1-1.7-24.4c-1.1-3.2-3.8-4.9-8-4.9c-3.7,0-6.1,1.4-7.4,4.1
			c-1.4,2.8-2,10-2,21.7v108.9c0,10.1,0.6,16.9,2,20.1c1.4,3.2,4,4.8,7.8,4.8c4.3,0,7.2-1.8,8.8-5.5c1.5-3.7,2.3-10.8,2.3-21.4
			v-26.9h-12v-34.4h69.1v121.9h-37l-5.5-16.3c-4,7.1-9.1,12.3-15.2,15.8c-6.1,3.5-13.4,5.2-21.7,5.2c-10,0-19.2-2.5-27.8-7.2
			c-8.6-4.8-15.2-10.8-19.7-17.8c-4.5-7.1-7.2-14.6-8.5-22.4c-1.1-7.8-1.7-19.5-1.7-35.2v-67.3c0-21.7,1.2-37.5,3.5-47.2
			c2.3-9.8,9.1-18.7,20.1-27c11.1-8.1,25.4-12.3,43-12.3c17.4,0,31.7,3.5,43,10.6c11.4,7.1,18.9,15.5,22.3,25.4
			c3.5,9.8,5.2,24,5.2,42.6v9.8L805.2,707L805.2,707z"/>
		
			<linearGradient id="SVGID_3_" gradientUnits="userSpaceOnUse" x1="376.605" y1="1271.8495" x2="376.605" y2="1508.1821" gradientTransform="matrix(1 0 0 -1 0 2436)">
			<stop  offset="0" style="stop-color:#FFFFFF"/>
			<stop  offset="1" style="stop-color:#C4C4C4"/>
		</linearGradient>
		<path class="st10" d="M439.2,1001.1h-54.9v-16.7c0-7.8-0.8-12.9-2.2-15.1c-1.4-2.2-3.7-3.2-7.1-3.2c-3.5,0-6.3,1.4-8,4.3
			c-1.8,2.9-2.8,7.2-2.8,13.2c0,7.5,1.1,13.2,3.1,17.1s7.5,8.5,16.7,13.8c26.3,15.5,42.9,28.4,49.6,38.4s10.3,26.1,10.3,48.4
			c0,16.1-1.8,28.1-5.7,35.8s-11.1,14.1-22,19.2c-10.9,5.2-23.5,7.8-37.8,7.8c-15.8,0-29.3-2.9-40.4-8.9c-11.2-6-18.4-13.7-22-22.9
			c-3.5-9.2-5.2-22.4-5.2-39.3v-14.9h54.9v27.7c0,8.5,0.8,14,2.3,16.4c1.5,2.5,4.3,3.7,8.1,3.7c4,0,6.9-1.5,8.8-4.6
			s2.9-7.7,2.9-13.7c0-13.4-1.8-22.1-5.5-26.3c-3.7-4.1-12.9-10.9-27.7-20.6c-14.6-9.7-24.4-16.7-29.2-21.2
			c-4.8-4.5-8.8-10.4-11.8-18.3c-3.1-7.7-4.8-17.7-4.8-29.7c0-17.4,2.2-30.1,6.6-38.1c4.5-8,11.7-14.3,21.5-18.9
			c9.8-4.5,21.8-6.8,36-6.8c15.4,0,28.4,2.5,39.2,7.4c10.8,4.9,18,11.2,21.5,18.7s5.2,20.3,5.2,38.4v8.8L439.2,1001.1L439.2,1001.1z
			"/>
		
			<linearGradient id="SVGID_4_" gradientUnits="userSpaceOnUse" x1="566.378" y1="1276.4592" x2="566.378" y2="1503.5721" gradientTransform="matrix(1 0 0 -1 0 2436)">
			<stop  offset="0" style="stop-color:#FFFFFF"/>
			<stop  offset="1" style="stop-color:#C4C4C4"/>
		</linearGradient>
		<path class="st11" d="M502.8,932.4h59.5c16.1,0,28.4,1.2,37,3.8c8.6,2.5,15.2,6.1,19.5,10.9c4.3,4.8,7.2,10.6,8.8,17.4
			c1.5,6.8,2.3,17.2,2.3,31.5v19.8c0,14.4-1.5,25-4.5,31.7c-2.9,6.6-8.5,11.7-16.4,15.2c-8,3.5-18.4,5.4-31.3,5.4h-15.8v91.4h-59
			L502.8,932.4L502.8,932.4z M561.8,971.3v57.8c1.7,0.2,3.1,0.2,4.3,0.2c5.4,0,9.2-1.4,11.2-4c2-2.6,3.2-8.1,3.2-16.6v-18.6
			c0-7.7-1.2-12.8-3.7-15.2C574.4,972.5,569.5,971.3,561.8,971.3z"/>
		
			<linearGradient id="SVGID_5_" gradientUnits="userSpaceOnUse" x1="741.092" y1="1276.6128" x2="741.092" y2="1503.5721" gradientTransform="matrix(1 0 0 -1 0 2436)">
			<stop  offset="0" style="stop-color:#FFFFFF"/>
			<stop  offset="1" style="stop-color:#C4C4C4"/>
		</linearGradient>
		<path class="st12" d="M781.9,932.4l33.8,227h-60.4l-3.2-40.7H731l-3.5,40.7h-61l30.1-227H781.9z M750.7,1078.4
			c-2.9-25.7-6-57.5-8.9-95.3c-6,43.5-9.8,75.3-11.4,95.3H750.7z"/>
		
			<linearGradient id="SVGID_6_" gradientUnits="userSpaceOnUse" x1="363.006" y1="1585.4742" x2="363.006" y2="1812.587" gradientTransform="matrix(1 0 0 -1 0 2436)">
			<stop  offset="0" style="stop-color:#FFFFFF"/>
			<stop  offset="1" style="stop-color:#C4C4C4"/>
		</linearGradient>
		<path class="st13" d="M311.8,623.4h98.3v45.5h-39.3v43h36.9v43.2h-36.9V805h43.3v45.5H311.8V623.4z"/>
	</g>
</g>
<ellipse class="st5" cx="562.5" cy="1924.9" rx="311.4" ry="100.5"/>
<g>
	<path class="st14" d="M336,1919.2h104.8c11,0,19.8,8.8,19.8,19.8l0,0c0,11-8.8,19.8-19.8,19.8H336c-11,0-19.8-8.8-19.8-19.8l0,0
		C316.2,1928,325,1919.2,336,1919.2z"/>
	<path class="st14" d="M684.2,1919.2H789c11,0,19.8,8.8,19.8,19.8l0,0c0,11-8.8,19.8-19.8,19.8H684.2c-11,0-19.8-8.8-19.8-19.8l0,0
		C664.4,1928,673.2,1919.2,684.2,1919.2z"/>
	<path class="st15" d="M316.2,1757.8c0-15.6,12.7-28.3,28.3-28.3h436c15.6,0,28.3,12.7,28.3,28.3v133.1c0,0.8,0,2,0,2.8
		c0,0.8,0,2,0,2.8v25.5c0,15.6-12.7,28.3-28.3,28.3h-87.8c-15.6,0-28.3-12.7-28.3-28.3v-2.8H460.6v2.8c0,15.6-12.7,28.3-28.3,28.3
		h-87.8c-15.6,0-28.3-12.7-28.3-28.3v-25.5c0-0.8,0-2,0-2.8c0-0.8,0-2,0-2.8V1757.8z"/>
	<path class="st14" d="M371.4,1704h382.2c30.6,0,55.2,24.6,55.2,55.2l0,0c0,30.6-24.6,55.2-55.2,55.2H371.4
		c-30.6,0-55.2-24.6-55.2-55.2l0,0C316.2,1728.7,340.8,1704,371.4,1704z"/>
</g>
</svg>
