<?xml version="1.0" encoding="utf-8"?>
<!-- Generator: Adobe Illustrator 23.1.0, SVG Export Plug-In . SVG Version: 6.00 Build 0)  -->
<svg version="1.1" id="Layer_1" xmlns="http://www.w3.org/2000/svg" xmlns:xlink="http://www.w3.org/1999/xlink" x="0px" y="0px"
	 viewBox="0 0 1125 2436" style="enable-background:new 0 0 1125 2436;" xml:space="preserve">
<style type="text/css">
	.st0{fill:#FFFFFF;}
	.st1{fill:#EDEDED;}
	.st2{fill:#005C63;}
	.st3{fill:#1A6872;}
	.st4{fill:#004042;}
	.st5{fill:#0E4A4B;}
	.st6{opacity:0.25;fill:#005C63;enable-background:new    ;}
	.st7{fill:#FFF5C4;}
	.st8{fill-rule:evenodd;clip-rule:evenodd;fill:#F1E5A4;}
	.st9{fill:#D19869;}
	.st10{fill:#D3CBC5;}
	.st11{fill:#E2DCD7;}
	.st12{fill:#704728;}
	.st13{fill:#B77B4F;}
	.st14{fill:#BF1010;}
	.st15{fill:url(#SVGID_1_);stroke:#000000;stroke-miterlimit:10;}
	.st16{fill:url(#SVGID_2_);stroke:#000000;stroke-miterlimit:10;}
	.st17{fill:url(#SVGID_3_);stroke:#000000;stroke-miterlimit:10;}
	.st18{fill:url(#SVGID_4_);stroke:#000000;stroke-miterlimit:10;}
	.st19{fill:url(#SVGID_5_);stroke:#000000;stroke-miterlimit:10;}
	.st20{fill:url(#SVGID_6_);stroke:#000000;stroke-miterlimit:10;}
</style>
<rect x="-13.7" y="-29.6" class="st0" width="1153.1" height="2495.2"/>
<g>
	<g>
		<path class="st1" d="M133.4,0H0v133.5h133.5L133.4,0L133.4,0z"/>
		<path class="st1" d="M275.1,0H141.6v133.5h133.5V0z"/>
		<path class="st1" d="M416.8,0H283.3v133.5h133.5V0z"/>
		<path class="st1" d="M558.3,0H424.9v133.5h133.5L558.3,0L558.3,0z"/>
		<path class="st1" d="M700,0H566.6v133.5h133.5L700,0L700,0z"/>
		<path class="st1" d="M841.7,0H708.2v133.5h133.5V0z"/>
		<path class="st1" d="M983.4,0H849.9v133.5h133.5V0z"/>
		<path class="st1" d="M1124.9,0H991.5v133.5H1125L1124.9,0L1124.9,0z"/>
	</g>
	<g>
		<path class="st1" d="M133.4,141.9H0v133.5h133.5L133.4,141.9L133.4,141.9z"/>
		<path class="st1" d="M275.1,141.9H141.6v133.5h133.5V141.9z"/>
		<path class="st1" d="M416.8,141.9H283.3v133.5h133.5V141.9z"/>
		<path class="st1" d="M558.3,141.9H424.9v133.5h133.5L558.3,141.9L558.3,141.9z"/>
		<path class="st1" d="M700,141.9H566.6v133.5h133.5L700,141.9L700,141.9z"/>
		<path class="st1" d="M841.7,141.9H708.2v133.5h133.5V141.9z"/>
		<path class="st1" d="M983.4,141.9H849.9v133.5h133.5V141.9z"/>
		<path class="st1" d="M1124.9,141.9H991.5v133.5H1125L1124.9,141.9L1124.9,141.9z"/>
	</g>
	<g>
		<path class="st1" d="M133.4,283.8H0v133.5h133.5L133.4,283.8L133.4,283.8z"/>
		<path class="st1" d="M275.1,283.8H141.6v133.5h133.5V283.8z"/>
		<path class="st1" d="M416.8,283.8H283.3v133.5h133.5V283.8z"/>
		<path class="st1" d="M558.3,283.8H424.9v133.5h133.5L558.3,283.8L558.3,283.8z"/>
		<path class="st1" d="M700,283.8H566.6v133.5h133.5L700,283.8L700,283.8z"/>
		<path class="st1" d="M841.7,283.8H708.2v133.5h133.5V283.8z"/>
		<path class="st1" d="M983.4,283.8H849.9v133.5h133.5V283.8z"/>
		<path class="st1" d="M1124.9,283.8H991.5v133.5H1125L1124.9,283.8L1124.9,283.8z"/>
	</g>
	<g>
		<path class="st1" d="M133.4,425.7H0v133.5h133.5L133.4,425.7L133.4,425.7z"/>
		<path class="st1" d="M275.1,425.7H141.6v133.5h133.5V425.7z"/>
		<path class="st1" d="M416.8,425.7H283.3v133.5h133.5V425.7z"/>
		<path class="st1" d="M558.3,425.7H424.9v133.5h133.5L558.3,425.7L558.3,425.7z"/>
		<path class="st1" d="M700,425.7H566.6v133.5h133.5L700,425.7L700,425.7z"/>
		<path class="st1" d="M841.7,425.7H708.2v133.5h133.5V425.7z"/>
		<path class="st1" d="M983.4,425.7H849.9v133.5h133.5V425.7z"/>
		<path class="st1" d="M1124.9,425.7H991.5v133.5H1125L1124.9,425.7L1124.9,425.7z"/>
	</g>
	<g>
		<path class="st1" d="M133.4,567.6H0v133.5h133.5L133.4,567.6L133.4,567.6z"/>
		<path class="st1" d="M275.1,567.6H141.6v133.5h133.5V567.6z"/>
		<path class="st1" d="M416.8,567.6H283.3v133.5h133.5V567.6z"/>
		<path class="st1" d="M558.3,567.6H424.9v133.5h133.5L558.3,567.6L558.3,567.6z"/>
		<path class="st1" d="M700,567.6H566.6v133.5h133.5L700,567.6L700,567.6z"/>
		<path class="st1" d="M841.7,567.6H708.2v133.5h133.5V567.6z"/>
		<path class="st1" d="M983.4,567.6H849.9v133.5h133.5V567.6z"/>
		<path class="st1" d="M1124.9,567.6H991.5v133.5H1125L1124.9,567.6L1124.9,567.6z"/>
	</g>
	<g>
		<path class="st1" d="M133.4,709.5H0V843h133.5L133.4,709.5L133.4,709.5z"/>
		<path class="st1" d="M275.1,709.5H141.6V843h133.5V709.5z"/>
		<path class="st1" d="M416.8,709.5H283.3V843h133.5V709.5z"/>
		<path class="st1" d="M558.3,709.5H424.9V843h133.5L558.3,709.5L558.3,709.5z"/>
		<path class="st1" d="M700,709.5H566.6V843h133.5L700,709.5L700,709.5z"/>
		<path class="st1" d="M841.7,709.5H708.2V843h133.5V709.5z"/>
		<path class="st1" d="M983.4,709.5H849.9V843h133.5V709.5z"/>
		<path class="st1" d="M1124.9,709.5H991.5V843H1125L1124.9,709.5L1124.9,709.5z"/>
	</g>
	<g>
		<path class="st1" d="M133.4,851.4H0v133.5h133.5L133.4,851.4L133.4,851.4z"/>
		<path class="st1" d="M275.1,851.4H141.6v133.5h133.5V851.4z"/>
		<path class="st1" d="M416.8,851.4H283.3v133.5h133.5V851.4z"/>
		<path class="st1" d="M558.3,851.4H424.9v133.5h133.5L558.3,851.4L558.3,851.4z"/>
		<path class="st1" d="M700,851.4H566.6v133.5h133.5L700,851.4L700,851.4z"/>
		<path class="st1" d="M841.7,851.4H708.2v133.5h133.5V851.4z"/>
		<path class="st1" d="M983.4,851.4H849.9v133.5h133.5V851.4z"/>
		<path class="st1" d="M1124.9,851.4H991.5v133.5H1125L1124.9,851.4L1124.9,851.4z"/>
	</g>
	<g>
		<path class="st1" d="M133.4,993.3H0v133.5h133.5L133.4,993.3L133.4,993.3z"/>
		<path class="st1" d="M275.1,993.3H141.6v133.5h133.5V993.3z"/>
		<path class="st1" d="M416.8,993.3H283.3v133.5h133.5V993.3z"/>
		<path class="st1" d="M558.3,993.3H424.9v133.5h133.5L558.3,993.3L558.3,993.3z"/>
		<path class="st1" d="M700,993.3H566.6v133.5h133.5L700,993.3L700,993.3z"/>
		<path class="st1" d="M841.7,993.3H708.2v133.5h133.5V993.3z"/>
		<path class="st1" d="M983.4,993.3H849.9v133.5h133.5V993.3z"/>
		<path class="st1" d="M1124.9,993.3H991.5v133.5H1125L1124.9,993.3L1124.9,993.3z"/>
	</g>
</g>
<g>
	<path class="st2" d="M1125.7,1084.2H-0.7V1592h1126.4L1125.7,1084.2L1125.7,1084.2z"/>
	<path class="st3" d="M1125.7,1041.1H-0.7v43.1h1126.4L1125.7,1041.1L1125.7,1041.1z"/>
	<path class="st3" d="M1125.7,1084.2H-0.7v15h1126.4L1125.7,1084.2L1125.7,1084.2z"/>
	<path class="st4" d="M1125.7,1592H-0.7v863.5h1126.4L1125.7,1592L1125.7,1592z"/>
	<path class="st3" d="M251.1,1116.2H-0.7v281.4h251.8V1116.2z"/>
	<path class="st3" d="M552.5,1116.2H271.1v281.4h281.4V1116.2z"/>
	<path class="st3" d="M853.9,1116.2H572.5v281.4h281.4V1116.2z"/>
	<path class="st3" d="M1125.7,1116.2H873.9v281.4h251.8L1125.7,1116.2L1125.7,1116.2z"/>
	<path class="st3" d="M251.1,1417.7H-0.7V1592h251.8V1417.7z"/>
	<path class="st3" d="M552.5,1417.7H271.1V1592h281.4V1417.7z"/>
	<path class="st3" d="M853.9,1417.7H572.5V1592h281.4V1417.7z"/>
	<path class="st3" d="M1125.7,1417.7H873.9V1592h251.8L1125.7,1417.7L1125.7,1417.7z"/>
	<path class="st5" d="M251.1,1612H-0.7v126.5h251.8V1612z"/>
	<path class="st5" d="M552.5,1612H271.1v126.5h281.4V1612z"/>
	<path class="st5" d="M853.9,1612H572.5v126.5h281.4V1612z"/>
	<path class="st5" d="M1125.7,1612H873.9v126.5h251.8L1125.7,1612L1125.7,1612z"/>
	<path class="st5" d="M251.1,1759.7H-0.7v208.2h251.8V1759.7z"/>
	<path class="st5" d="M552.5,1759.7H271.1v208.2h281.4V1759.7z"/>
	<path class="st5" d="M853.9,1759.7H572.5v208.2h281.4V1759.7z"/>
	<path class="st5" d="M1125.7,1759.7H873.9v208.2h251.8L1125.7,1759.7L1125.7,1759.7z"/>
	<path class="st5" d="M251.1,1989H-0.7v224.5h251.8V1989z"/>
	<path class="st5" d="M552.5,1989H271.1v224.5h281.4V1989z"/>
	<path class="st5" d="M853.9,1989H572.5v224.5h281.4V1989z"/>
	<path class="st5" d="M1125.7,1989H873.9v224.5h251.8L1125.7,1989L1125.7,1989z"/>
	<path class="st5" d="M251.1,2231H-0.7v224.5h251.8V2231z"/>
	<path class="st5" d="M552.5,2231H271.1v224.5h281.4V2231z"/>
	<path class="st5" d="M853.9,2231H572.5v224.5h281.4V2231z"/>
	<path class="st5" d="M1125.7,2231H873.9v224.5h251.8L1125.7,2231L1125.7,2231z"/>
	<path class="st6" d="M1125.7,1084.2H-0.7v60.1h1126.4L1125.7,1084.2L1125.7,1084.2z"/>
</g>
<ellipse class="st6" cx="562.5" cy="1785.7" rx="232.7" ry="64.5"/>
<ellipse class="st6" cx="1051.9" cy="2115.6" rx="205.7" ry="66.4"/>
<g>
	<g>
		<ellipse class="st6" cx="216.5" cy="2503.9" rx="333.6" ry="107.7"/>
		<g>
			<path class="st7" d="M-26.1,2497.8H86.1c11.8,0,21.2,9.4,21.2,21.2l0,0c0,11.8-9.4,21.2-21.2,21.2H-26.1
				c-11.8,0-21.2-9.4-21.2-21.2l0,0C-47.4,2507.2-38,2497.8-26.1,2497.8z"/>
			<path class="st7" d="M346.9,2497.8h112.2c11.8,0,21.2,9.4,21.2,21.2l0,0c0,11.8-9.4,21.2-21.2,21.2H346.9
				c-11.8,0-21.2-9.4-21.2-21.2l0,0C325.7,2507.2,335.1,2497.8,346.9,2497.8z"/>
			<path class="st8" d="M-47.4,2324.9c0-16.7,13.6-30.3,30.3-30.3H450c16.7,0,30.3,13.6,30.3,30.3v142.6c0,0.9,0,2.1,0,3s0,2.1,0,3
				v27.3c0,16.7-13.6,30.3-30.3,30.3h-94c-16.7,0-30.3-13.6-30.3-30.3v-3H107.3v3c0,16.7-13.6,30.3-30.3,30.3h-94
				c-16.7,0-30.3-13.6-30.3-30.3v-27.3c0-0.9,0-2.1,0-3s0-2.1,0-3v-142.6H-47.4z"/>
			<path class="st7" d="M11.8,2267.3h409.5c32.8,0,59.1,26.4,59.1,59.1l0,0c0,32.8-26.4,59.1-59.1,59.1H11.8
				c-32.8,0-59.1-26.4-59.1-59.1l0,0C-47.4,2293.7-21,2267.3,11.8,2267.3z"/>
		</g>
	</g>
	<g>
		<path class="st9" d="M444.8,2061.7c-30.1-179.2-109.8-247.9-166.5-274.3c-44.9-21-84.6-14.2-106.4-7.1
			c-56.4,20.1-150.4,83.1-183.7,281.4c-41.1,244.2,97.8,320.6,228.3,320.6S485.9,2305.9,444.8,2061.7z"/>
		<path class="st10" d="M208.3,1803.5l-23.3,23.8c-82.8,12.2-172.4,31.4-172.4,57.7c0,0-8.2,32.6,32.6,40.8c15,3,23.3,9.3,29.2,14.9
			c0,0.1,19.8,34,52.4,1.4s138.6-130.4,187.5-122.3c0,0,8.2,0,8.2-8.2S232.8,1770.9,208.3,1803.5z"/>
		<path class="st11" d="M12.7,1885c0,0,16.3-24.5,57.1,0s32.6,57.1,106,0s99.3-80,143.4-72.6c0,0,11.5-0.7,3.4-25.2
			c-8.2-24.5-106-32.6-138.6-24.5C151.3,1770.9-11.8,1860.6,12.7,1885z"/>
		<g>
			<path class="st12" d="M134.1,2231.4c-0.3,0-0.5,0-0.8,0c-87.7-8.8-88.7-54.9-88.7-56.9c0-4.4,3.6-8,8-8s8,3.5,8,7.9
				c0.1,1.7,2.4,33.9,74.3,41.1c4.4,0.4,7.6,4.4,7.2,8.8C141.7,2228.3,138.2,2231.4,134.1,2231.4z M60.6,2174.5L60.6,2174.5
				L60.6,2174.5z"/>
		</g>
		<g>
			<path class="st12" d="M241.4,2239.6c-4.4,0-8-3.6-8-8s3.6-8,8-8c0.7,0,68.8-0.6,90.7-44.5c2-4,6.8-5.5,10.8-3.6
				c4,2,5.6,6.8,3.6,10.8C320,2239,244.6,2239.6,241.4,2239.6z"/>
		</g>
		<g>
			<path class="st12" d="M159,2019.5c-1.5,0-2.9-0.8-3.6-2.2c-1-2-0.2-4.4,1.8-5.4c0.7-0.4,17.3-8.6,34.4-8.6c2.2,0,4,1.8,4,4
				s-1.8,4-4,4c-15.2,0-30.7,7.7-30.8,7.7C160.2,2019.4,159.6,2019.5,159,2019.5z"/>
		</g>
		<g>
			<path class="st12" d="M274,2019.5c-0.6,0-1.2-0.1-1.8-0.4c-0.1-0.1-15.7-7.7-30.8-7.7c-2.2,0-4-1.8-4-4s1.8-4,4-4
				c17.1,0,33.7,8.2,34.4,8.6c2,1,2.8,3.4,1.8,5.4C276.9,2018.7,275.4,2019.5,274,2019.5z"/>
		</g>
		<g>
			<ellipse class="st0" cx="187.8" cy="2056.5" rx="23.7" ry="28.9"/>
			<ellipse class="st0" cx="245.2" cy="2056.5" rx="23.7" ry="28.9"/>
			<ellipse class="st12" cx="189" cy="2067.5" rx="14.5" ry="17.7"/>
			<ellipse class="st12" cx="246.3" cy="2067.5" rx="14.5" ry="17.7"/>
		</g>
		<g>
			<path class="st12" d="M110.5,2438.3c-4.5,0-8.9-2.6-10.9-7c-2.8-6-0.2-13.2,5.8-16l17.9-8.3c-10.4-88.6,26.7-101.8,31.1-103
				c6.4-1.8,13,1.9,14.8,8.3c1.8,6.2-1.7,12.7-7.8,14.7c-1.3,0.6-23.7,12.7-13.2,85.5c0.8,5.3-2,10.4-6.8,12.6l-25.9,12
				C113.9,2438,112.2,2438.3,110.5,2438.3z"/>
		</g>
		<g>
			<path class="st12" d="M207.1,2438.3c-4.5,0-8.9-2.6-10.9-7c-2.8-6-0.2-13.2,5.8-16l17.9-8.3c-10.4-88.6,26.7-101.8,31.1-103
				c6.4-1.8,13,1.9,14.8,8.3c1.8,6.2-1.7,12.7-7.8,14.7c-1.3,0.6-23.7,12.7-13.2,85.5c0.8,5.3-2,10.4-6.8,12.6l-25.9,12
				C210.6,2438,208.8,2438.3,207.1,2438.3z"/>
		</g>
	</g>
</g>
<g>
	<path class="st9" d="M785.8,1395.5C757.9,1230,684.4,1166.6,632,1142.2c-41.5-19.4-78.1-13.1-98.2-6.5
		c-52.1,18.5-138.9,76.8-169.6,259.8c-37.9,225.5,90.3,296.1,210.8,296.1S823.7,1621,785.8,1395.5z"/>
	<g>
		<path class="st12" d="M579.9,1462.7c-16.8,0-29.4-8.9-29.6-9c-1.7-1.2-2-3.5-0.9-5.2c1.2-1.7,3.5-2.1,5.2-0.9
			c1,0.7,24.6,17,48.4,0c1.7-1.2,4-0.8,5.2,0.9c1.2,1.7,0.8,4-0.9,5.2C597.8,1460.4,588.3,1462.7,579.9,1462.7z"/>
	</g>
	<g>
		<path class="st12" d="M518.3,1360.8c-0.9,0-1.9-0.4-2.6-1.1c-1.4-1.4-1.4-3.8,0-5.2c0.9-0.9,8.9-8.6,17.7-8.6c2,0,3.7,1.7,3.7,3.7
			s-1.7,3.7-3.7,3.7c-4.9,0-10.6,4.7-12.4,6.5C520.1,1360.4,519.2,1360.8,518.3,1360.8z"/>
	</g>
	<g>
		<path class="st12" d="M337.8,1582.3c-0.4,0-0.8,0-1.2-0.1c-4-0.7-6.8-4.5-6.1-8.5c8.2-49,34-58.1,35.1-58.5
			c3.9-1.3,8.1,0.8,9.4,4.7c1.3,3.8-0.8,8-4.6,9.3c-0.6,0.2-18.8,8-25.3,46.9C344.5,1579.7,341.4,1582.3,337.8,1582.3z"/>
	</g>
	<g>
		<path class="st12" d="M804.6,1582.3c-4.1,0-7.4-3.3-7.4-7.4c0-16.5-15.2-40.4-21.1-48.3c-2.5-3.3-1.8-7.9,1.5-10.4
			s7.9-1.8,10.4,1.5c1,1.3,24.1,32.4,24.1,57.1C812,1579,808.7,1582.3,804.6,1582.3z"/>
	</g>
	<path class="st10" d="M416.9,1224.8c0,0-15.1-7.5-52.7-7.5s-67.8,22.6-60.2,45.2c7.5,22.6-30.1,75.3,0,105.4s37.6,22.6,60.2,7.5
		C392.4,1356.6,386.7,1247.4,416.9,1224.8z"/>
	<path class="st10" d="M718,1209.7c0,0,52.3,78.8,52.5,133.5s75.5,24.6,60.4-35.7c-15.1-60.2,7.5-120.5-30.1-128
		C763.2,1172.1,725.5,1172.1,718,1209.7z"/>
	<path class="st11" d="M387.7,1304.7c0,0,124.5-33.8,376.1,0c0,0-39.1-185.6-156.3-200.3C520.1,1093.5,412.1,1148.4,387.7,1304.7"/>
	<g>
		<ellipse class="st0" cx="552.3" cy="1406.1" rx="21.9" ry="26.7"/>
		<ellipse class="st0" cx="605.2" cy="1406.1" rx="21.9" ry="26.7"/>
		<ellipse class="st12" cx="560.7" cy="1408.9" rx="13.4" ry="16.3"/>
		<ellipse class="st12" cx="613.7" cy="1408.9" rx="13.4" ry="16.3"/>
	</g>
	<g>
		<path class="st12" d="M509,1780.9h-26.7c-6.1,0-11.1-5-11.1-11.1s5-11.1,11.1-11.1h15.2c-0.5-21.9-0.1-69.1,10.4-95.2
			c2.3-5.7,8.8-8.4,14.5-6.2c5.7,2.3,8.4,8.8,6.2,14.5c-9.9,24.6-9.5,78.7-8.4,97.4c0.2,3-0.9,6-3,8.2S512.1,1780.9,509,1780.9z"/>
	</g>
	<g>
		<path class="st12" d="M667.6,1780.9h-26.7c-3.1,0-6-1.3-8.1-3.5s-3.2-5.2-3-8.2c0-0.7,3.5-67.9-8.4-97.4
			c-2.3-5.7,0.5-12.2,6.2-14.5s12.1,0.5,14.5,6.2c10.5,26.1,10.9,73.3,10.4,95.2h15.2c6.1,0,11.1,5,11.1,11.1
			C678.7,1776,673.7,1780.9,667.6,1780.9z"/>
	</g>
</g>
<g>
	<path class="st9" d="M1265,1764.3c-27.8-152.9-101.4-211.5-153.8-234c-41.5-17.9-78.1-12.1-98.2-6c-52.1,17.1-138.9,70.9-169.6,240
		c-37.9,208.3,90.3,273.5,210.8,273.5S1302.9,1972.6,1265,1764.3z"/>
	<g>
		<path class="st12" d="M858.4,1992.6c-2.6,0-5.1-1.3-6.4-3.7c-32.2-56.4-0.7-96.9,0.6-98.6c2.6-3.2,7.2-3.7,10.4-1.2
			c3.2,2.6,3.7,7.2,1.2,10.4c-1.1,1.5-26.4,34.7,0.6,82.1c2,3.6,0.8,8.1-2.8,10.1C860.9,1992.2,859.7,1992.6,858.4,1992.6z"/>
	</g>
	<g>
		<path class="st12" d="M1272.5,1992.6c-4.1,0-7.4-3.3-7.4-7.4c0-28.4-21.9-87.2-22.1-87.7c-1.4-3.8,0.5-8.1,4.3-9.5
			s8.1,0.5,9.5,4.3c0.9,2.5,23.1,61.9,23.1,92.9C1279.9,1989.2,1276.6,1992.6,1272.5,1992.6z"/>
	</g>
	<g>
		<path class="st12" d="M1044.4,1823.2c-5.9,0-11.5-1.6-16.3-6.4c-4.7-4.7-4.8-8.9-4.1-11.6c2.3-8.2,14.8-11.8,17.7-12.5
			c21.1-7,36.6-0.5,43.5,7.1c3.9,4.3,5.2,9.1,3.5,12.8c-0.9,2-3.4,5.3-10.1,5.3c-5.8,0-11.8,1.4-17.6,2.7
			C1055.4,1821.9,1049.8,1823.2,1044.4,1823.2z M1059,1797.1c-4.6,0-9.7,0.8-15.2,2.6c-0.1,0-0.2,0.1-0.3,0.1
			c-4.5,1.1-11.6,4.3-12.5,7.4c-0.4,1.4,1,3.2,2.2,4.4c6.1,6.1,13.9,4.6,26.1,1.8c6.2-1.4,12.6-2.9,19.3-2.9c2,0,3.1-0.5,3.3-0.9
			c0.3-0.7-0.2-2.6-2.2-4.9C1075.7,1800.4,1068.4,1797.1,1059,1797.1z M1042.7,1796.2L1042.7,1796.2L1042.7,1796.2z"/>
	</g>
	<g>
		<ellipse class="st0" cx="1030" cy="1751.9" rx="21.9" ry="26.7"/>
		<ellipse class="st0" cx="1083" cy="1751.9" rx="21.9" ry="26.7"/>
		<ellipse class="st12" cx="1038.5" cy="1754.7" rx="13.4" ry="16.3"/>
		<ellipse class="st12" cx="1091.5" cy="1754.7" rx="13.4" ry="16.3"/>
	</g>
	<g>
		<path class="st12" d="M983,2126.7h-26.7c-6.1,0-11.1-5-11.1-11.1s5-11.1,11.1-11.1h15.2c-0.5-21.9-0.1-69.1,10.4-95.2
			c2.3-5.7,8.8-8.4,14.5-6.2c5.7,2.3,8.4,8.8,6.2,14.5c-11.9,29.5-8.5,96.8-8.4,97.4c0.2,3-0.9,6-3,8.2
			C988.9,2125.5,986,2126.7,983,2126.7z"/>
	</g>
	<g>
		<path class="st12" d="M1141.5,2126.7h-26.7c-3.1,0-6-1.3-8.1-3.5s-3.2-5.2-3-8.2c0-0.7,3.5-67.9-8.4-97.4
			c-2.3-5.7,0.5-12.2,6.2-14.5s12.2,0.5,14.5,6.2c10.5,26.1,10.9,73.3,10.4,95.2h15.2c6.1,0,11.1,5,11.1,11.1
			S1147.6,2126.7,1141.5,2126.7z"/>
	</g>
	<path class="st13" d="M1008.5,1754.6c-2.1,0-4.2-0.9-5.6-2.6c-1.4-1.6-2-3.8-1.7-5.9c2.3-16.5,14.5-28.5,28.8-28.5
		c14.4,0,26.5,12,28.8,28.5c0.3,2.1-0.3,4.3-1.7,5.9c-1.4,1.6-3.4,2.5-5.6,2.5L1008.5,1754.6L1008.5,1754.6z"/>
	<path class="st13" d="M1061.5,1754.6c-2.1,0-4.2-0.9-5.6-2.5s-2-3.8-1.7-5.9c2.3-16.5,14.4-28.5,28.8-28.5s26.5,12,28.8,28.5
		c0.3,2.1-0.3,4.3-1.7,5.9c-1.4,1.6-3.4,2.5-5.6,2.5H1061.5z"/>
</g>
<g>
	
		<image style="overflow:visible;opacity:0.4;enable-background:new    ;" width="415" height="393" xlink:href="2E181DF9.png"  transform="matrix(1 0 0 1 362 138)">
	</image>
	<g>
		<g>
			<g>
				<path class="st14" d="M562.5,505.1c-49.9,0-97-11.5-132.5-32.4c-36.6-21.6-56.8-50.7-56.8-82c0-19.4,8-38.5,23.2-55.3
					c14.3-15.7,34.8-29.4,59.5-39.5c0.8-0.3,1.7-0.5,2.6-0.5c1.4,0,2.7,0.4,3.9,1.2c1.9,1.3,3.1,3.4,3.1,5.8v16.3
					c0,2.4-1.2,4.6-3.2,5.9C439.5,338.7,427,357,427,375.9c0,19.9,13.6,38.8,38.3,53.4c25.8,15.2,60.4,23.6,97.2,23.6
					s71.3-8.4,97.2-23.6c24.7-14.6,38.3-33.5,38.3-53.4c0-18.9-12.5-37.2-35.2-51.5c-2-1.3-3.2-3.5-3.2-5.9v-16.3
					c0-2.3,1.1-4.5,3.1-5.7c1.1-0.8,2.5-1.2,3.9-1.2c0.9,0,1.8,0.2,2.6,0.5c24.6,10.1,45.2,23.7,59.5,39.5
					c15.2,16.8,23.2,35.9,23.2,55.3c0,31.3-20.2,60.4-56.8,82C659.5,493.5,612.4,505.1,562.5,505.1z"/>
				<path class="st0" d="M666.5,298.4c0.5,0,1,0.1,1.5,0.3c24.2,9.9,44.4,23.3,58.4,38.7c14.7,16.2,22.5,34.6,22.5,53.2
					c0,30.2-19.7,58.4-55.4,79.4c-35,20.7-81.6,32-131,32s-95.9-11.4-131-32c-35.7-21-55.4-49.2-55.4-79.4c0-18.6,7.8-37,22.5-53.2
					c14-15.4,34.2-28.8,58.4-38.7c0.5-0.2,1-0.3,1.5-0.3c0.8,0,1.5,0.2,2.2,0.7c1.1,0.7,1.7,2,1.7,3.3v16.3c0,1.3-0.7,2.6-1.8,3.3
					C437,336.9,424,356,424,376c0,21,14.1,40.8,39.8,56c26.3,15.5,61.4,24,98.7,24s72.4-8.5,98.7-24c25.6-15.1,39.8-35,39.8-56
					c0-20-13-39.1-36.6-54c-1.1-0.7-1.8-2-1.8-3.3v-16.3c0-1.3,0.7-2.5,1.7-3.3C665,298.6,665.7,298.4,666.5,298.4 M666.5,292.4
					c-2,0-3.9,0.6-5.5,1.7c-2.8,1.8-4.4,4.9-4.4,8.2v16.3c0,3.4,1.7,6.6,4.6,8.4c21.8,13.7,33.8,31.1,33.8,48.9
					c0,18.8-13.1,36.8-36.8,50.8c-25.4,15-59.4,23.2-95.6,23.2c-36.3,0-70.3-8.2-95.6-23.2c-23.7-14-36.8-32-36.8-50.8
					c0-17.8,12-35.2,33.8-48.9c2.9-1.8,4.6-5,4.6-8.4v-16.3c0-3.3-1.6-6.4-4.4-8.2c-1.6-1.1-3.6-1.7-5.5-1.7c-1.3,0-2.6,0.2-3.8,0.7
					c-25.1,10.3-46,24.2-60.6,40.2c-15.7,17.3-24,37.1-24,57.3c0,32.4,20.7,62.4,58.3,84.6c36,21.2,83.6,32.9,134,32.9
					c50.5,0,98.1-11.7,134-32.9c37.6-22.2,58.3-52.2,58.3-84.6c0-20.1-8.3-40-24-57.3c-14.6-16.1-35.5-30-60.6-40.2
					C669.1,292.6,667.8,292.4,666.5,292.4L666.5,292.4z"/>
			</g>
			<g>
				<g>
					<path class="st14" d="M539.9,409.3c-2.8,0-5.4-1.3-7.1-3.5c-2.5-3.2-2.5-7.7,0.1-11c3-3.8,5.8-8.1,8.8-13.4
						c2.6-4.6,4.8-9.3,6.5-13.9c3.5-9.3,5.4-18.7,5.5-27.8c0.1-4.4-0.3-8.9-1-13.5c-0.3-2-0.8-4.2-1.4-6.7v-0.2
						c-0.1-0.3-0.1-0.6-0.2-0.8l-0.3-1.3l-0.2-0.5c-0.3-1-0.7-2-1.1-3c-1.5-3.9-3.3-7.5-5.5-11c-2-3.2-4.4-6.3-7.5-9.8
						c-0.7-0.8-1.5-1.7-2.3-2.6c-1-1.1-1.8-2-2.6-2.8c-1.5-1.5-3-3.1-4.6-4.9l-1.3-1.3c-2.3-2.5-4.6-5-6.7-7.5l-0.1-0.1
						c-2-2.4-4.5-5.7-6.9-9.4c-4.7-7.2-8.2-15.6-10.1-23.8c-1.7-7.9-2.2-16.1-1.5-24.4c0.8-7.8,2.1-14.7,4.2-21.3
						c1.3-4.2,2.6-7.5,4-10.6l0.5-1.1c0.1-0.1,0.1-0.2,0.2-0.3l0.6-1.1l1.2-2.3c0.1-0.2,0.2-0.3,0.2-0.4l0.5-0.8
						c0.7-1.3,1.5-2.6,2.4-4c4.4-6.7,10.1-12.6,16.4-16.9c3.5-2.4,7.1-4.2,10.7-5.6c4.4-1.6,8.4-2.4,12.1-2.4h0.5
						c3.7,0.1,6.9,2.3,8.2,5.8c1.3,3.4,0.4,7.3-2.3,9.7c-0.7,0.7-1.5,1.5-2.2,2.4l-0.1,0.2c-0.7,0.8-1.4,1.8-2,2.7
						c-1.2,1.7-2.3,3.6-3.3,5.8c-0.9,1.8-1.6,3.8-2.3,6.1c-0.6,2-1.1,4.1-1.5,6.2v0.1c-0.4,2-0.6,4.2-0.8,6.5l-0.1,1.7v1.7
						c0,0.1,0,0.2,0,0.3c0,0.5,0,1.2,0,2c0,0.4,0,0.8,0,1.2c0,4.2,0.3,8.8,1,13.9c0.6,4.1,1.4,7.7,2.6,10.6c1.1,2.8,2.6,5.4,4.7,8.3
						l0.2,0.2c0.6,0.7,1.1,1.4,1.6,2.1c0.7,0.9,1.4,1.6,2,2.3l0.1,0.1c1.2,1.4,2.6,2.9,4.1,4.6l0.9,1c0.6,0.7,1.2,1.3,1.8,1.9
						c1.4,1.6,2.9,3.1,4.4,4.8c1,1.2,2.1,2.4,3.2,3.7l0.1,0.1c1,1.2,2.1,2.6,3.2,4.1c2,2.6,4.1,5.7,6.3,9.3l0.1,0.1
						c2.2,3.8,4,7.2,5.4,10.5c3,6.9,5.1,14.5,6.2,22.4c0.1,0.8,0.2,1.6,0.3,2.4v0.4c0.1,0.9,0.2,1.9,0.3,2.9c0,0.8,0.1,1.5,0.2,2.2
						c0.1,0.9,0.2,1.9,0.2,2.8c0.3,3.3,0.3,6.8,0.2,10.8c-0.2,7.3-1.2,14.5-2.9,21.5c-3.4,13.8-9.8,26.9-18.6,37.8
						c-4.3,5.4-9.1,10.3-14.3,14.5c-1.3,1.1-2.6,2.1-3.9,3.1c-1.2,0.9-2.6,1.8-4.2,2.9c-3.4,2.2-6.3,3.8-9.2,5.1
						C542.3,409,541.1,409.3,539.9,409.3z"/>
					<path class="st0" d="M553.5,152.6c0.1,0,0.3,0,0.4,0c2.4,0,4.6,1.6,5.4,3.8c0.9,2.3,0.2,4.8-1.5,6.4c-0.8,0.8-1.7,1.7-2.5,2.7
						l-0.1,0.1c-0.8,0.9-1.6,2-2.2,2.9c-1.3,1.8-2.4,3.9-3.6,6.3c-0.9,2-1.7,4.1-2.5,6.5c-0.7,2.2-1.2,4.4-1.5,6.6v0.1
						c-0.4,2.1-0.7,4.3-0.8,6.8l-0.1,1.8v1.7c0,0.1,0,0.1,0,0.2c0,0.7,0,1.4,0,2.2c0,0.4,0,0.8,0,1.2c0,4.3,0.4,9,1,14.3
						c0.6,4.4,1.5,8.2,2.8,11.3c1.2,3.1,2.8,5.9,5.1,9l0.2,0.3c0.5,0.7,1.1,1.4,1.7,2.2c0.8,0.9,1.4,1.7,2.1,2.4l0.1,0.1
						c1.3,1.5,2.7,3,4.2,4.7l0.9,1c0.6,0.6,1.2,1.3,1.8,1.9c1.4,1.5,2.9,3.1,4.3,4.8c1,1.2,2.1,2.4,3.2,3.7c0,0,0,0.1,0.1,0.1
						c1,1.2,2.1,2.6,3.2,4c2,2.6,4,5.5,6.2,9.1c0,0,0,0.1,0.1,0.1c2.1,3.7,3.8,7,5.2,10.2c2.9,6.7,4.9,14,6,21.7
						c0.1,0.8,0.2,1.6,0.3,2.3v0.4c0.1,0.9,0.2,1.9,0.3,2.8c0.1,0.8,0.1,1.5,0.2,2.3c0.1,0.9,0.2,1.7,0.2,2.7
						c0.3,3.2,0.3,6.7,0.2,10.5c-0.2,7.1-1.1,14.1-2.8,20.9c-3.3,13.4-9.5,26-18,36.6c-4.2,5.2-8.8,9.9-13.9,14c-1.3,1-2.5,2-3.8,3
						c-1.2,0.9-2.5,1.7-4,2.8c-3.2,2.1-6,3.6-8.8,4.8c-0.8,0.3-1.6,0.5-2.4,0.5c-1.8,0-3.5-0.8-4.7-2.3c-1.7-2.1-1.6-5.1,0-7.3
						c3.1-4,6-8.3,9.1-13.8c2.7-4.8,4.9-9.6,6.7-14.3c3.7-9.6,5.6-19.3,5.7-28.8c0.1-4.6-0.3-9.3-1-14c-0.3-2.1-0.8-4.3-1.4-6.9
						v-0.1c-0.1-0.4-0.2-0.7-0.3-1.1l-0.3-1.3c0-0.1,0-0.1-0.1-0.2s-0.1-0.3-0.2-0.4c-0.3-1-0.7-2.1-1.2-3.2
						c-1.6-4.1-3.5-7.8-5.8-11.5c-2.1-3.3-4.6-6.5-7.8-10.2c-0.7-0.8-1.5-1.7-2.4-2.6c-1-1.1-1.8-2-2.6-2.8c-1.5-1.5-3-3.1-4.6-4.8
						l-1.3-1.3c-2.3-2.4-4.5-4.9-6.6-7.4c0,0,0,0-0.1-0.1c-1.9-2.3-4.4-5.5-6.6-9.1c-4.5-6.9-7.9-15-9.7-22.9
						c-1.7-7.6-2.1-15.5-1.4-23.5c0.7-7.5,2.1-14.3,4.1-20.7c1.3-4,2.5-7.3,3.9-10.2l0.5-1.1c0-0.1,0.1-0.1,0.1-0.2l0.6-1.1l1.2-2.3
						c0-0.1,0.1-0.2,0.2-0.3l0.5-0.8c0.7-1.2,1.5-2.5,2.3-3.8c4.2-6.4,9.6-12,15.6-16.1c3.3-2.2,6.6-4,10-5.2
						C546.5,153.3,550.1,152.6,553.5,152.6 M553.5,146.6c-4.1,0-8.4,0.8-13.1,2.6c-3.9,1.4-7.7,3.4-11.4,5.9
						c-6.6,4.5-12.6,10.7-17.2,17.7c-1,1.4-1.8,2.9-2.5,4.1l-0.5,0.8c-0.1,0.2-0.2,0.4-0.3,0.5l-1.2,2.3l-0.6,1.2
						c-0.1,0.1-0.1,0.3-0.2,0.4l-0.5,1.1c-1.5,3.1-2.8,6.6-4.2,10.9c-2.1,6.8-3.6,14-4.3,21.9c-0.8,8.7-0.3,17.2,1.5,25.3
						c1.9,8.5,5.6,17.3,10.5,24.8c2.4,3.8,5,7.1,7,9.6l0.1,0.1c2.2,2.6,4.5,5.2,6.8,7.7l1.3,1.3c1.6,1.6,3.2,3.3,4.7,4.9
						c0.7,0.8,1.5,1.6,2.5,2.7c0.9,0.9,1.6,1.7,2.3,2.5c3,3.4,5.3,6.4,7.2,9.4c2.1,3.3,3.8,6.7,5.2,10.4c0,0,0,0,0,0.1
						c0.4,0.9,0.7,1.9,1.1,2.9c0,0.1,0.1,0.3,0.2,0.4l0.3,1v0.1c0.1,0.2,0.1,0.5,0.2,0.7c0,0.1,0,0.1,0.1,0.2c0.6,2.4,1,4.5,1.3,6.4
						c0.7,4.4,1,8.8,1,13c-0.1,8.8-1.9,17.8-5.3,26.8c-1.7,4.4-3.8,9-6.3,13.5c-2.9,5.1-5.6,9.3-8.6,13c-3.4,4.3-3.4,10.3-0.1,14.6
						c2.2,2.9,5.8,4.6,9.4,4.6c1.6,0,3.2-0.3,4.8-1c3.1-1.3,6.1-3,9.6-5.3c1.7-1.1,3.1-2.1,4.3-3c1.4-1,2.7-2.1,4-3.1
						c5.4-4.4,10.3-9.4,14.8-14.9c9.1-11.3,15.7-24.8,19.2-39c1.7-7.2,2.7-14.6,2.9-22.1c0.1-4,0-7.6-0.2-11.1
						c-0.1-1-0.2-1.9-0.2-2.8v-0.1c-0.1-0.7-0.1-1.3-0.2-2c-0.1-1.1-0.2-2.1-0.3-3.1v-0.4c-0.1-0.7-0.2-1.6-0.3-2.5
						c-1.1-8.2-3.3-15.9-6.4-23.2c-1.4-3.4-3.3-7-5.5-10.8c0-0.1-0.1-0.1-0.1-0.2c-2.3-3.7-4.4-6.9-6.5-9.6c-1.2-1.5-2.3-3-3.3-4.2
						c0,0-0.1-0.1-0.1-0.2c-1.1-1.3-2.2-2.6-3.3-3.8c-1.5-1.7-3-3.3-4.4-4.9l-0.1-0.1c-0.6-0.6-1.1-1.2-1.7-1.8l-0.9-1
						c-1.5-1.6-2.9-3.1-4.1-4.5c0-0.1-0.1-0.1-0.2-0.2c-0.6-0.6-1.2-1.3-1.9-2.2c-0.5-0.7-1.1-1.3-1.6-2l0,0l-0.2-0.2
						c-2-2.7-3.3-5-4.3-7.5c-1.1-2.7-1.9-6-2.4-9.9c-0.6-5-0.9-9.5-1-13.6c0-0.4,0-0.8,0-1.2c0-0.7,0-1.3,0-1.8c0-0.1,0-0.3,0-0.4
						v-1.6l0.1-1.6c0.1-2.2,0.4-4.2,0.7-6.1v-0.2c0.3-2,0.8-3.9,1.4-5.8c0.7-2.1,1.4-4,2.2-5.7c1-2.1,2-3.9,3.1-5.4
						c0.6-0.9,1.2-1.7,1.9-2.5c0.1-0.1,0.1-0.1,0.2-0.2c0.7-0.8,1.3-1.5,2-2.1c3.6-3.3,4.9-8.4,3.1-13c-1.7-4.6-6-7.6-10.9-7.7
						C553.8,146.6,553.7,146.6,553.5,146.6L553.5,146.6z"/>
				</g>
				<g>
					<path class="st14" d="M471.9,399.5c-2.6,0-5.1-1.1-6.8-3.1c-2.5-2.9-2.8-7.1-0.9-10.4c4.4-7.3,8.2-15,11.2-22.9
						c1.4-3.6,2.7-7.4,3.7-11.2c0.4-1.6,0.9-3.5,1.3-5.4v-0.1c0.4-1.7,0.7-3.4,1-5.4c1.1-7,1.2-14,0.4-20.6c-0.4-3.2-1-6.4-1.8-9.8
						l-0.2-0.8c-0.1-0.5-0.3-1-0.4-1.4l-0.4-1.5l-0.4-1.2c-0.4-1.4-1-2.8-1.5-4.3l-0.1-0.3c-1.6-3.5-2.9-6.1-4.2-8.3l-0.1-0.1
						c-0.3-0.6-0.7-1.2-1-1.7l-0.4-0.6c-0.3-0.4-0.5-0.8-0.8-1.1l-0.2-0.2c-0.8-1.1-1.6-2.2-2.4-3.3l-0.7-0.9
						c-0.3-0.4-0.6-0.8-1-1.2c-0.3-0.4-0.5-0.7-0.8-1c-0.4-0.5-0.8-1-1.2-1.5l-2.1-2.6c-0.9-1.1-1.8-2.2-2.6-3.2
						c-1.1-1.4-2-2.6-2.8-3.8c-0.8-1.2-1.8-2.6-2.7-4.2c-0.8-1.4-1.6-2.9-2.4-4.4c-0.9-1.8-1.6-3.5-2.1-4.7c-2.3-6-3.8-12.3-4.4-19
						c-0.5-5.6-0.4-11.2,0.4-17.3c0.7-5.4,1.9-10.8,3.5-16c0.9-2.8,1.8-5.3,2.8-7.8c1.2-2.9,2.4-5.4,3.7-7.8
						c1.6-2.8,4.5-4.5,7.8-4.5c0.5,0,1,0,1.5,0.1c3.7,0.6,6.6,3.6,7.3,7.3c0.1,0.4,6.4,36.1,19.8,51.6c1.8,2,3.9,4.2,6.2,6.5
						c11.3,11.4,26.7,27,31.1,61.2c0.1,0.4,0.1,0.8,0.1,1.2c0,2.1-0.1,4.1-0.3,6c-0.9,11.4-3.9,22.9-8.8,33.3
						c-4.6,9.9-10.9,19-18.7,26.9c-3.8,3.9-7.9,7.4-12.1,10.5c-1,0.7-2,1.4-3.2,2.2c-1.2,0.8-2.3,1.5-3.3,2.1
						c-1.1,0.7-2.3,1.3-3.7,2.1c-1.4,0.7-2.7,1.3-4,1.9C474.1,399.3,473,399.5,471.9,399.5z"/>
					<path class="st0" d="M463.4,189c0.3,0,0.7,0,1,0.1c2.5,0.4,4.4,2.4,4.8,4.8c0.1,0.4,6.5,36.9,20.5,53.1c1.8,2.1,4,4.3,6.3,6.7
						c11,11.1,26,26.2,30.2,59.5c0,0.3,0.1,0.5,0,0.8c0,2-0.1,3.9-0.3,5.8c-0.8,11-3.8,22.2-8.5,32.2c-4.5,9.6-10.6,18.4-18.1,26.1
						c-3.7,3.8-7.6,7.2-11.7,10.1c-1,0.7-2,1.4-3.1,2.2c-1.1,0.7-2.2,1.4-3.2,2h-0.1c-1,0.6-2.1,1.2-3.5,1.9
						c-1.3,0.7-2.5,1.2-3.7,1.7c-0.7,0.3-1.5,0.4-2.2,0.4c-1.7,0-3.3-0.7-4.5-2.1c-1.6-1.9-1.9-4.7-0.6-6.9
						c4.5-7.4,8.3-15.3,11.4-23.3c1.4-3.7,2.7-7.6,3.8-11.5c0.4-1.6,0.9-3.6,1.4-5.6v-0.1c0.4-1.7,0.7-3.5,1-5.6
						c1.1-7.3,1.2-14.5,0.4-21.4c-0.4-3.3-1-6.6-1.9-10.2c-0.1-0.3-0.2-0.6-0.3-0.9c-0.1-0.5-0.3-1-0.4-1.5l-0.4-1.4l-0.4-1.2
						c-0.5-1.5-1-2.9-1.6-4.5l-0.1-0.4c-1.7-3.7-3-6.4-4.4-8.7c0,0,0-0.1-0.1-0.1c-0.4-0.6-0.8-1.3-1.1-1.8l-0.4-0.6
						c-0.3-0.4-0.5-0.8-0.8-1.2l-0.2-0.3c-0.8-1.2-1.6-2.3-2.5-3.4c-0.2-0.3-0.4-0.6-0.7-0.8c-0.3-0.4-0.7-0.8-1-1.3
						c-0.3-0.4-0.6-0.7-0.8-1c-0.4-0.5-0.8-0.9-1.2-1.4l-2.2-2.6c-0.9-1.1-1.7-2.1-2.5-3.2c-1-1.3-1.9-2.5-2.7-3.7
						c-0.8-1.2-1.7-2.5-2.6-4c-0.8-1.3-1.6-2.8-2.3-4.3c-0.8-1.7-1.5-3.3-2-4.5c-2.2-5.7-3.6-11.8-4.2-18.1
						c-0.5-5.4-0.3-10.8,0.4-16.6c0.7-5.2,1.8-10.4,3.4-15.5c0.8-2.7,1.7-5.1,2.7-7.5c1.2-2.8,2.3-5.2,3.6-7.4
						C459.3,190.1,461.3,189,463.4,189 M463.4,183c-4.3,0-8.3,2.3-10.4,6.1c-1.4,2.5-2.6,5-3.9,8.1c-1,2.5-2,5.1-2.9,8
						c-1.7,5.4-2.9,10.9-3.6,16.5c-0.8,6.3-0.9,12.1-0.4,17.9c0.6,6.9,2.1,13.6,4.6,19.8c0.6,1.4,1.3,3.2,2.2,5
						c0.8,1.6,1.6,3.2,2.5,4.6c0.9,1.6,2,3.1,2.8,4.3c0.9,1.3,1.8,2.6,2.9,4c0.8,1.1,1.7,2.2,2.6,3.3l2.2,2.6c0.4,0.5,0.8,1,1.2,1.5
						l0.1,0.1c0.2,0.3,0.5,0.5,0.7,0.9l0,0c0.3,0.4,0.6,0.8,0.9,1.1l0,0v0.1c0.2,0.3,0.4,0.5,0.7,0.8c0.8,1,1.5,2,2.3,3.1l0.2,0.3
						c0.2,0.3,0.4,0.6,0.6,0.9l0.1,0.1l0.4,0.6c0.3,0.4,0.6,1,0.9,1.5l0.1,0.2c1.2,2.1,2.4,4.5,4,7.9l0.1,0.2
						c0.5,1.5,1.1,2.9,1.5,4.2l0.4,1.2c0.1,0.3,0.4,1.4,0.4,1.5c0.1,0.3,0.2,0.8,0.3,1.2c0.1,0.3,0.2,0.6,0.2,0.9
						c0.8,3.3,1.4,6.3,1.7,9.3c0.8,6.4,0.6,13.1-0.4,19.8c-0.3,1.9-0.6,3.6-0.9,5.2v0.2c-0.4,1.8-0.8,3.6-1.3,5.2
						c-1,3.7-2.2,7.4-3.6,10.9c-3,7.7-6.7,15.2-11,22.4c-2.6,4.4-2.2,10,1.2,13.9c2.3,2.6,5.6,4.2,9,4.2c1.5,0,3-0.3,4.5-0.9
						c1.4-0.6,2.8-1.2,4.3-2c1.4-0.7,2.6-1.4,3.8-2.1l0,0c1.1-0.7,2.3-1.4,3.5-2.2c1.2-0.8,2.3-1.6,3.3-2.3
						c4.3-3.1,8.5-6.8,12.5-10.8c8-8.2,14.5-17.5,19.3-27.8c5-10.7,8.1-22.5,9-34.3c0.2-1.9,0.3-4,0.3-6.2c0-0.6,0-1.1-0.1-1.7
						c-4.5-35.3-21-51.9-31.9-62.9c-2.2-2.3-4.4-4.4-6-6.4c-10.6-12.4-17.4-40.4-19.1-50.2c-0.9-4.9-4.7-8.8-9.7-9.7
						C464.7,183,464.1,183,463.4,183L463.4,183z"/>
				</g>
				<g>
					<path class="st14" d="M601.5,399.5c-2.6,0-5.1-1.1-6.8-3.1c-2.5-2.9-2.8-7.1-0.9-10.4c4.4-7.3,8.2-15,11.2-22.9
						c1.4-3.6,2.7-7.4,3.7-11.2c0.4-1.5,0.9-3.5,1.3-5.4v-0.1c0.4-1.7,0.7-3.5,1-5.4c1.1-7,1.2-14,0.4-20.6c-0.4-3.2-1-6.4-1.8-9.8
						l-0.3-0.9c-0.1-0.5-0.2-0.9-0.4-1.3c0-0.1-0.4-1.5-0.4-1.5l-0.4-1.2c-0.4-1.4-1-2.8-1.5-4.3l-0.1-0.3c-1.6-3.6-2.9-6.1-4.2-8.3
						l-0.1-0.1c-0.3-0.6-0.7-1.2-1-1.7l-0.4-0.6c-0.3-0.4-0.5-0.8-0.8-1.1l-0.2-0.2c-0.8-1.1-1.6-2.2-2.4-3.3l-0.7-0.9
						c-0.3-0.4-0.6-0.8-1-1.2c-0.3-0.3-0.5-0.6-0.8-0.9c-0.4-0.5-0.8-1-1.2-1.5l-2.1-2.6c-0.9-1.1-1.8-2.2-2.6-3.2
						c-1-1.4-2-2.6-2.8-3.8c-0.8-1.3-1.8-2.6-2.7-4.2c-0.8-1.4-1.6-2.9-2.4-4.4c-0.9-1.8-1.6-3.5-2.1-4.7c-2.3-6-3.8-12.3-4.4-19
						c-0.5-5.6-0.4-11.2,0.4-17.3c0.7-5.4,1.9-10.7,3.5-16c0.9-2.8,1.8-5.3,2.8-7.8c1.2-2.9,2.4-5.4,3.7-7.8
						c1.6-2.8,4.5-4.5,7.8-4.5c0.5,0,1,0,1.5,0.1c3.7,0.6,6.6,3.6,7.3,7.3c0.1,0.4,6.4,36.1,19.8,51.6c1.8,2,3.9,4.2,6.2,6.5
						c11.3,11.4,26.7,27,31.1,61.2c0.1,0.4,0.1,0.8,0.1,1.3c0,2.1-0.1,4.1-0.3,6c-0.9,11.4-3.9,22.9-8.8,33.3
						c-4.6,9.9-10.9,19-18.7,26.9c-3.8,3.9-7.9,7.4-12.1,10.5c-1,0.7-2,1.4-3.2,2.2c-1.2,0.8-2.3,1.5-3.4,2.1
						c-1.1,0.7-2.3,1.3-3.7,2.1c-1.4,0.7-2.7,1.3-4,1.9C603.7,399.3,602.6,399.5,601.5,399.5z"/>
					<path class="st0" d="M593,189c0.3,0,0.7,0,1,0.1c2.5,0.4,4.4,2.4,4.8,4.8c0.1,0.4,6.5,36.9,20.5,53.1c1.8,2.1,4,4.3,6.3,6.7
						c11,11.1,26,26.2,30.2,59.5c0,0.3,0.1,0.5,0,0.8c0,2-0.1,3.9-0.3,5.8c-0.8,11-3.8,22.2-8.5,32.2c-4.5,9.6-10.6,18.4-18.1,26.1
						c-3.7,3.8-7.6,7.2-11.7,10.1c-1,0.7-2,1.4-3.1,2.2c-1.1,0.7-2.2,1.4-3.2,2h-0.1c-1,0.6-2.1,1.2-3.5,1.9
						c-1.3,0.7-2.5,1.2-3.7,1.7c-0.7,0.3-1.5,0.4-2.2,0.4c-1.7,0-3.3-0.7-4.5-2.1c-1.6-1.9-1.9-4.7-0.6-6.9
						c4.5-7.4,8.3-15.3,11.4-23.3c1.4-3.7,2.7-7.6,3.8-11.5c0.4-1.6,0.9-3.6,1.4-5.6v-0.1c0.4-1.7,0.7-3.5,1-5.6
						c1.1-7.3,1.2-14.5,0.4-21.4c-0.4-3.3-1-6.6-1.9-10.2c-0.1-0.3-0.2-0.6-0.3-0.9c-0.1-0.5-0.3-1-0.4-1.5l-0.4-1.4l-0.4-1.2
						c-0.5-1.5-1-2.9-1.6-4.5l-0.1-0.4c-1.7-3.7-3-6.4-4.4-8.7c0,0,0-0.1-0.1-0.1c-0.4-0.6-0.8-1.3-1.1-1.8l-0.4-0.6
						c-0.3-0.4-0.5-0.8-0.8-1.2l-0.2-0.3c-0.8-1.2-1.6-2.3-2.5-3.4c-0.2-0.3-0.4-0.6-0.7-0.8c-0.3-0.4-0.7-0.8-1-1.3
						c-0.3-0.4-0.6-0.7-0.8-1c-0.4-0.5-0.8-0.9-1.2-1.4l-2.2-2.6c-0.9-1.1-1.7-2.1-2.5-3.2c-1-1.3-1.9-2.5-2.7-3.7s-1.7-2.5-2.6-4
						c-0.8-1.3-1.6-2.8-2.3-4.3c-0.8-1.7-1.5-3.3-2-4.5c-2.2-5.7-3.6-11.8-4.2-18.1c-0.5-5.4-0.3-10.8,0.4-16.6
						c0.7-5.2,1.8-10.4,3.4-15.5c0.8-2.7,1.7-5.1,2.7-7.5c1.2-2.8,2.3-5.2,3.6-7.4C588.9,190.1,590.9,189,593,189 M593,183
						c-4.3,0-8.3,2.3-10.4,6.1c-1.4,2.5-2.6,5-3.9,8.1c-1,2.5-2,5.1-2.9,8c-1.7,5.4-2.9,10.9-3.6,16.5c-0.8,6.3-0.9,12.1-0.4,17.9
						c0.6,6.9,2.1,13.6,4.6,19.8c0.6,1.4,1.3,3.2,2.2,5c0.8,1.6,1.6,3.2,2.5,4.6c1,1.6,2,3.1,2.8,4.3c0.9,1.3,1.8,2.6,2.9,4
						c0.8,1,1.7,2.2,2.6,3.3l2.2,2.6c0.4,0.5,0.8,1,1.2,1.5l0.1,0.1c0.2,0.3,0.5,0.6,0.7,0.9l0,0c0.3,0.4,0.6,0.8,0.9,1.1
						c0.3,0.3,0.5,0.6,0.7,0.9c0.8,1,1.5,2,2.3,3.1l0.2,0.3c0.2,0.3,0.4,0.6,0.6,0.9l0.1,0.1l0.4,0.6c0.3,0.4,0.6,1,0.9,1.5l0.1,0.2
						c1.2,2,2.4,4.5,4,7.9l0.1,0.2c0.5,1.5,1.1,2.9,1.5,4.2l0.4,1.2c0.1,0.3,0.4,1.4,0.4,1.5c0.1,0.3,0.2,0.8,0.3,1.2
						c0.1,0.3,0.2,0.6,0.2,0.9c0.8,3.3,1.4,6.3,1.7,9.3c0.8,6.4,0.6,13.1-0.4,19.8c-0.3,1.9-0.6,3.6-0.9,5.1c0,0.1,0,0.1,0,0.2
						c-0.4,1.8-0.8,3.6-1.3,5.2c-1,3.7-2.2,7.4-3.6,10.9c-3,7.7-6.7,15.2-11,22.4c-2.6,4.4-2.2,10,1.2,13.9c2.3,2.6,5.6,4.2,9,4.2
						c1.5,0,3-0.3,4.5-0.9c1.4-0.6,2.8-1.2,4.3-2c1.4-0.7,2.7-1.4,3.8-2.1l0,0c1.1-0.6,2.3-1.4,3.5-2.2c1.2-0.8,2.3-1.6,3.3-2.3
						c4.3-3.1,8.5-6.8,12.5-10.8c8-8.2,14.5-17.5,19.3-27.8c5-10.7,8.1-22.5,9-34.3c0.2-1.9,0.3-4,0.3-6.2c0-0.6,0-1.1-0.1-1.7
						c-4.5-35.3-21-51.9-31.9-63c-2.2-2.3-4.4-4.4-6-6.4c-10.6-12.4-17.4-40.4-19.1-50.2c-0.9-4.9-4.7-8.8-9.7-9.7
						C594.3,183,593.6,183,593,183L593,183z"/>
				</g>
			</g>
		</g>
	</g>
</g>
<g>
	<g>
		<path class="st5" d="M399.4,708.5c-8.3,0-15-6.7-15-15V545.8c0-8.3,6.7-15,15-15h64c8.3,0,15,6.7,15,15v29.6
			c0,6.7-4.4,12.4-10.5,14.3c5.2,2.3,8.9,7.6,8.9,13.7v28.1c0,8.3-6.7,15-15,15h-9v2.5H466c8.3,0,15,6.7,15,15v29.6
			c0,8.3-6.7,15-15,15L399.4,708.5L399.4,708.5z"/>
		<path class="st5" d="M539.6,711.6c-9,0-17.6-2.2-25.4-6.6c-7.8-4.3-13.9-10-18.2-16.7c-4-6.4-6.6-13.3-7.6-20.4
			c-0.8-5.8-1.2-14-1.2-25V599c0-15.4,0.9-26.6,2.7-34.2c2.4-9.9,8.7-18.7,18.8-26.2c9.8-7.2,22.2-10.9,36.9-10.9
			c14,0,26.1,3.1,35.9,9.2c10.3,6.4,17.3,14.6,20.7,24.2c2.9,8.1,4.2,18.7,4.2,32.7v6.4c0,2.5-0.6,4.9-1.7,7c1.1,2.1,1.7,4.5,1.7,7
			v79.3c0,8.3-6.7,15-15,15h-24.1c-2.5,0-4.9-0.6-7-1.7C554.1,710,547.2,711.6,539.6,711.6z"/>
		<path class="st5" d="M668.8,711.6c-9,0-17.6-2.2-25.4-6.6c-7.8-4.3-13.9-10-18.2-16.7c-4-6.4-6.6-13.3-7.6-20.4
			c-0.8-5.8-1.2-14-1.2-25V599c0-15.4,0.9-26.6,2.7-34.2c2.4-9.9,8.7-18.7,18.8-26.2c9.8-7.2,22.2-10.9,36.9-10.9
			c14,0,26.1,3.1,35.9,9.2c10.3,6.4,17.3,14.6,20.7,24.2c2.9,8.1,4.2,18.7,4.2,32.7v6.4c0,2.5-0.6,4.9-1.7,7c1.1,2.1,1.7,4.5,1.7,7
			v79.3c0,8.3-6.7,15-15,15h-24.1c-2.5,0-4.9-0.6-7-1.7C683.3,710,676.4,711.6,668.8,711.6z"/>
		<path class="st5" d="M442.8,912.7c-12.7,0-24-2.6-33.4-7.6c-10.5-5.6-17.7-13.3-21.2-22.8c-2.9-7.8-4.3-17.9-4.3-30.9v-9.7
			c0-7.8,6-14.2,13.6-14.9c-4.4-4.3-7.9-9.8-10.6-16.5c-2.8-6.9-4.1-15.1-4.1-25c0-14,2-24.5,6.2-32.1c4.5-8.1,11.5-14.4,20.9-18.7
			c8.4-3.8,18.3-5.8,29.6-5.8c12.1,0,22.8,2.1,31.8,6.2c10.3,4.7,17.5,11.3,21.3,19.5c3.3,7.1,4.8,17,4.8,31.3v5.8
			c0,8.3-6.7,15-15,15h-0.6c4.1,3.6,7.2,7,9.5,10.3c6.2,9.1,9.3,22.2,9.3,39.9c0,13-1.7,22.8-5.2,29.9c-4,8-11.1,14.6-21.3,19.4
			C464.9,910.5,454.4,912.7,442.8,912.7z"/>
		<path class="st5" d="M523.7,909.6c-8.3,0-15-6.7-15-15V746.9c0-8.3,6.7-15,15-15h38.7c12,0,21.3,1,28.3,3.1
			c8.3,2.4,14.9,6.3,19.6,11.4c4.6,5,7.7,11.1,9.3,18c1.3,5.6,1.9,13.3,1.9,23.8v12.9c0,11.8-1.3,20.4-4.2,26.8
			c-3.5,7.7-9.8,13.7-18.3,17.5c-6.1,2.7-13.3,4.3-21.8,4.7v44.6c0,8.3-6.7,15-15,15h-38.5V909.6z"/>
		<path class="st5" d="M688.1,909.6c-3.4,0-6.5-1.1-9.1-3c-2.5,1.9-5.7,3-9.1,3h-39.7c-4.3,0-8.4-1.9-11.3-5.1
			c-2.8-3.3-4.2-7.6-3.6-11.9L635,745c1-7.5,7.3-13,14.9-13h55.5c7.4,0,13.7,5.4,14.8,12.8l22,147.7c0.6,4.3-0.6,8.7-3.5,12
			c-2.8,3.3-7,5.2-11.4,5.2h-39.2V909.6z"/>
	</g>
	<g>
		<linearGradient id="SVGID_1_" gradientUnits="userSpaceOnUse" x1="546.7501" y1="696.5999" x2="546.7501" y2="542.7">
			<stop  offset="0" style="stop-color:#FFFFFF"/>
			<stop  offset="1" style="stop-color:#C4C4C4"/>
		</linearGradient>
		<path class="st15" d="M591.3,600.2h-38.4v-13.4c0-8.5-0.4-13.7-1.1-15.9c-0.7-2.1-2.5-3.2-5.2-3.2c-2.4,0-4,0.9-4.8,2.7
			c-0.9,1.8-1.3,6.5-1.3,14.1v70.9c0,6.6,0.4,11,1.3,13.1c0.9,2.1,2.6,3.1,5.1,3.1c2.8,0,4.7-1.2,5.7-3.6c1-2.4,1.5-7,1.5-13.9
			v-17.5h-7.8v-22.4h45v79.3h-24.1l-3.6-10.6c-2.6,4.6-5.9,8-9.9,10.3s-8.7,3.4-14.1,3.4c-6.5,0-12.5-1.6-18.1-4.7
			c-5.6-3.1-9.9-7-12.8-11.6s-4.7-9.5-5.5-14.6c-0.7-5.1-1.1-12.7-1.1-22.9V599c0-14.1,0.8-24.4,2.3-30.7
			c1.5-6.4,5.9-12.2,13.1-17.6c7.2-5.3,16.5-8,28-8c11.3,0,20.6,2.3,28,6.9c7.4,4.6,12.3,10.1,14.5,16.5c2.3,6.4,3.4,15.6,3.4,27.7
			v6.4L591.3,600.2L591.3,600.2z"/>
		<linearGradient id="SVGID_2_" gradientUnits="userSpaceOnUse" x1="675.9501" y1="696.5999" x2="675.9501" y2="542.7">
			<stop  offset="0" style="stop-color:#FFFFFF"/>
			<stop  offset="1" style="stop-color:#C4C4C4"/>
		</linearGradient>
		<path class="st16" d="M720.5,600.2h-38.4v-13.4c0-8.5-0.4-13.7-1.1-15.9c-0.7-2.1-2.5-3.2-5.2-3.2c-2.4,0-4,0.9-4.8,2.7
			c-0.9,1.8-1.3,6.5-1.3,14.1v70.9c0,6.6,0.4,11,1.3,13.1c0.9,2.1,2.6,3.1,5.1,3.1c2.8,0,4.7-1.2,5.7-3.6c1-2.4,1.5-7,1.5-13.9
			v-17.5h-7.8v-22.4h45v79.3h-24.1l-3.6-10.6c-2.6,4.6-5.9,8-9.9,10.3s-8.7,3.4-14.1,3.4c-6.5,0-12.5-1.6-18.1-4.7
			c-5.6-3.1-9.9-7-12.8-11.6c-2.9-4.6-4.7-9.5-5.5-14.6c-0.7-5.1-1.1-12.7-1.1-22.9V599c0-14.1,0.8-24.4,2.3-30.7
			c1.5-6.4,5.9-12.2,13.1-17.6c7.2-5.3,16.5-8,28-8c11.3,0,20.6,2.3,28,6.9c7.4,4.6,12.3,10.1,14.5,16.5c2.3,6.4,3.4,15.6,3.4,27.7
			v6.4L720.5,600.2L720.5,600.2z"/>
		<linearGradient id="SVGID_3_" gradientUnits="userSpaceOnUse" x1="441.55" y1="897.6999" x2="441.55" y2="743.8999">
			<stop  offset="0" style="stop-color:#FFFFFF"/>
			<stop  offset="1" style="stop-color:#C4C4C4"/>
		</linearGradient>
		<path class="st17" d="M482.3,791.6h-35.7v-10.9c0-5.1-0.5-8.4-1.4-9.8c-0.9-1.4-2.4-2.1-4.6-2.1c-2.3,0-4.1,0.9-5.2,2.8
			c-1.2,1.9-1.8,4.7-1.8,8.6c0,4.9,0.7,8.6,2,11.1s4.9,5.5,10.9,9c17.1,10.1,27.9,18.5,32.3,25s6.7,17,6.7,31.5
			c0,10.5-1.2,18.3-3.7,23.3s-7.2,9.2-14.3,12.5c-7.1,3.4-15.3,5.1-24.6,5.1c-10.3,0-19.1-1.9-26.3-5.8c-7.3-3.9-12-8.9-14.3-14.9
			s-3.4-14.6-3.4-25.6v-9.7h35.7v18c0,5.5,0.5,9.1,1.5,10.7c1,1.6,2.8,2.4,5.3,2.4c2.6,0,4.5-1,5.7-3s1.9-5,1.9-8.9
			c0-8.7-1.2-14.4-3.6-17.1c-2.4-2.7-8.4-7.1-18-13.4c-9.5-6.3-15.9-10.9-19-13.8c-3.1-2.9-5.7-6.8-7.7-11.9c-2-5-3.1-11.5-3.1-19.3
			c0-11.3,1.4-19.6,4.3-24.8s7.6-9.3,14-12.3c6.4-2.9,14.2-4.4,23.4-4.4c10,0,18.5,1.6,25.5,4.8s11.7,7.3,14,12.2s3.4,13.2,3.4,25
			v5.7L482.3,791.6L482.3,791.6z"/>
		<linearGradient id="SVGID_4_" gradientUnits="userSpaceOnUse" x1="565.05" y1="894.7" x2="565.05" y2="746.9">
			<stop  offset="0" style="stop-color:#FFFFFF"/>
			<stop  offset="1" style="stop-color:#C4C4C4"/>
		</linearGradient>
		<path class="st18" d="M523.7,746.9h38.7c10.5,0,18.5,0.8,24.1,2.5c5.6,1.6,9.9,4,12.7,7.1s4.7,6.9,5.7,11.3
			c1,4.4,1.5,11.2,1.5,20.5v12.9c0,9.4-1,16.3-2.9,20.6s-5.5,7.6-10.7,9.9c-5.2,2.3-12,3.5-20.4,3.5h-10.3v59.5h-38.4L523.7,746.9
			L523.7,746.9z M562.1,772.2v37.6c1.1,0.1,2,0.1,2.8,0.1c3.5,0,6-0.9,7.3-2.6s2.1-5.3,2.1-10.8v-12.1c0-5-0.8-8.3-2.4-9.9
			C570.3,773,567.1,772.2,562.1,772.2z"/>
		<linearGradient id="SVGID_5_" gradientUnits="userSpaceOnUse" x1="678.75" y1="894.6" x2="678.75" y2="746.9">
			<stop  offset="0" style="stop-color:#FFFFFF"/>
			<stop  offset="1" style="stop-color:#C4C4C4"/>
		</linearGradient>
		<path class="st19" d="M705.3,746.9l22,147.7H688l-2.1-26.5h-13.7l-2.3,26.5h-39.7l19.6-147.7H705.3z M685,841.9
			c-1.9-16.7-3.9-37.4-5.8-62c-3.9,28.3-6.4,49-7.4,62H685z"/>
		<linearGradient id="SVGID_6_" gradientUnits="userSpaceOnUse" x1="432.7" y1="693.6" x2="432.7" y2="545.8">
			<stop  offset="0" style="stop-color:#FFFFFF"/>
			<stop  offset="1" style="stop-color:#C4C4C4"/>
		</linearGradient>
		<path class="st20" d="M399.4,545.8h64v29.6h-25.6v28h24v28.1h-24V664H466v29.6h-66.6V545.8z"/>
	</g>
</g>
</svg>
