<?xml version="1.0" encoding="utf-8"?>
<!-- Generator: Adobe Illustrator 23.1.0, SVG Export Plug-In . SVG Version: 6.00 Build 0)  -->
<svg version="1.1" id="Layer_1" xmlns="http://www.w3.org/2000/svg" xmlns:xlink="http://www.w3.org/1999/xlink" x="0px" y="0px"
	 viewBox="0 0 227 117" style="enable-background:new 0 0 227 117;" xml:space="preserve">
<style type="text/css">
	.st0{opacity:0.25;fill:#005C63;}
	.st1{fill:#FFF5C4;}
	.st2{fill-rule:evenodd;clip-rule:evenodd;fill:#F1E5A4;}
</style>
<ellipse class="st0" cx="113.5" cy="81.5" rx="110" ry="35.5"/>
<g>
	<path class="st1" d="M33.5,79.5h37c3.9,0,7,3.1,7,7l0,0c0,3.9-3.1,7-7,7h-37c-3.9,0-7-3.1-7-7l0,0C26.5,82.6,29.6,79.5,33.5,79.5z"
		/>
	<path class="st1" d="M156.5,79.5h37c3.9,0,7,3.1,7,7l0,0c0,3.9-3.1,7-7,7h-37c-3.9,0-7-3.1-7-7l0,0
		C149.5,82.6,152.6,79.5,156.5,79.5z"/>
	<path class="st2" d="M26.5,22.5c0-5.5,4.5-10,10-10h154c5.5,0,10,4.5,10,10v47c0,0.3,0,0.7,0,1c0,0.3,0,0.7,0,1v9
		c0,5.5-4.5,10-10,10h-31c-5.5,0-10-4.5-10-10v-1h-72v1c0,5.5-4.5,10-10,10h-31c-5.5,0-10-4.5-10-10v-9c0-0.3,0-0.7,0-1
		c0-0.3,0-0.7,0-1V22.5z"/>
	<path class="st1" d="M46,3.5h135c10.8,0,19.5,8.7,19.5,19.5l0,0c0,10.8-8.7,19.5-19.5,19.5H46c-10.8,0-19.5-8.7-19.5-19.5l0,0
		C26.5,12.2,35.2,3.5,46,3.5z"/>
</g>
</svg>
