<?xml version="1.0" encoding="utf-8"?>
<!-- Generator: Adobe Illustrator 23.1.0, SVG Export Plug-In . SVG Version: 6.00 Build 0)  -->
<svg version="1.1" id="Layer_1" xmlns="http://www.w3.org/2000/svg" xmlns:xlink="http://www.w3.org/1999/xlink" x="0px" y="0px"
	 viewBox="0 0 1132.9 1151.4" style="enable-background:new 0 0 1132.9 1151.4;" xml:space="preserve">
<style type="text/css">
	.st0{opacity:0.7;fill:#CAFDFF;enable-background:new    ;}
	.st1{fill:#1A6872;}
	.st2{fill:#277B82;}
	.st3{fill:#258C93;}
	.st4{opacity:0.25;fill:#005C63;enable-background:new    ;}
	.st5{fill:#005C63;}
</style>
<g>
	<path class="st0" d="M1132.9,0H0v615.5h1132.9V0z"/>
	<path class="st1" d="M1132.9,974.1H0v177.3h1132.9V974.1z"/>
	<path class="st2" d="M1132.9,930.8H0v43.3h1132.9V930.8z"/>
	<path class="st1" d="M1132.9,974.1H0v15.1h1132.9V974.1z"/>
	<path class="st3" d="M253.3,1006.3H0v144h253.3V1006.3z"/>
	<path class="st3" d="M556.4,1006.3h-283v144h283V1006.3z"/>
	<path class="st3" d="M859.5,1006.3h-283v144h283V1006.3z"/>
	<path class="st3" d="M1132.9,1006.3H879.6v144h253.3V1006.3z"/>
	<path class="st4" d="M1132.9,974.1H0v60.4h1132.9V974.1z"/>
	<path class="st5" d="M1132.9,658.8H0v272h1132.9V658.8z"/>
	<path class="st1" d="M1132.9,615.5H0v43.3h1132.9V615.5z"/>
	<path class="st1" d="M1132.9,658.8H0v15.1h1132.9V658.8z"/>
	<path class="st1" d="M253.3,692.1H0v238.7h253.3V692.1z"/>
	<path class="st1" d="M556.4,692.1h-283v238.7h283V692.1z"/>
	<path class="st1" d="M859.5,692.1h-283v238.7h283V692.1z"/>
	<path class="st1" d="M1132.9,692.1H879.6v238.7h253.3V692.1z"/>
	<path class="st4" d="M1132.9,658.8H0v60.4h1132.9V658.8z"/>
</g>
</svg>
