<?xml version="1.0" encoding="utf-8"?>
<!-- Generator: Adobe Illustrator 23.1.0, SVG Export Plug-In . SVG Version: 6.00 Build 0)  -->
<svg version="1.1" id="Layer_1" xmlns="http://www.w3.org/2000/svg" xmlns:xlink="http://www.w3.org/1999/xlink" x="0px" y="0px"
	 viewBox="0 0 1125 2436" style="enable-background:new 0 0 1125 2436;" xml:space="preserve">
<style type="text/css">
	.st0{fill:#EDEDED;}
	.st1{fill:#005C63;}
	.st2{fill:#1A6872;}
	.st3{fill:#004042;}
	.st4{opacity:0.25;fill:#005C63;enable-background:new    ;}
	.st5{fill:#0E4A4B;}
</style>
<g>
	<g>
		<path class="st0" d="M133.4,0H0v133.5h133.5L133.4,0L133.4,0z"/>
		<path class="st0" d="M275.1,0H141.6v133.5h133.5V0z"/>
		<path class="st0" d="M416.8,0H283.3v133.5h133.5V0z"/>
		<path class="st0" d="M558.3,0H424.9v133.5h133.5L558.3,0L558.3,0z"/>
		<path class="st0" d="M700,0H566.6v133.5h133.5L700,0L700,0z"/>
		<path class="st0" d="M841.7,0H708.2v133.5h133.5V0z"/>
		<path class="st0" d="M983.4,0H849.9v133.5h133.5V0z"/>
		<path class="st0" d="M1124.9,0H991.5v133.5H1125L1124.9,0L1124.9,0z"/>
	</g>
	<g>
		<path class="st0" d="M133.4,141.9H0v133.5h133.5L133.4,141.9L133.4,141.9z"/>
		<path class="st0" d="M275.1,141.9H141.6v133.5h133.5V141.9z"/>
		<path class="st0" d="M416.8,141.9H283.3v133.5h133.5V141.9z"/>
		<path class="st0" d="M558.3,141.9H424.9v133.5h133.5L558.3,141.9L558.3,141.9z"/>
		<path class="st0" d="M700,141.9H566.6v133.5h133.5L700,141.9L700,141.9z"/>
		<path class="st0" d="M841.7,141.9H708.2v133.5h133.5V141.9z"/>
		<path class="st0" d="M983.4,141.9H849.9v133.5h133.5V141.9z"/>
		<path class="st0" d="M1124.9,141.9H991.5v133.5H1125L1124.9,141.9L1124.9,141.9z"/>
	</g>
	<g>
		<path class="st0" d="M133.4,283.8H0v133.5h133.5L133.4,283.8L133.4,283.8z"/>
		<path class="st0" d="M275.1,283.8H141.6v133.5h133.5V283.8z"/>
		<path class="st0" d="M416.8,283.8H283.3v133.5h133.5V283.8z"/>
		<path class="st0" d="M558.3,283.8H424.9v133.5h133.5L558.3,283.8L558.3,283.8z"/>
		<path class="st0" d="M700,283.8H566.6v133.5h133.5L700,283.8L700,283.8z"/>
		<path class="st0" d="M841.7,283.8H708.2v133.5h133.5V283.8z"/>
		<path class="st0" d="M983.4,283.8H849.9v133.5h133.5V283.8z"/>
		<path class="st0" d="M1124.9,283.8H991.5v133.5H1125L1124.9,283.8L1124.9,283.8z"/>
	</g>
	<g>
		<path class="st0" d="M133.4,425.7H0v133.5h133.5L133.4,425.7L133.4,425.7z"/>
		<path class="st0" d="M275.1,425.7H141.6v133.5h133.5V425.7z"/>
		<path class="st0" d="M416.8,425.7H283.3v133.5h133.5V425.7z"/>
		<path class="st0" d="M558.3,425.7H424.9v133.5h133.5L558.3,425.7L558.3,425.7z"/>
		<path class="st0" d="M700,425.7H566.6v133.5h133.5L700,425.7L700,425.7z"/>
		<path class="st0" d="M841.7,425.7H708.2v133.5h133.5V425.7z"/>
		<path class="st0" d="M983.4,425.7H849.9v133.5h133.5V425.7z"/>
		<path class="st0" d="M1124.9,425.7H991.5v133.5H1125L1124.9,425.7L1124.9,425.7z"/>
	</g>
	<g>
		<path class="st0" d="M133.4,567.6H0v133.5h133.5L133.4,567.6L133.4,567.6z"/>
		<path class="st0" d="M275.1,567.6H141.6v133.5h133.5V567.6z"/>
		<path class="st0" d="M416.8,567.6H283.3v133.5h133.5V567.6z"/>
		<path class="st0" d="M558.3,567.6H424.9v133.5h133.5L558.3,567.6L558.3,567.6z"/>
		<path class="st0" d="M700,567.6H566.6v133.5h133.5L700,567.6L700,567.6z"/>
		<path class="st0" d="M841.7,567.6H708.2v133.5h133.5V567.6z"/>
		<path class="st0" d="M983.4,567.6H849.9v133.5h133.5V567.6z"/>
		<path class="st0" d="M1124.9,567.6H991.5v133.5H1125L1124.9,567.6L1124.9,567.6z"/>
	</g>
	<g>
		<path class="st0" d="M133.4,709.5H0V843h133.5L133.4,709.5L133.4,709.5z"/>
		<path class="st0" d="M275.1,709.5H141.6V843h133.5V709.5z"/>
		<path class="st0" d="M416.8,709.5H283.3V843h133.5V709.5z"/>
		<path class="st0" d="M558.3,709.5H424.9V843h133.5L558.3,709.5L558.3,709.5z"/>
		<path class="st0" d="M700,709.5H566.6V843h133.5L700,709.5L700,709.5z"/>
		<path class="st0" d="M841.7,709.5H708.2V843h133.5V709.5z"/>
		<path class="st0" d="M983.4,709.5H849.9V843h133.5V709.5z"/>
		<path class="st0" d="M1124.9,709.5H991.5V843H1125L1124.9,709.5L1124.9,709.5z"/>
	</g>
	<g>
		<path class="st0" d="M133.4,851.4H0v133.5h133.5L133.4,851.4L133.4,851.4z"/>
		<path class="st0" d="M275.1,851.4H141.6v133.5h133.5V851.4z"/>
		<path class="st0" d="M416.8,851.4H283.3v133.5h133.5V851.4z"/>
		<path class="st0" d="M558.3,851.4H424.9v133.5h133.5L558.3,851.4L558.3,851.4z"/>
		<path class="st0" d="M700,851.4H566.6v133.5h133.5L700,851.4L700,851.4z"/>
		<path class="st0" d="M841.7,851.4H708.2v133.5h133.5V851.4z"/>
		<path class="st0" d="M983.4,851.4H849.9v133.5h133.5V851.4z"/>
		<path class="st0" d="M1124.9,851.4H991.5v133.5H1125L1124.9,851.4L1124.9,851.4z"/>
	</g>
	<g>
		<path class="st0" d="M133.4,993.3H0v133.5h133.5L133.4,993.3L133.4,993.3z"/>
		<path class="st0" d="M275.1,993.3H141.6v133.5h133.5V993.3z"/>
		<path class="st0" d="M416.8,993.3H283.3v133.5h133.5V993.3z"/>
		<path class="st0" d="M558.3,993.3H424.9v133.5h133.5L558.3,993.3L558.3,993.3z"/>
		<path class="st0" d="M700,993.3H566.6v133.5h133.5L700,993.3L700,993.3z"/>
		<path class="st0" d="M841.7,993.3H708.2v133.5h133.5V993.3z"/>
		<path class="st0" d="M983.4,993.3H849.9v133.5h133.5V993.3z"/>
		<path class="st0" d="M1124.9,993.3H991.5v133.5H1125L1124.9,993.3L1124.9,993.3z"/>
	</g>
</g>
<g>
	<path class="st1" d="M1125.7,1084.2H-0.7V1592h1126.4L1125.7,1084.2L1125.7,1084.2z"/>
	<path class="st2" d="M1125.7,1041.1H-0.7v43.1h1126.4L1125.7,1041.1L1125.7,1041.1z"/>
	<path class="st2" d="M1125.7,1084.2H-0.7v15h1126.4L1125.7,1084.2L1125.7,1084.2z"/>
	<path class="st3" d="M1125.7,1592H-0.7v863.5h1126.4L1125.7,1592L1125.7,1592z"/>
	<path class="st2" d="M251.1,1116.2H-0.7v281.4h251.8V1116.2z"/>
	<path class="st2" d="M552.5,1116.2H271.1v281.4h281.4V1116.2z"/>
	<path class="st2" d="M853.9,1116.2H572.5v281.4h281.4V1116.2z"/>
	<path class="st2" d="M1125.7,1116.2H873.9v281.4h251.8L1125.7,1116.2L1125.7,1116.2z"/>
	<path class="st2" d="M251.1,1417.7H-0.7V1592h251.8V1417.7z"/>
	<path class="st2" d="M552.5,1417.7H271.1V1592h281.4V1417.7z"/>
	<path class="st2" d="M853.9,1417.7H572.5V1592h281.4V1417.7z"/>
	<path class="st2" d="M1125.7,1417.7H873.9V1592h251.8L1125.7,1417.7L1125.7,1417.7z"/>
	<path class="st4" d="M1125.7,1084.2H-0.7v60.1h1126.4L1125.7,1084.2L1125.7,1084.2z"/>
</g>
<g>
	<g>
		<path class="st5" d="M133.4,1607.1H0v103.5h133.5L133.4,1607.1L133.4,1607.1z"/>
		<path class="st5" d="M275.1,1607.1H141.6v103.5h133.5V1607.1z"/>
		<path class="st5" d="M416.8,1607.1H283.3v103.5h133.5V1607.1z"/>
		<path class="st5" d="M558.3,1607.1H424.9v103.5h133.5L558.3,1607.1L558.3,1607.1z"/>
		<path class="st5" d="M700,1607.1H566.6v103.5h133.5L700,1607.1L700,1607.1z"/>
		<path class="st5" d="M841.7,1607.1H708.2v103.5h133.5V1607.1z"/>
		<path class="st5" d="M983.4,1607.1H849.9v103.5h133.5V1607.1z"/>
		<path class="st5" d="M1124.9,1607.1H991.5v103.5H1125L1124.9,1607.1L1124.9,1607.1z"/>
	</g>
	<g>
		<path class="st5" d="M133.4,1719H0v103.5h133.5L133.4,1719L133.4,1719z"/>
		<path class="st5" d="M275.1,1719H141.6v103.5h133.5V1719z"/>
		<path class="st5" d="M416.8,1719H283.3v103.5h133.5V1719z"/>
		<path class="st5" d="M558.3,1719H424.9v103.5h133.5L558.3,1719L558.3,1719z"/>
		<path class="st5" d="M700,1719H566.6v103.5h133.5L700,1719L700,1719z"/>
		<path class="st5" d="M841.7,1719H708.2v103.5h133.5V1719z"/>
		<path class="st5" d="M983.4,1719H849.9v103.5h133.5V1719z"/>
		<path class="st5" d="M1124.9,1719H991.5v103.5H1125L1124.9,1719L1124.9,1719z"/>
	</g>
	<g>
		<path class="st5" d="M133.4,1830.9H0v113.5h133.5L133.4,1830.9L133.4,1830.9z"/>
		<path class="st5" d="M275.1,1830.9H141.6v113.5h133.5V1830.9z"/>
		<path class="st5" d="M416.8,1830.9H283.3v113.5h133.5V1830.9z"/>
		<path class="st5" d="M558.3,1830.9H424.9v113.5h133.5L558.3,1830.9L558.3,1830.9z"/>
		<path class="st5" d="M700,1830.9H566.6v113.5h133.5L700,1830.9L700,1830.9z"/>
		<path class="st5" d="M841.7,1830.9H708.2v113.5h133.5V1830.9z"/>
		<path class="st5" d="M983.4,1830.9H849.9v113.5h133.5V1830.9z"/>
		<path class="st5" d="M1124.9,1830.9H991.5v113.5H1125L1124.9,1830.9L1124.9,1830.9z"/>
	</g>
	<g>
		<path class="st5" d="M133.4,1952.8H0v113.5h133.5L133.4,1952.8L133.4,1952.8z"/>
		<path class="st5" d="M275.1,1952.8H141.6v113.5h133.5V1952.8z"/>
		<path class="st5" d="M416.8,1952.8H283.3v113.5h133.5V1952.8z"/>
		<path class="st5" d="M558.3,1952.8H424.9v113.5h133.5L558.3,1952.8L558.3,1952.8z"/>
		<path class="st5" d="M700,1952.8H566.6v113.5h133.5L700,1952.8L700,1952.8z"/>
		<path class="st5" d="M841.7,1952.8H708.2v113.5h133.5V1952.8z"/>
		<path class="st5" d="M983.4,1952.8H849.9v113.5h133.5V1952.8z"/>
		<path class="st5" d="M1124.9,1952.8H991.5v113.5H1125L1124.9,1952.8L1124.9,1952.8z"/>
	</g>
	<g>
		<path class="st5" d="M133.4,2074.7H0v123.5h133.5L133.4,2074.7L133.4,2074.7z"/>
		<path class="st5" d="M275.1,2074.7H141.6v123.5h133.5V2074.7z"/>
		<path class="st5" d="M416.8,2074.7H283.3v123.5h133.5V2074.7z"/>
		<path class="st5" d="M558.3,2074.7H424.9v123.5h133.5L558.3,2074.7L558.3,2074.7z"/>
		<path class="st5" d="M700,2074.7H566.6v123.5h133.5L700,2074.7L700,2074.7z"/>
		<path class="st5" d="M841.7,2074.7H708.2v123.5h133.5V2074.7z"/>
		<path class="st5" d="M983.4,2074.7H849.9v123.5h133.5V2074.7z"/>
		<path class="st5" d="M1124.9,2074.7H991.5v123.5H1125L1124.9,2074.7L1124.9,2074.7z"/>
	</g>
	<g>
		<path class="st5" d="M133.4,2206.6H0v123.5h133.5L133.4,2206.6L133.4,2206.6z"/>
		<path class="st5" d="M275.1,2206.6H141.6v123.5h133.5V2206.6z"/>
		<path class="st5" d="M416.8,2206.6H283.3v123.5h133.5V2206.6z"/>
		<path class="st5" d="M558.3,2206.6H424.9v123.5h133.5L558.3,2206.6L558.3,2206.6z"/>
		<path class="st5" d="M700,2206.6H566.6v123.5h133.5L700,2206.6L700,2206.6z"/>
		<path class="st5" d="M841.7,2206.6H708.2v123.5h133.5V2206.6z"/>
		<path class="st5" d="M983.4,2206.6H849.9v123.5h133.5V2206.6z"/>
		<path class="st5" d="M1124.9,2206.6H991.5v123.5H1125L1124.9,2206.6L1124.9,2206.6z"/>
	</g>
	<g>
		<path class="st5" d="M133.4,2338.5H0V2472h133.5L133.4,2338.5L133.4,2338.5z"/>
		<path class="st5" d="M275.1,2338.5H141.6V2472h133.5V2338.5z"/>
		<path class="st5" d="M416.8,2338.5H283.3V2472h133.5V2338.5z"/>
		<path class="st5" d="M558.3,2338.5H424.9V2472h133.5L558.3,2338.5L558.3,2338.5z"/>
		<path class="st5" d="M700,2338.5H566.6V2472h133.5L700,2338.5L700,2338.5z"/>
		<path class="st5" d="M841.7,2338.5H708.2V2472h133.5V2338.5z"/>
		<path class="st5" d="M983.4,2338.5H849.9V2472h133.5V2338.5z"/>
		<path class="st5" d="M1124.9,2338.5H991.5V2472H1125L1124.9,2338.5L1124.9,2338.5z"/>
	</g>
	<g>
		<path class="st5" d="M133.4,2480.4L133.4,2480.4H0"/>
		<path class="st5" d="M275.1,2480.4H141.6"/>
		<path class="st5" d="M416.8,2480.4H283.3"/>
		<path class="st5" d="M558.3,2480.4L558.3,2480.4H424.9"/>
		<path class="st5" d="M700,2480.4L700,2480.4H566.6"/>
		<path class="st5" d="M841.7,2480.4H708.2"/>
		<path class="st5" d="M983.4,2480.4H849.9"/>
		<path class="st5" d="M1124.9,2480.4L1124.9,2480.4H991.5"/>
	</g>
</g>
</svg>
