<?xml version="1.0" encoding="utf-8"?>
<!-- Generator: Adobe Illustrator 23.1.0, SVG Export Plug-In . SVG Version: 6.00 Build 0)  -->
<svg version="1.1" id="Layer_1" xmlns="http://www.w3.org/2000/svg" xmlns:xlink="http://www.w3.org/1999/xlink" x="0px" y="0px"
	 viewBox="0 0 1125 2436" style="enable-background:new 0 0 1125 2436;" xml:space="preserve">
<style type="text/css">
	.st0{fill:#EDEDED;}
	.st1{fill:#005C63;}
	.st2{fill:#1A6872;}
	.st3{fill:#004042;}
	.st4{fill:#0E4A4B;}
	.st5{opacity:0.25;fill:#005C63;enable-background:new    ;}
</style>
<g>
	<g>
		<path class="st0" d="M133.4,0H0v133.5h133.5L133.4,0L133.4,0z"/>
		<path class="st0" d="M275.1,0H141.6v133.5h133.5V0z"/>
		<path class="st0" d="M416.8,0H283.3v133.5h133.5V0z"/>
		<path class="st0" d="M558.3,0H424.9v133.5h133.5L558.3,0L558.3,0z"/>
		<path class="st0" d="M700,0H566.6v133.5h133.5L700,0L700,0z"/>
		<path class="st0" d="M841.7,0H708.2v133.5h133.5V0z"/>
		<path class="st0" d="M983.4,0H849.9v133.5h133.5V0z"/>
		<path class="st0" d="M1124.9,0H991.5v133.5H1125L1124.9,0L1124.9,0z"/>
	</g>
	<g>
		<path class="st0" d="M133.4,141.9H0v133.5h133.5L133.4,141.9L133.4,141.9z"/>
		<path class="st0" d="M275.1,141.9H141.6v133.5h133.5V141.9z"/>
		<path class="st0" d="M416.8,141.9H283.3v133.5h133.5V141.9z"/>
		<path class="st0" d="M558.3,141.9H424.9v133.5h133.5L558.3,141.9L558.3,141.9z"/>
		<path class="st0" d="M700,141.9H566.6v133.5h133.5L700,141.9L700,141.9z"/>
		<path class="st0" d="M841.7,141.9H708.2v133.5h133.5V141.9z"/>
		<path class="st0" d="M983.4,141.9H849.9v133.5h133.5V141.9z"/>
		<path class="st0" d="M1124.9,141.9H991.5v133.5H1125L1124.9,141.9L1124.9,141.9z"/>
	</g>
	<g>
		<path class="st0" d="M133.4,283.8H0v133.5h133.5L133.4,283.8L133.4,283.8z"/>
		<path class="st0" d="M275.1,283.8H141.6v133.5h133.5V283.8z"/>
		<path class="st0" d="M416.8,283.8H283.3v133.5h133.5V283.8z"/>
		<path class="st0" d="M558.3,283.8H424.9v133.5h133.5L558.3,283.8L558.3,283.8z"/>
		<path class="st0" d="M700,283.8H566.6v133.5h133.5L700,283.8L700,283.8z"/>
		<path class="st0" d="M841.7,283.8H708.2v133.5h133.5V283.8z"/>
		<path class="st0" d="M983.4,283.8H849.9v133.5h133.5V283.8z"/>
		<path class="st0" d="M1124.9,283.8H991.5v133.5H1125L1124.9,283.8L1124.9,283.8z"/>
	</g>
	<g>
		<path class="st0" d="M133.4,425.7H0v133.5h133.5L133.4,425.7L133.4,425.7z"/>
		<path class="st0" d="M275.1,425.7H141.6v133.5h133.5V425.7z"/>
		<path class="st0" d="M416.8,425.7H283.3v133.5h133.5V425.7z"/>
		<path class="st0" d="M558.3,425.7H424.9v133.5h133.5L558.3,425.7L558.3,425.7z"/>
		<path class="st0" d="M700,425.7H566.6v133.5h133.5L700,425.7L700,425.7z"/>
		<path class="st0" d="M841.7,425.7H708.2v133.5h133.5V425.7z"/>
		<path class="st0" d="M983.4,425.7H849.9v133.5h133.5V425.7z"/>
		<path class="st0" d="M1124.9,425.7H991.5v133.5H1125L1124.9,425.7L1124.9,425.7z"/>
	</g>
	<g>
		<path class="st0" d="M133.4,567.6H0v133.5h133.5L133.4,567.6L133.4,567.6z"/>
		<path class="st0" d="M275.1,567.6H141.6v133.5h133.5V567.6z"/>
		<path class="st0" d="M416.8,567.6H283.3v133.5h133.5V567.6z"/>
		<path class="st0" d="M558.3,567.6H424.9v133.5h133.5L558.3,567.6L558.3,567.6z"/>
		<path class="st0" d="M700,567.6H566.6v133.5h133.5L700,567.6L700,567.6z"/>
		<path class="st0" d="M841.7,567.6H708.2v133.5h133.5V567.6z"/>
		<path class="st0" d="M983.4,567.6H849.9v133.5h133.5V567.6z"/>
		<path class="st0" d="M1124.9,567.6H991.5v133.5H1125L1124.9,567.6L1124.9,567.6z"/>
	</g>
	<g>
		<path class="st0" d="M133.4,709.5H0V843h133.5L133.4,709.5L133.4,709.5z"/>
		<path class="st0" d="M275.1,709.5H141.6V843h133.5V709.5z"/>
		<path class="st0" d="M416.8,709.5H283.3V843h133.5V709.5z"/>
		<path class="st0" d="M558.3,709.5H424.9V843h133.5L558.3,709.5L558.3,709.5z"/>
		<path class="st0" d="M700,709.5H566.6V843h133.5L700,709.5L700,709.5z"/>
		<path class="st0" d="M841.7,709.5H708.2V843h133.5V709.5z"/>
		<path class="st0" d="M983.4,709.5H849.9V843h133.5V709.5z"/>
		<path class="st0" d="M1124.9,709.5H991.5V843H1125L1124.9,709.5L1124.9,709.5z"/>
	</g>
	<g>
		<path class="st0" d="M133.4,851.4H0v133.5h133.5L133.4,851.4L133.4,851.4z"/>
		<path class="st0" d="M275.1,851.4H141.6v133.5h133.5V851.4z"/>
		<path class="st0" d="M416.8,851.4H283.3v133.5h133.5V851.4z"/>
		<path class="st0" d="M558.3,851.4H424.9v133.5h133.5L558.3,851.4L558.3,851.4z"/>
		<path class="st0" d="M700,851.4H566.6v133.5h133.5L700,851.4L700,851.4z"/>
		<path class="st0" d="M841.7,851.4H708.2v133.5h133.5V851.4z"/>
		<path class="st0" d="M983.4,851.4H849.9v133.5h133.5V851.4z"/>
		<path class="st0" d="M1124.9,851.4H991.5v133.5H1125L1124.9,851.4L1124.9,851.4z"/>
	</g>
	<g>
		<path class="st0" d="M133.4,993.3H0v133.5h133.5L133.4,993.3L133.4,993.3z"/>
		<path class="st0" d="M275.1,993.3H141.6v133.5h133.5V993.3z"/>
		<path class="st0" d="M416.8,993.3H283.3v133.5h133.5V993.3z"/>
		<path class="st0" d="M558.3,993.3H424.9v133.5h133.5L558.3,993.3L558.3,993.3z"/>
		<path class="st0" d="M700,993.3H566.6v133.5h133.5L700,993.3L700,993.3z"/>
		<path class="st0" d="M841.7,993.3H708.2v133.5h133.5V993.3z"/>
		<path class="st0" d="M983.4,993.3H849.9v133.5h133.5V993.3z"/>
		<path class="st0" d="M1124.9,993.3H991.5v133.5H1125L1124.9,993.3L1124.9,993.3z"/>
	</g>
</g>
<g>
	<path class="st1" d="M1125.7,1084.2H-0.7V1592h1126.4L1125.7,1084.2L1125.7,1084.2z"/>
	<path class="st2" d="M1125.7,1041.1H-0.7v43.1h1126.4L1125.7,1041.1L1125.7,1041.1z"/>
	<path class="st2" d="M1125.7,1084.2H-0.7v15h1126.4L1125.7,1084.2L1125.7,1084.2z"/>
	<path class="st3" d="M1125.7,1592H-0.7v863.5h1126.4L1125.7,1592L1125.7,1592z"/>
	<path class="st2" d="M251.1,1116.2H-0.7v281.4h251.8V1116.2z"/>
	<path class="st2" d="M552.5,1116.2H271.1v281.4h281.4V1116.2z"/>
	<path class="st2" d="M853.9,1116.2H572.5v281.4h281.4V1116.2z"/>
	<path class="st2" d="M1125.7,1116.2H873.9v281.4h251.8L1125.7,1116.2L1125.7,1116.2z"/>
	<path class="st2" d="M251.1,1417.7H-0.7V1592h251.8V1417.7z"/>
	<path class="st2" d="M552.5,1417.7H271.1V1592h281.4V1417.7z"/>
	<path class="st2" d="M853.9,1417.7H572.5V1592h281.4V1417.7z"/>
	<path class="st2" d="M1125.7,1417.7H873.9V1592h251.8L1125.7,1417.7L1125.7,1417.7z"/>
	<path class="st4" d="M251.1,1612H-0.7v126.5h251.8V1612z"/>
	<path class="st4" d="M552.5,1612H271.1v126.5h281.4V1612z"/>
	<path class="st4" d="M853.9,1612H572.5v126.5h281.4V1612z"/>
	<path class="st4" d="M1125.7,1612H873.9v126.5h251.8L1125.7,1612L1125.7,1612z"/>
	<path class="st4" d="M251.1,1759.7H-0.7v208.2h251.8V1759.7z"/>
	<path class="st4" d="M552.5,1759.7H271.1v208.2h281.4V1759.7z"/>
	<path class="st4" d="M853.9,1759.7H572.5v208.2h281.4V1759.7z"/>
	<path class="st4" d="M1125.7,1759.7H873.9v208.2h251.8L1125.7,1759.7L1125.7,1759.7z"/>
	<path class="st4" d="M251.1,1989H-0.7v224.5h251.8V1989z"/>
	<path class="st4" d="M552.5,1989H271.1v224.5h281.4V1989z"/>
	<path class="st4" d="M853.9,1989H572.5v224.5h281.4V1989z"/>
	<path class="st4" d="M1125.7,1989H873.9v224.5h251.8L1125.7,1989L1125.7,1989z"/>
	<path class="st4" d="M251.1,2231H-0.7v224.5h251.8V2231z"/>
	<path class="st4" d="M552.5,2231H271.1v224.5h281.4V2231z"/>
	<path class="st4" d="M853.9,2231H572.5v224.5h281.4V2231z"/>
	<path class="st4" d="M1125.7,2231H873.9v224.5h251.8L1125.7,2231L1125.7,2231z"/>
	<path class="st5" d="M1125.7,1084.2H-0.7v60.1h1126.4L1125.7,1084.2L1125.7,1084.2z"/>
</g>
</svg>
