<?xml version="1.0" encoding="utf-8"?>
<!-- Generator: Adobe Illustrator 23.1.0, SVG Export Plug-In . SVG Version: 6.00 Build 0)  -->
<svg version="1.1" id="Layer_1" xmlns="http://www.w3.org/2000/svg" xmlns:xlink="http://www.w3.org/1999/xlink" x="0px" y="0px"
	 viewBox="0 0 1132.9 1151.4" style="enable-background:new 0 0 1132.9 1151.4;" xml:space="preserve">
<style type="text/css">
	.st0{opacity:0.7;fill:#CAFDFF;enable-background:new    ;}
	.st1{fill:#1A6872;}
	.st2{fill:#277B82;}
	.st3{fill:#258C93;}
	.st4{opacity:0.25;fill:#005C63;enable-background:new    ;}
	.st5{fill:#005C63;}
	.st6{fill:#1C1818;}
	.st7{fill:url(#SVGID_1_);}
	.st8{opacity:0.7;}
	.st9{fill:#D10037;}
	.st10{fill:#FFFFFF;}
	.st11{fill:#AFAFAF;}
	.st12{fill:#CECECE;}
	.st13{fill:#D8ED96;}
	.st14{fill:#FFDC97;}
	.st15{fill:#F1E5A4;}
	.st16{fill:#FFF5C4;}
	.st17{fill:#48773F;}
	.st18{fill:#245419;}
</style>
<g>
	<path class="st0" d="M1132.9,0H0v615.5h1132.9V0z"/>
	<path class="st1" d="M1132.9,974.1H0v177.3h1132.9V974.1z"/>
	<path class="st2" d="M1132.9,930.8H0v43.3h1132.9V930.8z"/>
	<path class="st1" d="M1132.9,974.1H0v15.1h1132.9V974.1z"/>
	<path class="st3" d="M253.3,1006.3H0v144h253.3V1006.3z"/>
	<path class="st3" d="M556.4,1006.3h-283v144h283V1006.3z"/>
	<path class="st3" d="M859.5,1006.3h-283v144h283V1006.3z"/>
	<path class="st3" d="M1132.9,1006.3H879.6v144h253.3V1006.3z"/>
	<path class="st4" d="M1132.9,974.1H0v60.4h1132.9V974.1z"/>
	<path class="st5" d="M1132.9,658.8H0v272h1132.9V658.8z"/>
	<path class="st1" d="M1132.9,615.5H0v43.3h1132.9V615.5z"/>
	<path class="st1" d="M1132.9,658.8H0v15.1h1132.9V658.8z"/>
	<path class="st1" d="M253.3,692.1H0v238.7h253.3V692.1z"/>
	<path class="st1" d="M556.4,692.1h-283v238.7h283V692.1z"/>
	<path class="st1" d="M859.5,692.1h-283v238.7h283V692.1z"/>
	<path class="st1" d="M1132.9,692.1H879.6v238.7h253.3V692.1z"/>
	<path class="st4" d="M1132.9,658.8H0v60.4h1132.9V658.8z"/>
</g>
<g>
	<path class="st6" d="M704,467.7H428.9c-21.6,0-39.2,17.5-39.2,39.2v2.9v24.4v81.3h353.5v-81.3v-24.4v-2.9
		C743.2,485.3,725.7,467.7,704,467.7z"/>
	
		<linearGradient id="SVGID_1_" gradientUnits="userSpaceOnUse" x1="566.45" y1="1876.7" x2="566.45" y2="1770.5" gradientTransform="matrix(1 0 0 1 0 -1282)">
		<stop  offset="0" style="stop-color:#122F30;stop-opacity:0.25"/>
		<stop  offset="1" style="stop-color:#3F4647"/>
	</linearGradient>
	<path class="st7" d="M410.5,594.7v-87.8c0-10.1,8.2-18.4,18.4-18.4H704c10.1,0,18.4,8.2,18.4,18.4v87.8H410.5z"/>
	<g class="st8">
		<g>
			<path class="st9" d="M493.6,584.1v-45.9c0-7.8-0.2-10.4-0.4-11.2c-0.2-0.9-0.7-1.5-1.7-1.9c-0.7-0.3-2.6-0.8-8.6-0.8h-3.5v-12.4
				l1.2-0.3c9.6-2.1,17-6.3,21.9-12.7l0.5-0.6h14.2v85.8L493.6,584.1L493.6,584.1z"/>
			<path class="st10" d="M515.7,499.8v82.8H495v-44.4c0-6.4-0.2-10.3-0.5-11.6s-1.2-2.3-2.5-2.9c-1.4-0.7-4.5-1-9.2-1h-2V513
				c10-2.1,17.6-6.6,22.8-13.3L515.7,499.8 M518.7,496.8h-3h-12.2H502l-0.9,1.2c-4.7,6.1-11.8,10.2-21,12.2l-2.4,0.5v2.4v9.7v3h3h2
				c6.2,0,7.7,0.6,7.9,0.7c0.8,0.4,0.9,0.7,0.9,0.9c0.1,0.4,0.4,2.3,0.4,10.9v44.4v3h3h20.7h3v-3v-82.8L518.7,496.8L518.7,496.8
				L518.7,496.8z"/>
		</g>
		<g>
			<path class="st9" d="M547,585.7c-5.1,0-9.4-0.6-12.8-1.8c-3.5-1.2-6.4-3.2-8.5-5.8s-3.5-5.3-4.4-8.1s-1.3-7.2-1.3-13.2v-28.9
				c0-7.8,0.7-13.6,2.1-17.6c1.4-4.1,4.3-7.4,8.5-9.9c4.1-2.4,9.1-3.6,15-3.6c4.7,0,9,0.8,12.8,2.5s6.7,3.8,8.6,6.3
				c1.9,2.5,3.2,5.2,3.9,8.3c0.7,3,1,7.6,1,14v27.6c0,6.5-0.3,11-1.1,14.1c-0.7,3.1-2.3,6-4.6,8.7s-5.1,4.6-8.4,5.8
				C554.5,585.1,550.9,585.7,547,585.7z M546,512.4c-1.3,0-1.5,0.5-1.7,0.8c-0.2,0.6-0.6,2.3-0.6,7.6v40.4c0,6.4,0.4,7.8,0.6,8.1
				c0.1,0.2,0.3,0.6,1.6,0.6s1.5-0.5,1.6-0.8c0.2-0.5,0.6-2.2,0.6-7.3v-41c0-5.5-0.3-7.2-0.5-7.7C547.5,512.9,547.3,512.4,546,512.4
				z"/>
			<path class="st10" d="M545.5,498.2c4.5,0,8.6,0.8,12.2,2.4c3.6,1.6,6.3,3.5,8,5.8c1.8,2.3,3,4.9,3.6,7.7
				c0.6,2.9,0.9,7.4,0.9,13.7v27.6c0,6.3-0.3,10.8-1,13.7s-2.1,5.5-4.2,8c-2.1,2.5-4.7,4.3-7.8,5.4c-3,1.1-6.4,1.6-10.2,1.6
				c-4.9,0-9.1-0.6-12.3-1.7s-5.9-2.9-7.8-5.3c-1.9-2.4-3.3-5-4.1-7.6c-0.8-2.7-1.2-6.9-1.2-12.8v-28.9c0-7.6,0.7-13.3,2-17.1
				c1.3-3.8,3.9-6.8,7.8-9.1C535.3,499.3,539.9,498.2,545.5,498.2 M545.9,571.4c1.5,0,2.5-0.6,3-1.7c0.5-1.2,0.7-3.8,0.7-7.8v-41
				c0-4.4-0.2-7.2-0.6-8.3c-0.4-1.1-1.4-1.7-3-1.7c-1.5,0-2.5,0.6-3,1.8c-0.5,1.2-0.7,3.9-0.7,8.2v40.4c0,4.8,0.2,7.7,0.7,8.7
				C543.3,570.9,544.3,571.4,545.9,571.4 M545.5,495.2c-6.1,0-11.4,1.3-15.7,3.8c-4.5,2.6-7.6,6.2-9.1,10.7
				c-1.4,4.1-2.1,10-2.1,18.1v28.9c0,6.2,0.4,10.6,1.4,13.6c0.9,3,2.5,5.9,4.7,8.6c2.3,2.9,5.4,5,9.2,6.3c3.6,1.2,8.1,1.9,13.3,1.9
				c4.1,0,7.8-0.6,11.2-1.8c3.5-1.3,6.6-3.4,9-6.2c2.5-2.8,4.1-6,4.9-9.3c0.7-3.1,1.1-7.8,1.1-14.4v-27.6c0-6.6-0.3-11.2-1-14.4
				c-0.7-3.3-2.1-6.3-4.2-8.9c-2.1-2.7-5.2-4.9-9.2-6.7C554.9,496.1,550.4,495.2,545.5,495.2L545.5,495.2z M545.6,513.9
				c0.1,0,0.2,0,0.3,0s0.2,0,0.3,0c0.1,0.6,0.4,2.4,0.4,6.9v41c0,4.5-0.3,6.1-0.4,6.5c-0.1,0-0.2,0-0.3,0s-0.2,0-0.3,0
				c-0.1-0.7-0.4-2.5-0.4-7.2v-40.4C545.3,515.9,545.5,514.3,545.6,513.9L545.6,513.9z"/>
		</g>
		<g>
			<path class="st9" d="M604.1,532.9c-2.4,0-4.5-0.9-6.2-2.5c-1.7-1.7-2.5-3.7-2.5-6.1c0-2.4,0.9-4.4,2.6-6.1
				c1.7-1.7,3.8-2.6,6.1-2.6s4.3,0.8,6.1,2.5c1.7,1.7,2.6,3.8,2.6,6.2s-0.9,4.4-2.6,6.1C608.5,532,606.5,532.9,604.1,532.9z
				 M604,523c-0.4,0-0.6,0.1-0.9,0.4c-0.3,0.3-0.4,0.5-0.4,0.9s0.1,0.6,0.4,0.9c0.3,0.3,0.6,0.4,0.9,0.4c0.4,0,0.7-0.1,0.9-0.4
				c0.3-0.3,0.4-0.5,0.4-0.9s-0.1-0.7-0.4-0.9C604.8,523.2,604.4,523,604,523z"/>
			<path class="st10" d="M604.1,517c1.9,0,3.6,0.7,5,2.1c1.4,1.4,2.1,3.1,2.1,5.1s-0.7,3.7-2.1,5.1c-1.4,1.4-3.1,2.1-5,2.1
				c-2,0-3.7-0.7-5.1-2.1c-1.4-1.4-2.1-3.1-2.1-5.1s0.7-3.7,2.1-5.1S602.1,517,604.1,517 M604,527.2c0.8,0,1.4-0.3,2-0.8
				s0.8-1.2,0.8-2s-0.3-1.5-0.8-2c-0.6-0.5-1.2-0.8-2-0.8s-1.4,0.3-2,0.8s-0.8,1.2-0.8,2s0.3,1.4,0.8,2
				C602.6,526.9,603.3,527.2,604,527.2 M604.1,514c-2.8,0-5.2,1-7.2,3s-3,4.4-3,7.2s1,5.2,3,7.2s4.4,3,7.2,3s5.2-1,7.2-3
				c2-1.9,3-4.4,3-7.2s-1.1-5.4-3.1-7.3C609.3,515,606.8,514,604.1,514L604.1,514z"/>
		</g>
		<g>
			<path class="st9" d="M635.3,585.2c-4.4,0-8.2-0.8-11.1-2.5c-3.1-1.7-5.1-4.1-6.1-7.2c-0.9-2.9-1.4-7-1.4-12.6v-16.1
				c0-4.1,0.1-7.1,0.4-9.2c0.3-2.2,1.2-4.4,2.7-6.4s3.6-3.7,6.2-4.8c2.6-1.1,5.6-1.7,8.9-1.7c4.5,0,8.3,0.9,11.2,2.7
				c3,1.8,5.1,4.1,6.1,6.9c0.9,2.6,1.4,6.5,1.4,11.9v6.7h-17.4v-11.1c0-3.7-0.3-4.5-0.3-4.6s-0.3-0.1-0.7-0.1
				c-0.7,0-0.8,0.2-0.8,0.3c-0.1,0.3-0.4,1.4-0.4,4.9v25.6c0,3.4,0.3,4.4,0.4,4.7c0,0.1,0.1,0.3,0.8,0.3c0.6,0,0.7-0.2,0.7-0.3
				c0.1-0.2,0.4-1.3,0.4-5.2V559h17.4v3.7c0,5.9-0.4,10.1-1.3,12.6c-0.9,2.7-2.9,5.1-6,7.1C643.4,584.2,639.8,585.2,635.3,585.2z"/>
			<path class="st10" d="M634.9,526.2c4.2,0,7.7,0.8,10.5,2.5c2.8,1.6,4.6,3.7,5.4,6.1c0.9,2.4,1.3,6.2,1.3,11.4v5.2h-14.3v-9.6
				c0-2.8-0.2-4.5-0.5-5.2s-1-1-2-1c-1.2,0-1.9,0.4-2.3,1.3c-0.3,0.8-0.5,2.7-0.5,5.5V568c0,2.7,0.2,4.4,0.5,5.3
				c0.3,0.8,1,1.2,2.1,1.2s1.8-0.4,2.1-1.2s0.5-2.7,0.5-5.8v-6.9h14.4v2.2c0,5.7-0.4,9.8-1.2,12.2s-2.6,4.5-5.4,6.3
				c-2.8,1.8-6.2,2.7-10.2,2.7c-4.2,0-7.7-0.8-10.4-2.3s-4.5-3.6-5.4-6.3s-1.3-6.7-1.3-12.2v-16.1c0-4,0.1-7,0.4-9
				c0.3-2,1.1-3.9,2.4-5.7c1.4-1.8,3.2-3.3,5.6-4.3C629.1,526.7,631.8,526.2,634.9,526.2 M634.9,523.2c-3.5,0-6.7,0.6-9.5,1.8
				c-2.9,1.3-5.2,3.1-6.8,5.3s-2.7,4.6-3,7.1c-0.3,2.1-0.4,5.2-0.4,9.4V563c0,5.8,0.5,10.1,1.5,13.1c1.1,3.4,3.4,6.1,6.8,8
				c3.2,1.8,7.2,2.7,11.9,2.7c4.6,0,8.6-1.1,11.8-3.2c3.3-2.2,5.5-4.8,6.6-7.8c0.9-2.7,1.4-7,1.4-13.1v-2.2v-3h-3h-14.4h-2.2v-3h2.2
				h14.4h3v-3v-5.2c0-5.5-0.5-9.6-1.5-12.4c-1.1-3.1-3.4-5.7-6.7-7.7C643.8,524.2,639.8,523.2,634.9,523.2L634.9,523.2z"/>
		</g>
	</g>
</g>
<g>
	<g>
		<g>
			<rect x="722.2" y="706.6" class="st11" width="12.6" height="42.3"/>
			<rect x="719" y="699.9" class="st12" width="18.9" height="18.9"/>
			<rect x="728.5" y="705.3" class="st12" width="23.4" height="8.1"/>
			<path class="st13" d="M744,852h-31.1c-12.1,0-21.8-9.8-21.8-21.8v-77.9c0-12.1,9.8-21.8,21.8-21.8H744c12.1,0,21.8,9.8,21.8,21.8
				v77.9C765.8,842.2,756.1,852,744,852z"/>
		</g>
		<g>
			<rect x="796.9" y="706.6" class="st11" width="12.6" height="42.3"/>
			<rect x="793.7" y="699.9" class="st12" width="18.9" height="18.9"/>
			<rect x="803.2" y="705.3" class="st12" width="23.4" height="8.1"/>
			<path class="st14" d="M818.7,852h-31c-12.1,0-21.8-9.8-21.8-21.8v-77.9c0-12.1,9.8-21.8,21.8-21.8h31c12.1,0,21.8,9.8,21.8,21.8
				v77.9C840.5,842.2,830.8,852,818.7,852z"/>
		</g>
	</g>
	<g>
		<path class="st15" d="M656.8,810c-0.5,4.2-0.7,8.4-0.7,12.7v1.3c0,59.1,48,107.1,107.1,107.1h192.6c59.1,0,107.1-48,107.1-107.1
			v-1.3c0-4.3-0.3-8.5-0.7-12.7H656.8z"/>
	</g>
	<rect x="639.9" y="773.8" class="st16" width="439.2" height="39.1"/>
	<g>
		<path class="st17" d="M1011.8,856.8h-75.6c-3.2,0-5.9-2.6-5.9-5.9V769c0-3.2,2.6-5.9,5.9-5.9h75.6c3.2,0,5.9,2.6,5.9,5.9v81.9
			C1017.7,854.2,1015.1,856.8,1011.8,856.8z"/>
		<path class="st18" d="M1012.8,856.8h-77.6c-2.7,0-4.9-2.2-4.9-4.9v-0.2c0-2.7,2.2-4.8,4.9-4.8h77.6c2.7,0,4.9,2.2,4.9,4.8v0.2
			C1017.7,854.6,1015.5,856.8,1012.8,856.8z"/>
		<rect x="930.4" y="823.2" class="st18" width="87.3" height="9.9"/>
		<rect x="930.4" y="846.9" class="st18" width="87.3" height="4.9"/>
		<rect x="930.4" y="799.6" class="st18" width="87.3" height="9.9"/>
		<rect x="930.4" y="775.9" class="st18" width="87.3" height="9.9"/>
	</g>
</g>
</svg>
