<?xml version="1.0" encoding="utf-8"?>
<!-- Generator: Adobe Illustrator 23.1.0, SVG Export Plug-In . SVG Version: 6.00 Build 0)  -->
<svg version="1.1" id="Layer_1" xmlns="http://www.w3.org/2000/svg" xmlns:xlink="http://www.w3.org/1999/xlink" x="0px" y="0px"
	 viewBox="0 0 767.4 2180.9" style="enable-background:new 0 0 767.4 2180.9;" xml:space="preserve">
<style type="text/css">
	.st0{fill:#0E4A4B;}
	.st1{fill:#005C63;}
	.st2{fill:#B7B7B7;}
	.st3{fill:#89E5E5;}
</style>
<rect x="340.9" y="0.3" class="st0" width="86" height="281"/>
<ellipse class="st0" cx="383.7" cy="359.5" rx="168.5" ry="88.6"/>
<ellipse class="st1" cx="383.7" cy="482.8" rx="269.8" ry="141.9"/>
<ellipse class="st2" cx="383.7" cy="489.7" rx="241" ry="118.5"/>
<g>
	<g>
		<g>
			<g>
				<path class="st3" d="M399.2,1976.3c0,12.3-6.9,22.3-15.5,22.3c-8.6,0-15.5-10-15.5-22.3c0-12.3,15.5-39.5,15.5-39.5
					S399.2,1964,399.2,1976.3z"/>
			</g>
			<g>
				<path class="st3" d="M399,1824.3c0,12.3-6.8,22.3-15.3,22.3c-8.5,0-15.3-10-15.3-22.3c0-12.3,15.3-39.5,15.3-39.5
					S398.9,1812,399,1824.3z"/>
			</g>
			<g>
				<path class="st3" d="M398.7,1672.3c0,12.3-6.7,22.3-15,22.3s-15-10-15-22.3c0-12.3,15-39.5,15-39.5S398.7,1660,398.7,1672.3z"/>
			</g>
			<g>
				<path class="st3" d="M398.5,1520.3c0,12.3-6.6,22.3-14.8,22.3c-8.2,0-14.8-10-14.8-22.3c0-12.3,14.8-39.5,14.8-39.5
					S398.4,1508,398.5,1520.3z"/>
			</g>
			<g>
				<path class="st3" d="M398.2,1368.3c0,12.3-6.5,22.3-14.5,22.3c-8,0-14.6-10-14.5-22.3c0-12.3,14.5-39.5,14.5-39.5
					S398.2,1356,398.2,1368.3z"/>
			</g>
			<g>
				<path class="st3" d="M398,1216.3c0,12.3-6.4,22.3-14.3,22.3s-14.3-10-14.3-22.3c0-12.3,14.3-39.5,14.3-39.5
					S397.9,1204,398,1216.3z"/>
			</g>
			<g>
				<path class="st3" d="M397.7,1064.3c0,12.3-6.3,22.3-14,22.3c-7.8,0-14.1-10-14-22.3c0-12.3,14-39.5,14-39.5
					S397.7,1052,397.7,1064.3z"/>
			</g>
			<g>
				<path class="st3" d="M397.5,912.3c0,12.3-6.2,22.3-13.8,22.3c-7.6,0-13.8-10-13.8-22.3c0-12.3,13.8-39.5,13.8-39.5
					S397.4,900,397.5,912.3z"/>
			</g>
			<g>
				<path class="st3" d="M397.2,760.3c0,12.3-6,22.3-13.5,22.3c-7.5,0-13.6-10-13.5-22.3c0-12.3,13.5-39.5,13.5-39.5
					S397.2,748,397.2,760.3z"/>
			</g>
			<g>
				<path class="st3" d="M397,608.3c0,12.3-5.9,22.3-13.3,22.3c-7.4,0-13.3-10-13.3-22.3c0-12.3,13.3-39.5,13.3-39.5
					S397,596,397,608.3z"/>
			</g>
			<g>
				<path class="st3" d="M396.7,456.3c0,12.3-5.8,22.3-13,22.3c-7.2,0-13.1-10-13-22.3c0-12.3,13-39.5,13-39.5
					S396.7,444,396.7,456.3z"/>
			</g>
		</g>
		<g>
			<g>
				<path class="st3" d="M67.7,1700.2c-0.4,12.3-7.5,22.3-15.9,22.3s-14.7-10-14.3-22.3s16.5-39.5,16.5-39.5S68.1,1688,67.7,1700.2z
					"/>
			</g>
			<g>
				<path class="st3" d="M79.2,1548.4c-0.4,12.3-7.4,22.3-15.6,22.3s-14.5-10-14-22.3c0.5-12.3,16.2-39.5,16.2-39.5
					S79.6,1536.1,79.2,1548.4z"/>
			</g>
			<g>
				<path class="st3" d="M94.8,1396.8c-0.4,12.3-7.3,22.3-15.3,22.3s-14.3-10-13.8-22.3s15.9-39.5,15.9-39.5
					S95.2,1384.5,94.8,1396.8z"/>
			</g>
			<g>
				<path class="st3" d="M113.9,1245.7c-0.4,12.3-7.1,22.3-15.1,22.3s-14-10-13.6-22.3c0.4-12.3,15.6-39.5,15.6-39.5
					S114.3,1233.4,113.9,1245.7z"/>
			</g>
			<g>
				<path class="st3" d="M136.1,1094.9c-0.4,12.3-7,22.3-14.8,22.3s-13.8-10-13.4-22.3c0.4-12.3,15.3-39.5,15.3-39.5
					S136.4,1082.6,136.1,1094.9z"/>
			</g>
			<g>
				<path class="st3" d="M160.9,944.7c-0.3,12.3-6.8,22.3-14.5,22.3c-7.7,0-13.6-10-13.2-22.3s14.9-39.5,14.9-39.5
					S161.3,932.4,160.9,944.7z"/>
			</g>
			<g>
				<path class="st3" d="M188,795.1c-0.3,12.3-6.6,22.3-14.2,22.3s-13.4-10-13-22.3c0.3-12.3,14.6-39.5,14.6-39.5
					S188.2,782.8,188,795.1z"/>
			</g>
			<g>
				<path class="st3" d="M217.6,646.2c-0.2,12.3-6.4,22.3-13.8,22.3s-13.2-10-12.9-22.3c0.3-12.3,14.2-39.5,14.2-39.5
					S217.8,634,217.6,646.2z"/>
			</g>
			<g>
				<path class="st3" d="M250,498.4c-0.2,12.3-6.3,22.3-13.5,22.3s-13-10-12.7-22.3c0.2-12.3,13.8-39.5,13.8-39.5
					S250.2,486.1,250,498.4z"/>
			</g>
		</g>
		<g>
			<g>
				<path class="st3" d="M194.8,2064c-0.2,12.3-7.5,22.3-16.1,22.3s-15.5-10-15.2-22.3c0.3-12.3,16.5-39.5,16.5-39.5
					S195.1,2051.7,194.8,2064z"/>
			</g>
			<g>
				<path class="st3" d="M198.9,1912c-0.2,12.3-7.4,22.3-15.9,22.3s-15.2-10-14.9-22.3s16.3-39.5,16.3-39.5S199.1,1899.7,198.9,1912
					z"/>
			</g>
			<g>
				<path class="st3" d="M208.2,1760.2c-0.2,12.3-7.2,22.3-15.6,22.3s-15-10-14.7-22.3s16-39.5,16-39.5S208.4,1747.9,208.2,1760.2z"
					/>
			</g>
			<g>
				<path class="st3" d="M219.9,1608.5c-0.2,12.3-7.1,22.3-15.4,22.3s-14.8-10-14.5-22.3c0.3-12.3,15.7-39.5,15.7-39.5
					S220.1,1596.2,219.9,1608.5z"/>
			</g>
			<g>
				<path class="st3" d="M233.2,1456.9c-0.2,12.3-7,22.3-15.1,22.3c-8.1,0-14.5-10-14.3-22.3c0.2-12.3,15.4-39.5,15.4-39.5
					S233.4,1444.6,233.2,1456.9z"/>
			</g>
			<g>
				<path class="st3" d="M247.3,1305.4c-0.2,12.3-6.8,22.3-14.8,22.3c-8,0-14.3-10-14.1-22.3c0.2-12.3,15.1-39.5,15.1-39.5
					S247.5,1293.1,247.3,1305.4z"/>
			</g>
			<g>
				<path class="st3" d="M262.1,1154c-0.2,12.3-6.7,22.3-14.5,22.3s-14-10-13.8-22.3c0.2-12.3,14.8-39.5,14.8-39.5
					S262.3,1141.8,262.1,1154z"/>
			</g>
			<g>
				<path class="st3" d="M277.2,1002.8c-0.2,12.3-6.5,22.3-14.3,22.3c-7.7,0-13.8-10-13.6-22.3s14.5-39.5,14.5-39.5
					S277.4,990.5,277.2,1002.8z"/>
			</g>
			<g>
				<path class="st3" d="M292.7,851.6c-0.1,12.3-6.4,22.3-14,22.3s-13.6-10-13.4-22.3c0.2-12.3,14.2-39.5,14.2-39.5
					S292.8,839.3,292.7,851.6z"/>
			</g>
			<g>
				<path class="st3" d="M308.2,700.4c-0.1,12.3-6.2,22.3-13.7,22.3s-13.4-10-13.2-22.3c0.2-12.3,13.9-39.5,13.9-39.5
					S308.3,688.1,308.2,700.4z"/>
			</g>
			<g>
				<path class="st3" d="M323.9,549.4c-0.1,12.3-6.1,22.3-13.4,22.3s-13.1-10-13-22.3c0.1-12.3,13.6-39.5,13.6-39.5
					S324,537.1,323.9,549.4z"/>
			</g>
		</g>
		<g>
			<g>
				<path class="st3" d="M699.7,1700.2c0.4,12.3,7.5,22.3,15.9,22.3s14.7-10,14.3-22.3s-16.5-39.5-16.5-39.5
					S699.2,1688,699.7,1700.2z"/>
			</g>
			<g>
				<path class="st3" d="M688.2,1548.4c0.4,12.3,7.4,22.3,15.6,22.3c8.2,0,14.5-10,14-22.3c-0.5-12.3-16.2-39.5-16.2-39.5
					S687.7,1536.1,688.2,1548.4z"/>
			</g>
			<g>
				<path class="st3" d="M672.6,1396.8c0.4,12.3,7.3,22.3,15.3,22.3c8.1,0,14.3-10,13.8-22.3s-15.9-39.5-15.9-39.5
					S672.2,1384.5,672.6,1396.8z"/>
			</g>
			<g>
				<path class="st3" d="M653.5,1245.7c0.4,12.3,7.1,22.3,15.1,22.3s14-10,13.6-22.3c-0.4-12.3-15.6-39.5-15.6-39.5
					S653.1,1233.4,653.5,1245.7z"/>
			</g>
			<g>
				<path class="st3" d="M631.3,1094.9c0.4,12.3,7,22.3,14.8,22.3s13.8-10,13.4-22.3c-0.4-12.3-15.3-39.5-15.3-39.5
					S630.9,1082.6,631.3,1094.9z"/>
			</g>
			<g>
				<path class="st3" d="M606.4,944.7c0.3,12.3,6.8,22.3,14.5,22.3c7.7,0,13.6-10,13.2-22.3c-0.4-12.3-14.9-39.5-14.9-39.5
					S606.1,932.4,606.4,944.7z"/>
			</g>
			<g>
				<path class="st3" d="M579.4,795.1c0.3,12.3,6.6,22.3,14.2,22.3s13.4-10,13-22.3c-0.3-12.3-14.6-39.5-14.6-39.5
					S579.1,782.8,579.4,795.1z"/>
			</g>
			<g>
				<path class="st3" d="M549.7,646.2c0.2,12.3,6.4,22.3,13.8,22.3c7.4,0,13.2-10,12.9-22.3c-0.3-12.3-14.2-39.5-14.2-39.5
					S549.5,634,549.7,646.2z"/>
			</g>
			<g>
				<path class="st3" d="M517.4,498.4c0.2,12.3,6.3,22.3,13.5,22.3s13-10,12.7-22.3c-0.2-12.3-13.8-39.5-13.8-39.5
					S517.2,486.1,517.4,498.4z"/>
			</g>
		</g>
		<g>
			<g>
				<path class="st3" d="M572.5,2064c0.2,12.3,7.5,22.3,16.1,22.3s15.5-10,15.2-22.3c-0.3-12.3-16.5-39.5-16.5-39.5
					S572.3,2051.7,572.5,2064z"/>
			</g>
			<g>
				<path class="st3" d="M568.4,1912c0.2,12.3,7.4,22.3,15.9,22.3c8.5,0,15.2-10,14.9-22.3s-16.3-39.5-16.3-39.5
					S568.2,1899.7,568.4,1912z"/>
			</g>
			<g>
				<path class="st3" d="M559.2,1760.2c0.2,12.3,7.2,22.3,15.6,22.3c8.4,0,15-10,14.7-22.3s-16-39.5-16-39.5
					S558.9,1747.9,559.2,1760.2z"/>
			</g>
			<g>
				<path class="st3" d="M547.4,1608.5c0.2,12.3,7.1,22.3,15.4,22.3s14.8-10,14.5-22.3c-0.3-12.3-15.7-39.5-15.7-39.5
					S547.2,1596.2,547.4,1608.5z"/>
			</g>
			<g>
				<path class="st3" d="M534.2,1456.9c0.2,12.3,7,22.3,15.1,22.3s14.5-10,14.3-22.3c-0.2-12.3-15.4-39.5-15.4-39.5
					S534,1444.6,534.2,1456.9z"/>
			</g>
			<g>
				<path class="st3" d="M520.1,1305.4c0.2,12.3,6.8,22.3,14.8,22.3c8,0,14.3-10,14.1-22.3s-15.1-39.5-15.1-39.5
					S519.9,1293.1,520.1,1305.4z"/>
			</g>
			<g>
				<path class="st3" d="M505.2,1154c0.2,12.3,6.7,22.3,14.5,22.3c7.9,0,14-10,13.8-22.3s-14.8-39.5-14.8-39.5
					S505.1,1141.8,505.2,1154z"/>
			</g>
			<g>
				<path class="st3" d="M490.1,1002.8c0.2,12.3,6.5,22.3,14.3,22.3c7.7,0,13.8-10,13.6-22.3s-14.5-39.5-14.5-39.5
					S490,990.5,490.1,1002.8z"/>
			</g>
			<g>
				<path class="st3" d="M474.7,851.6c0.1,12.3,6.4,22.3,14,22.3s13.6-10,13.4-22.3c-0.2-12.3-14.2-39.5-14.2-39.5
					S474.5,839.3,474.7,851.6z"/>
			</g>
			<g>
				<path class="st3" d="M459.1,700.4c0.1,12.3,6.2,22.3,13.7,22.3s13.4-10,13.2-22.3c-0.2-12.3-13.9-39.5-13.9-39.5
					S459,688.1,459.1,700.4z"/>
			</g>
			<g>
				<path class="st3" d="M443.4,549.4c0.1,12.3,6.1,22.3,13.4,22.3s13.1-10,13-22.3c-0.1-12.3-13.6-39.5-13.6-39.5
					S443.3,537.1,443.4,549.4z"/>
			</g>
		</g>
	</g>
</g>
</svg>
